Mont_SC_170922_Light_Italic.ufo
<glyph name="exclam" format="1">
  <advance width="197"/>
  <unicode hex="0021"/>
  <outline>
    <contour>
      <point x="95" y="152" type="line"/>
      <point x="181" y="559" type="line"/>
      <point x="159" y="559" type="line"/>
      <point x="80" y="152" type="line"/>
    </contour>
    <contour>
      <point x="84" y="21" type="curve" smooth="yes"/>
      <point x="84" y="33"/>
      <point x="73" y="43"/>
      <point x="61" y="43" type="curve" smooth="yes"/>
      <point x="48" y="43"/>
      <point x="38" y="33"/>
      <point x="38" y="20" type="curve" smooth="yes"/>
      <point x="38" y="8"/>
      <point x="48" y="-3"/>
      <point x="61" y="-3" type="curve" smooth="yes"/>
      <point x="73" y="-3"/>
      <point x="84" y="8"/>
    </contour>
  </outline>
</glyph>
<glyph name="numbersign" format="1">
  <advance width="553"/>
  <unicode hex="0023"/>
  <outline>
    <contour>
      <point x="315" y="0" type="line"/>
      <point x="497" y="559" type="line"/>
      <point x="477" y="559" type="line"/>
      <point x="295" y="0" type="line"/>
    </contour>
    <contour>
      <point x="491" y="166" type="line"/>
      <point x="494" y="184" type="line"/>
      <point x="23" y="184" type="line"/>
      <point x="20" y="166" type="line"/>
    </contour>
    <contour>
      <point x="105" y="0" type="line"/>
      <point x="286" y="559" type="line"/>
      <point x="267" y="559" type="line"/>
      <point x="85" y="0" type="line"/>
    </contour>
    <contour>
      <point x="559" y="375" type="line"/>
      <point x="561" y="393" type="line"/>
      <point x="90" y="393" type="line"/>
      <point x="88" y="375" type="line"/>
    </contour>
  </outline>
</glyph>
<glyph name="dollar" format="1">
  <advance width="487"/>
  <unicode hex="0024"/>
  <outline>
    <contour>
      <point x="192" y="-96" type="line"/>
      <point x="344" y="655" type="line"/>
      <point x="326" y="655" type="line"/>
      <point x="174" y="-96" type="line"/>
    </contour>
    <contour>
      <point x="428" y="157" type="curve" smooth="yes"/>
      <point x="428" y="323"/>
      <point x="124" y="252"/>
      <point x="124" y="403" type="curve" smooth="yes"/>
      <point x="124" y="491"/>
      <point x="204" y="543"/>
      <point x="314" y="543" type="curve" smooth="yes"/>
      <point x="373" y="543"/>
      <point x="427" y="526"/>
      <point x="467" y="495" type="curve"/>
      <point x="479" y="512" type="line"/>
      <point x="439" y="544"/>
      <point x="376" y="562"/>
      <point x="314" y="562" type="curve" smooth="yes"/>
      <point x="195" y="562"/>
      <point x="105" y="505"/>
      <point x="105" y="401" type="curve" smooth="yes"/>
      <point x="105" y="232"/>
      <point x="408" y="304"/>
      <point x="408" y="155" type="curve" smooth="yes"/>
      <point x="408" y="66"/>
      <point x="328" y="16"/>
      <point x="214" y="16" type="curve" smooth="yes"/>
      <point x="141" y="16"/>
      <point x="65" y="47"/>
      <point x="34" y="89" type="curve"/>
      <point x="20" y="75" type="line"/>
      <point x="51" y="31"/>
      <point x="133" y="-3"/>
      <point x="213" y="-3" type="curve" smooth="yes"/>
      <point x="333" y="-3"/>
      <point x="428" y="51"/>
    </contour>
  </outline>
</glyph>
<glyph name="percent" format="1">
  <advance width="649"/>
  <unicode hex="0025"/>
  <outline>
    <contour>
      <point x="101" y="0" type="line"/>
      <point x="599" y="559" type="line"/>
      <point x="577" y="559" type="line"/>
      <point x="79" y="0" type="line"/>
    </contour>
    <contour>
      <point x="327" y="446" type="curve" smooth="yes"/>
      <point x="327" y="517"/>
      <point x="287" y="561"/>
      <point x="224" y="561" type="curve" smooth="yes"/>
      <point x="134" y="561"/>
      <point x="78" y="470"/>
      <point x="78" y="377" type="curve" smooth="yes"/>
      <point x="78" y="306"/>
      <point x="117" y="262"/>
      <point x="180" y="262" type="curve" smooth="yes"/>
      <point x="271" y="262"/>
      <point x="327" y="353"/>
    </contour>
    <contour>
      <point x="96" y="379" type="curve" smooth="yes"/>
      <point x="96" y="458"/>
      <point x="142" y="545"/>
      <point x="223" y="545" type="curve" smooth="yes"/>
      <point x="277" y="545"/>
      <point x="308" y="507"/>
      <point x="308" y="444" type="curve" smooth="yes"/>
      <point x="308" y="365"/>
      <point x="262" y="278"/>
      <point x="182" y="278" type="curve" smooth="yes"/>
      <point x="127" y="278"/>
      <point x="96" y="316"/>
    </contour>
    <contour>
      <point x="600" y="181" type="curve" smooth="yes"/>
      <point x="600" y="253"/>
      <point x="561" y="297"/>
      <point x="498" y="297" type="curve" smooth="yes"/>
      <point x="408" y="297"/>
      <point x="352" y="206"/>
      <point x="352" y="113" type="curve" smooth="yes"/>
      <point x="352" y="41"/>
      <point x="391" y="-3"/>
      <point x="454" y="-3" type="curve" smooth="yes"/>
      <point x="544" y="-3"/>
      <point x="600" y="88"/>
    </contour>
    <contour>
      <point x="370" y="115" type="curve" smooth="yes"/>
      <point x="370" y="193"/>
      <point x="416" y="280"/>
      <point x="497" y="280" type="curve" smooth="yes"/>
      <point x="551" y="280"/>
      <point x="582" y="243"/>
      <point x="582" y="179" type="curve" smooth="yes"/>
      <point x="582" y="101"/>
      <point x="536" y="14"/>
      <point x="455" y="14" type="curve" smooth="yes"/>
      <point x="401" y="14"/>
      <point x="370" y="52"/>
    </contour>
  </outline>
</glyph>
<glyph name="ampersand" format="1">
  <advance width="515"/>
  <unicode hex="0026"/>
  <outline>
    <contour>
      <point x="474" y="230" type="curve"/>
      <point x="457" y="234" type="line"/>
      <point x="398" y="85"/>
      <point x="303" y="14"/>
      <point x="183" y="14" type="curve" smooth="yes"/>
      <point x="98" y="14"/>
      <point x="48" y="57"/>
      <point x="48" y="119" type="curve" smooth="yes"/>
      <point x="48" y="184"/>
      <point x="88" y="229"/>
      <point x="231" y="300" type="curve" smooth="yes"/>
      <point x="366" y="366"/>
      <point x="411" y="405"/>
      <point x="411" y="473" type="curve" smooth="yes"/>
      <point x="411" y="526"/>
      <point x="369" y="562"/>
      <point x="303" y="562" type="curve" smooth="yes"/>
      <point x="219" y="562"/>
      <point x="164" y="512"/>
      <point x="164" y="434" type="curve" smooth="yes"/>
      <point x="164" y="396"/>
      <point x="182" y="360"/>
      <point x="212" y="318" type="curve" smooth="yes"/>
      <point x="453" y="-8" type="line"/>
      <point x="468" y="4" type="line"/>
      <point x="229" y="327" type="line" smooth="yes"/>
      <point x="198" y="368"/>
      <point x="184" y="403"/>
      <point x="184" y="436" type="curve" smooth="yes"/>
      <point x="184" y="501"/>
      <point x="231" y="544"/>
      <point x="303" y="544" type="curve" smooth="yes"/>
      <point x="361" y="544"/>
      <point x="392" y="512"/>
      <point x="392" y="472" type="curve" smooth="yes"/>
      <point x="392" y="411"/>
      <point x="351" y="379"/>
      <point x="222" y="315" type="curve" smooth="yes"/>
      <point x="75" y="242"/>
      <point x="28" y="189"/>
      <point x="28" y="118" type="curve" smooth="yes"/>
      <point x="28" y="45"/>
      <point x="87" y="-3"/>
      <point x="181" y="-3" type="curve" smooth="yes"/>
      <point x="310" y="-3"/>
      <point x="412" y="71"/>
    </contour>
  </outline>
</glyph>
<glyph name="quotesingle" format="1">
  <advance width="150"/>
  <unicode hex="0027"/>
  <outline>
    <contour>
      <point x="114" y="358" type="line"/>
      <point x="157" y="559" type="line"/>
      <point x="136" y="559" type="line"/>
      <point x="97" y="358" type="line"/>
    </contour>
  </outline>
</glyph>
<glyph name="parenleft" format="1">
  <advance width="253"/>
  <unicode hex="0028"/>
  <outline>
    <contour>
      <point x="133" y="-155" type="line"/>
      <point x="111" y="-85"/>
      <point x="101" y="-23"/>
      <point x="101" y="45" type="curve" smooth="yes"/>
      <point x="101" y="237"/>
      <point x="177" y="461"/>
      <point x="285" y="593" type="curve"/>
      <point x="265" y="593" type="line"/>
      <point x="156" y="459"/>
      <point x="83" y="242"/>
      <point x="83" y="45" type="curve" smooth="yes"/>
      <point x="83" y="-20"/>
      <point x="94" y="-94"/>
      <point x="116" y="-155" type="curve"/>
    </contour>
  </outline>
</glyph>
<glyph name="parenright" format="1">
  <advance width="253"/>
  <unicode hex="0029"/>
  <outline>
    <contour>
      <point x="177" y="570" type="line"/>
      <point x="201" y="507"/>
      <point x="212" y="453"/>
      <point x="212" y="393" type="curve" smooth="yes"/>
      <point x="212" y="209"/>
      <point x="137" y="-8"/>
      <point x="31" y="-133" type="curve"/>
      <point x="43" y="-133" type="line"/>
      <point x="151" y="-6"/>
      <point x="222" y="204"/>
      <point x="222" y="393" type="curve" smooth="yes"/>
      <point x="222" y="450"/>
      <point x="210" y="516"/>
      <point x="186" y="570" type="curve"/>
    </contour>
  </outline>
</glyph>
<glyph name="asterisk" format="1">
  <advance width="292"/>
  <unicode hex="002A"/>
  <outline>
    <contour>
      <point x="327" y="532" type="line"/>
      <point x="199" y="466" type="line"/>
      <point x="206" y="463" type="line"/>
      <point x="232" y="593" type="line"/>
      <point x="215" y="593" type="line"/>
      <point x="189" y="463" type="line"/>
      <point x="196" y="467" type="line"/>
      <point x="95" y="532" type="line"/>
      <point x="85" y="518" type="line"/>
      <point x="187" y="453" type="line"/>
      <point x="188" y="460" type="line"/>
      <point x="59" y="395" type="line"/>
      <point x="67" y="380" type="line"/>
      <point x="194" y="445" type="line"/>
      <point x="186" y="449" type="line"/>
      <point x="160" y="319" type="line"/>
      <point x="176" y="319" type="line"/>
      <point x="203" y="449" type="line"/>
      <point x="196" y="446" type="line"/>
      <point x="298" y="381" type="line"/>
      <point x="308" y="395" type="line"/>
      <point x="206" y="460" type="line"/>
      <point x="205" y="451" type="line"/>
      <point x="334" y="516" type="line"/>
    </contour>
  </outline>
</glyph>
<glyph name="plus" format="1">
  <advance width="454"/>
  <unicode hex="002B"/>
  <outline>
    <contour>
      <point x="219" y="119" type="line"/>
      <point x="284" y="441" type="line"/>
      <point x="265" y="441" type="line"/>
      <point x="200" y="119" type="line"/>
    </contour>
    <contour>
      <point x="407" y="270" type="line"/>
      <point x="411" y="289" type="line"/>
      <point x="77" y="289" type="line"/>
      <point x="73" y="270" type="line"/>
    </contour>
  </outline>
</glyph>
<glyph name="hyphen" format="1">
  <advance width="308"/>
  <unicode hex="002D"/>
  <outline>
    <contour>
      <point x="254" y="203" type="line"/>
      <point x="258" y="221" type="line"/>
      <point x="55" y="221" type="line"/>
      <point x="51" y="203" type="line"/>
    </contour>
  </outline>
</glyph>
<glyph name="period" format="1">
  <advance width="149"/>
  <unicode hex="002E"/>
  <outline>
    <contour>
      <point x="60" y="21" type="curve" smooth="yes"/>
      <point x="60" y="33"/>
      <point x="50" y="44"/>
      <point x="37" y="44" type="curve" smooth="yes"/>
      <point x="25" y="44"/>
      <point x="14" y="33"/>
      <point x="14" y="20" type="curve" smooth="yes"/>
      <point x="14" y="8"/>
      <point x="24" y="-3"/>
      <point x="37" y="-3" type="curve" smooth="yes"/>
      <point x="49" y="-3"/>
      <point x="60" y="8"/>
    </contour>
  </outline>
</glyph>
<glyph name="zero" format="1">
  <advance width="528"/>
  <unicode hex="0030"/>
  <outline>
    <contour>
      <point x="503" y="365" type="curve" smooth="yes"/>
      <point x="503" y="488"/>
      <point x="440" y="562"/>
      <point x="332" y="562" type="curve" smooth="yes"/>
      <point x="158" y="562"/>
      <point x="54" y="378"/>
      <point x="54" y="195" type="curve" smooth="yes"/>
      <point x="54" y="71"/>
      <point x="117" y="-3"/>
      <point x="225" y="-3" type="curve" smooth="yes"/>
      <point x="399" y="-3"/>
      <point x="503" y="182"/>
    </contour>
    <contour>
      <point x="72" y="194" type="curve" smooth="yes"/>
      <point x="72" y="361"/>
      <point x="167" y="543"/>
      <point x="329" y="543" type="curve" smooth="yes"/>
      <point x="428" y="543"/>
      <point x="485" y="478"/>
      <point x="485" y="365" type="curve" smooth="yes"/>
      <point x="485" y="198"/>
      <point x="390" y="17"/>
      <point x="228" y="17" type="curve" smooth="yes"/>
      <point x="129" y="17"/>
      <point x="72" y="81"/>
    </contour>
  </outline>
</glyph>
<glyph name="one" format="1">
  <advance width="278"/>
  <unicode hex="0031"/>
  <outline>
    <contour>
      <point x="130" y="0" type="line"/>
      <point x="243" y="559" type="line"/>
      <point x="79" y="559" type="line"/>
      <point x="75" y="540" type="line"/>
      <point x="229" y="540" type="line"/>
      <point x="222" y="549" type="line"/>
      <point x="110" y="0" type="line"/>
    </contour>
  </outline>
</glyph>
<glyph name="two" format="1">
  <advance width="450"/>
  <unicode hex="0032"/>
  <outline>
    <contour>
      <point x="373" y="0" type="line"/>
      <point x="376" y="19" type="line"/>
      <point x="8" y="19" type="line"/>
      <point x="18" y="9" type="line"/>
      <point x="312" y="252" type="line" smooth="yes"/>
      <point x="401" y="326"/>
      <point x="430" y="378"/>
      <point x="430" y="438" type="curve" smooth="yes"/>
      <point x="430" y="512"/>
      <point x="378" y="562"/>
      <point x="269" y="562" type="curve" smooth="yes"/>
      <point x="194" y="562"/>
      <point x="124" y="536"/>
      <point x="78" y="489" type="curve"/>
      <point x="93" y="475" type="line"/>
      <point x="134" y="519"/>
      <point x="199" y="543"/>
      <point x="267" y="543" type="curve" smooth="yes"/>
      <point x="365" y="543"/>
      <point x="410" y="501"/>
      <point x="410" y="436" type="curve" smooth="yes"/>
      <point x="410" y="381"/>
      <point x="383" y="336"/>
      <point x="298" y="266" type="curve" smooth="yes"/>
      <point x="-5" y="15" type="line"/>
      <point x="-8" y="0" type="line"/>
    </contour>
  </outline>
</glyph>
<glyph name="three" format="1">
  <advance width="444"/>
  <unicode hex="0033"/>
  <outline>
    <contour>
      <point x="390" y="173" type="curve" smooth="yes"/>
      <point x="390" y="260"/>
      <point x="329" y="310"/>
      <point x="212" y="310" type="curve" smooth="yes"/>
      <point x="207" y="310" type="line"/>
      <point x="212" y="303" type="line"/>
      <point x="445" y="544" type="line"/>
      <point x="448" y="559" type="line"/>
      <point x="104" y="559" type="line"/>
      <point x="100" y="540" type="line"/>
      <point x="425" y="540" type="line"/>
      <point x="422" y="547" type="line"/>
      <point x="190" y="307" type="line"/>
      <point x="187" y="292" type="line"/>
      <point x="211" y="292" type="line" smooth="yes"/>
      <point x="319" y="292"/>
      <point x="370" y="250"/>
      <point x="370" y="173" type="curve" smooth="yes"/>
      <point x="370" y="79"/>
      <point x="295" y="16"/>
      <point x="175" y="16" type="curve" smooth="yes"/>
      <point x="90" y="16"/>
      <point x="28" y="48"/>
      <point x="3" y="90" type="curve"/>
      <point x="-13" y="76" type="line"/>
      <point x="16" y="30"/>
      <point x="85" y="-3"/>
      <point x="174" y="-3" type="curve" smooth="yes"/>
      <point x="304" y="-3"/>
      <point x="390" y="68"/>
    </contour>
  </outline>
</glyph>
<glyph name="four" format="1">
  <advance width="522"/>
  <unicode hex="0034"/>
  <outline>
    <contour>
      <point x="500" y="164" type="line"/>
      <point x="504" y="183" type="line"/>
      <point x="43" y="183" type="line"/>
      <point x="57" y="179" type="line"/>
      <point x="448" y="559" type="line"/>
      <point x="422" y="559" type="line"/>
      <point x="31" y="179" type="line"/>
      <point x="28" y="164" type="line"/>
    </contour>
    <contour>
      <point x="341" y="0" type="line"/>
      <point x="408" y="328" type="line"/>
      <point x="388" y="328" type="line"/>
      <point x="358" y="183" type="line"/>
      <point x="355" y="164" type="line"/>
      <point x="322" y="0" type="line"/>
    </contour>
  </outline>
</glyph>
<glyph name="five" format="1">
  <advance width="445"/>
  <unicode hex="0035"/>
  <outline>
    <contour>
      <point x="402" y="177" type="curve" smooth="yes"/>
      <point x="402" y="265"/>
      <point x="341" y="319"/>
      <point x="202" y="319" type="curve" smooth="yes"/>
      <point x="96" y="319" type="line"/>
      <point x="102" y="308" type="line"/>
      <point x="180" y="549" type="line"/>
      <point x="169" y="540" type="line"/>
      <point x="447" y="540" type="line"/>
      <point x="451" y="559" type="line"/>
      <point x="162" y="559" type="line"/>
      <point x="80" y="300" type="line"/>
      <point x="199" y="300" type="line" smooth="yes"/>
      <point x="331" y="300"/>
      <point x="382" y="253"/>
      <point x="382" y="176" type="curve" smooth="yes"/>
      <point x="382" y="77"/>
      <point x="309" y="16"/>
      <point x="188" y="16" type="curve" smooth="yes"/>
      <point x="102" y="16"/>
      <point x="40" y="48"/>
      <point x="15" y="90" type="curve"/>
      <point x="0" y="76" type="line"/>
      <point x="28" y="30"/>
      <point x="97" y="-3"/>
      <point x="186" y="-3" type="curve" smooth="yes"/>
      <point x="319" y="-3"/>
      <point x="402" y="66"/>
    </contour>
  </outline>
</glyph>
<glyph name="seven" format="1">
  <advance width="462"/>
  <unicode hex="0037"/>
  <outline>
    <contour>
      <point x="132" y="0" type="line"/>
      <point x="492" y="544" type="line"/>
      <point x="495" y="559" type="line"/>
      <point x="100" y="559" type="line"/>
      <point x="74" y="428" type="line"/>
      <point x="93" y="428" type="line"/>
      <point x="117" y="549" type="line"/>
      <point x="107" y="540" type="line"/>
      <point x="481" y="540" type="line"/>
      <point x="470" y="548" type="line"/>
      <point x="107" y="0" type="line"/>
    </contour>
  </outline>
</glyph>
<glyph name="eight" format="1">
  <advance width="506"/>
  <unicode hex="0038"/>
  <outline>
    <contour>
      <point x="450" y="161" type="curve" smooth="yes"/>
      <point x="450" y="247"/>
      <point x="376" y="299"/>
      <point x="252" y="299" type="curve" smooth="yes"/>
      <point x="116" y="299"/>
      <point x="33" y="238"/>
      <point x="33" y="139" type="curve" smooth="yes"/>
      <point x="33" y="51"/>
      <point x="105" y="-3"/>
      <point x="229" y="-3" type="curve" smooth="yes"/>
      <point x="364" y="-3"/>
      <point x="450" y="61"/>
    </contour>
    <contour>
      <point x="52" y="139" type="curve" smooth="yes"/>
      <point x="52" y="226"/>
      <point x="126" y="283"/>
      <point x="250" y="283" type="curve" smooth="yes"/>
      <point x="364" y="283"/>
      <point x="431" y="236"/>
      <point x="431" y="160" type="curve" smooth="yes"/>
      <point x="431" y="72"/>
      <point x="355" y="16"/>
      <point x="231" y="16" type="curve" smooth="yes"/>
      <point x="117" y="16"/>
      <point x="52" y="63"/>
    </contour>
    <contour>
      <point x="487" y="432" type="curve" smooth="yes"/>
      <point x="487" y="512"/>
      <point x="415" y="562"/>
      <point x="307" y="562" type="curve" smooth="yes"/>
      <point x="185" y="562"/>
      <point x="108" y="503"/>
      <point x="108" y="410" type="curve" smooth="yes"/>
      <point x="108" y="333"/>
      <point x="173" y="285"/>
      <point x="288" y="285" type="curve" smooth="yes"/>
      <point x="412" y="285"/>
      <point x="487" y="342"/>
    </contour>
    <contour>
      <point x="129" y="413" type="curve" smooth="yes"/>
      <point x="129" y="492"/>
      <point x="198" y="543"/>
      <point x="305" y="543" type="curve" smooth="yes"/>
      <point x="405" y="543"/>
      <point x="467" y="500"/>
      <point x="467" y="429" type="curve" smooth="yes"/>
      <point x="467" y="352"/>
      <point x="400" y="301"/>
      <point x="289" y="301" type="curve" smooth="yes"/>
      <point x="187" y="301"/>
      <point x="129" y="345"/>
    </contour>
  </outline>
</glyph>
<glyph name="less" format="1">
  <advance width="454"/>
  <unicode hex="003C"/>
  <outline>
    <contour>
      <point x="76" y="290" type="line"/>
      <point x="72" y="269" type="line"/>
      <point x="378" y="132" type="line"/>
      <point x="382" y="151" type="line"/>
      <point x="86" y="283" type="line"/>
      <point x="84" y="274" type="line"/>
      <point x="432" y="405" type="line"/>
      <point x="437" y="427" type="line"/>
    </contour>
  </outline>
</glyph>
<glyph name="equal" format="1">
  <advance width="454"/>
  <unicode hex="003D"/>
  <outline>
    <contour>
      <point x="425" y="358" type="line"/>
      <point x="429" y="377" type="line"/>
      <point x="95" y="377" type="line"/>
      <point x="92" y="358" type="line"/>
    </contour>
    <contour>
      <point x="389" y="182" type="line"/>
      <point x="393" y="201" type="line"/>
      <point x="60" y="201" type="line"/>
      <point x="56" y="182" type="line"/>
    </contour>
  </outline>
</glyph>
<glyph name="greater" format="1">
  <advance width="454"/>
  <unicode hex="003E"/>
  <outline>
    <contour>
      <point x="407" y="269" type="line"/>
      <point x="411" y="290" type="line"/>
      <point x="105" y="427" type="line"/>
      <point x="101" y="408" type="line"/>
      <point x="398" y="276" type="line"/>
      <point x="399" y="285" type="line"/>
      <point x="51" y="154" type="line"/>
      <point x="46" y="132" type="line"/>
    </contour>
  </outline>
</glyph>
<glyph name="question" format="1">
  <advance width="449"/>
  <unicode hex="003F"/>
  <outline>
    <contour>
      <point x="210" y="152" type="line"/>
      <point x="237" y="295"/>
      <point x="423" y="287"/>
      <point x="423" y="445" type="curve" smooth="yes"/>
      <point x="423" y="520"/>
      <point x="367" y="562"/>
      <point x="270" y="562" type="curve" smooth="yes"/>
      <point x="184" y="562"/>
      <point x="119" y="536"/>
      <point x="71" y="489" type="curve"/>
      <point x="84" y="475" type="line"/>
      <point x="130" y="521"/>
      <point x="187" y="543"/>
      <point x="269" y="543" type="curve" smooth="yes"/>
      <point x="355" y="543"/>
      <point x="404" y="507"/>
      <point x="404" y="444" type="curve" smooth="yes"/>
      <point x="404" y="298"/>
      <point x="219" y="309"/>
      <point x="190" y="152" type="curve"/>
    </contour>
    <contour>
      <point x="196" y="21" type="curve" smooth="yes"/>
      <point x="196" y="33"/>
      <point x="186" y="43"/>
      <point x="174" y="43" type="curve" smooth="yes"/>
      <point x="161" y="43"/>
      <point x="151" y="33"/>
      <point x="151" y="20" type="curve" smooth="yes"/>
      <point x="151" y="8"/>
      <point x="161" y="-3"/>
      <point x="173" y="-3" type="curve" smooth="yes"/>
      <point x="186" y="-3"/>
      <point x="196" y="8"/>
    </contour>
  </outline>
</glyph>
<glyph name="at" format="1">
  <advance width="835"/>
  <unicode hex="0040"/>
  <outline>
    <contour>
      <point x="517" y="-121" type="curve"/>
      <point x="512" y="-103" type="line"/>
      <point x="472" y="-126"/>
      <point x="414" y="-139"/>
      <point x="353" y="-139" type="curve" smooth="yes"/>
      <point x="162" y="-139"/>
      <point x="56" y="-28"/>
      <point x="56" y="133" type="curve" smooth="yes"/>
      <point x="56" y="356"/>
      <point x="218" y="544"/>
      <point x="469" y="544" type="curve" smooth="yes"/>
      <point x="673" y="544"/>
      <point x="777" y="435"/>
      <point x="777" y="275" type="curve" smooth="yes"/>
      <point x="777" y="141"/>
      <point x="710" y="16"/>
      <point x="635" y="16" type="curve" smooth="yes"/>
      <point x="602" y="16"/>
      <point x="582" y="33"/>
      <point x="591" y="81" type="curve" smooth="yes"/>
      <point x="658" y="412" type="line"/>
      <point x="639" y="412" type="line"/>
      <point x="608" y="264" type="line"/>
      <point x="605" y="200" type="line"/>
      <point x="585" y="144" type="line"/>
      <point x="570" y="73" type="line" smooth="yes"/>
      <point x="561" y="28"/>
      <point x="588" y="-3"/>
      <point x="633" y="-3" type="curve" smooth="yes"/>
      <point x="720" y="-3"/>
      <point x="796" y="128"/>
      <point x="796" y="274" type="curve" smooth="yes"/>
      <point x="796" y="446"/>
      <point x="681" y="562"/>
      <point x="471" y="562" type="curve" smooth="yes"/>
      <point x="202" y="562"/>
      <point x="38" y="361"/>
      <point x="38" y="133" type="curve" smooth="yes"/>
      <point x="38" y="-39"/>
      <point x="154" y="-158"/>
      <point x="350" y="-158" type="curve" smooth="yes"/>
      <point x="412" y="-158"/>
      <point x="472" y="-144"/>
    </contour>
    <contour>
      <point x="614" y="249" type="curve" smooth="yes"/>
      <point x="614" y="352"/>
      <point x="552" y="415"/>
      <point x="441" y="415" type="curve" smooth="yes"/>
      <point x="304" y="415"/>
      <point x="205" y="308"/>
      <point x="205" y="165" type="curve" smooth="yes"/>
      <point x="205" y="62"/>
      <point x="274" y="-3"/>
      <point x="383" y="-3" type="curve" smooth="yes"/>
      <point x="521" y="-3"/>
      <point x="615" y="106"/>
    </contour>
    <contour>
      <point x="225" y="167" type="curve" smooth="yes"/>
      <point x="225" y="298"/>
      <point x="315" y="396"/>
      <point x="439" y="396" type="curve" smooth="yes"/>
      <point x="541" y="396"/>
      <point x="601" y="341"/>
      <point x="601" y="246" type="curve" smooth="yes"/>
      <point x="601" y="113"/>
      <point x="510" y="16"/>
      <point x="386" y="16" type="curve" smooth="yes"/>
      <point x="284" y="16"/>
      <point x="225" y="71"/>
    </contour>
  </outline>
</glyph>
<glyph name="A" format="1">
  <advance width="559"/>
  <unicode hex="0041"/>
  <outline>
    <contour>
      <point x="-22" y="0" type="line"/>
      <point x="343" y="544" type="line"/>
      <point x="335" y="544" type="line"/>
      <point x="479" y="0" type="line"/>
      <point x="500" y="0" type="line"/>
      <point x="350" y="559" type="line"/>
      <point x="331" y="559" type="line"/>
      <point x="-45" y="0" type="line"/>
    </contour>
    <contour>
      <point x="444" y="166" type="line"/>
      <point x="439" y="185" type="line"/>
      <point x="89" y="185" type="line"/>
      <point x="76" y="166" type="line"/>
    </contour>
    <contour>
      <point x="500" y="0" type="move" name="ogonek"/>
    </contour>
    <contour>
      <point x="340" y="559" type="move" name="top"/>
    </contour>
    <contour>
      <point x="147" y="559" type="move" name="topleft"/>
    </contour>
    <contour>
      <point x="227" y="0" type="move" name="bottom"/>
    </contour>
  </outline>
</glyph>
<glyph name="B" format="1">
  <advance width="606"/>
  <unicode hex="0042"/>
  <outline>
    <contour>
      <point x="299" y="0" type="line"/>
      <point x="449" y="0"/>
      <point x="535" y="61"/>
      <point x="535" y="171" type="curve" smooth="yes"/>
      <point x="535" y="251"/>
      <point x="473" y="290"/>
      <point x="372" y="290" type="curve"/>
      <point x="356" y="280" type="line"/>
      <point x="467" y="280"/>
      <point x="558" y="336"/>
      <point x="558" y="446" type="curve" smooth="yes"/>
      <point x="558" y="521"/>
      <point x="495" y="559"/>
      <point x="393" y="559" type="curve" smooth="yes"/>
      <point x="167" y="559" type="line"/>
      <point x="54" y="0" type="line"/>
    </contour>
    <contour>
      <point x="184" y="541" type="line"/>
      <point x="392" y="541" type="line" smooth="yes"/>
      <point x="485" y="541"/>
      <point x="538" y="508"/>
      <point x="538" y="443" type="curve" smooth="yes"/>
      <point x="538" y="344"/>
      <point x="455" y="293"/>
      <point x="342" y="293" type="curve" smooth="yes"/>
      <point x="129" y="293" type="line"/>
      <point x="125" y="275" type="line"/>
      <point x="358" y="275" type="line" smooth="yes"/>
      <point x="461" y="275"/>
      <point x="515" y="245"/>
      <point x="515" y="170" type="curve" smooth="yes"/>
      <point x="515" y="73"/>
      <point x="439" y="19"/>
      <point x="303" y="19" type="curve" smooth="yes"/>
      <point x="78" y="19" type="line"/>
    </contour>
    <contour>
      <point x="366" y="559" type="move" name="top"/>
    </contour>
    <contour>
      <point x="253" y="0" type="move" name="bottom"/>
    </contour>
  </outline>
</glyph>
<glyph name="C" format="1">
  <advance width="576"/>
  <unicode hex="0043"/>
  <outline>
    <contour>
      <point x="512" y="70" type="curve"/>
      <point x="500" y="85" type="line"/>
      <point x="453" y="41"/>
      <point x="387" y="17"/>
      <point x="305" y="17" type="curve" smooth="yes"/>
      <point x="148" y="17"/>
      <point x="67" y="101"/>
      <point x="67" y="224" type="curve" smooth="yes"/>
      <point x="67" y="397"/>
      <point x="191" y="543"/>
      <point x="386" y="543" type="curve" smooth="yes"/>
      <point x="467" y="543"/>
      <point x="526" y="520"/>
      <point x="565" y="477" type="curve"/>
      <point x="579" y="490" type="line"/>
      <point x="541" y="536"/>
      <point x="473" y="562"/>
      <point x="388" y="562" type="curve" smooth="yes"/>
      <point x="175" y="562"/>
      <point x="47" y="404"/>
      <point x="47" y="224" type="curve" smooth="yes"/>
      <point x="47" y="89"/>
      <point x="137" y="-3"/>
      <point x="303" y="-3" type="curve" smooth="yes"/>
      <point x="388" y="-3"/>
      <point x="465" y="25"/>
    </contour>
    <contour>
      <point x="391" y="559" type="move" name="top"/>
    </contour>
    <contour>
      <point x="278" y="0" type="move" name="bottom"/>
    </contour>
  </outline>
</glyph>
<glyph name="D" format="1">
  <advance width="668"/>
  <unicode hex="0044"/>
  <outline>
    <contour>
      <point x="279" y="0" type="line"/>
      <point x="495" y="0"/>
      <point x="632" y="141"/>
      <point x="632" y="335" type="curve" smooth="yes"/>
      <point x="632" y="469"/>
      <point x="541" y="559"/>
      <point x="372" y="559" type="curve" smooth="yes"/>
      <point x="167" y="559" type="line"/>
      <point x="54" y="0" type="line"/>
    </contour>
    <contour>
      <point x="184" y="540" type="line"/>
      <point x="370" y="540" type="line" smooth="yes"/>
      <point x="532" y="540"/>
      <point x="612" y="458"/>
      <point x="612" y="335" type="curve" smooth="yes"/>
      <point x="612" y="151"/>
      <point x="483" y="19"/>
      <point x="281" y="19" type="curve" smooth="yes"/>
      <point x="78" y="19" type="line"/>
    </contour>
    <contour>
      <point x="377" y="559" type="move" name="top"/>
    </contour>
    <contour>
      <point x="167" y="284" type="move" name="center"/>
    </contour>
    <contour>
      <point x="268" y="0" type="move" name="bottom"/>
    </contour>
  </outline>
</glyph>
<glyph name="E" format="1">
  <advance width="541"/>
  <unicode hex="0045"/>
  <outline>
    <contour>
      <point x="125" y="275" type="line"/>
      <point x="440" y="275" type="line"/>
      <point x="444" y="293" type="line"/>
      <point x="129" y="293" type="line"/>
    </contour>
    <contour>
      <point x="184" y="540" type="line"/>
      <point x="531" y="540" type="line"/>
      <point x="534" y="559" type="line"/>
      <point x="167" y="559" type="line"/>
      <point x="54" y="0" type="line"/>
      <point x="433" y="0" type="line"/>
      <point x="437" y="19" type="line"/>
      <point x="78" y="19" type="line"/>
    </contour>
    <contour>
      <point x="433" y="0" type="move" name="ogonek"/>
    </contour>
    <contour>
      <point x="351" y="559" type="move" name="top"/>
    </contour>
    <contour>
      <point x="93" y="559" type="move" name="topleft"/>
    </contour>
    <contour>
      <point x="251" y="0" type="move" name="bottom"/>
    </contour>
  </outline>
</glyph>
<glyph name="F" format="1">
  <advance width="509"/>
  <unicode hex="0046"/>
  <outline>
    <contour>
      <point x="122" y="258" type="line"/>
      <point x="437" y="258" type="line"/>
      <point x="441" y="277" type="line"/>
      <point x="126" y="277" type="line"/>
    </contour>
    <contour>
      <point x="184" y="540" type="line"/>
      <point x="531" y="540" type="line"/>
      <point x="534" y="559" type="line"/>
      <point x="167" y="559" type="line"/>
      <point x="54" y="0" type="line"/>
      <point x="74" y="0" type="line"/>
    </contour>
  </outline>
</glyph>
<glyph name="G" format="1">
  <advance width="626"/>
  <unicode hex="0047"/>
  <outline>
    <contour>
      <point x="381" y="-3"/>
      <point x="451" y="26"/>
      <point x="499" y="69" type="curve"/>
      <point x="490" y="85" type="line"/>
      <point x="440" y="42"/>
      <point x="381" y="17"/>
      <point x="305" y="17" type="curve" smooth="yes"/>
      <point x="148" y="17"/>
      <point x="67" y="101"/>
      <point x="67" y="224" type="curve" smooth="yes"/>
      <point x="67" y="397"/>
      <point x="191" y="543"/>
      <point x="386" y="543" type="curve" smooth="yes"/>
      <point x="469" y="543"/>
      <point x="531" y="521"/>
      <point x="569" y="477" type="curve"/>
      <point x="584" y="490" type="line"/>
      <point x="545" y="535"/>
      <point x="475" y="562"/>
      <point x="388" y="562" type="curve" smooth="yes"/>
      <point x="175" y="562"/>
      <point x="47" y="404"/>
      <point x="47" y="224" type="curve" smooth="yes"/>
      <point x="47" y="89"/>
      <point x="137" y="-3"/>
      <point x="303" y="-3" type="curve" smooth="yes"/>
    </contour>
    <contour>
      <point x="540" y="275" type="line"/>
      <point x="522" y="275" type="line"/>
      <point x="480" y="70" type="line"/>
      <point x="499" y="69" type="line"/>
    </contour>
    <contour>
      <point x="387" y="559" type="move" name="top"/>
    </contour>
    <contour>
      <point x="273" y="0" type="move" name="bottom"/>
    </contour>
  </outline>
</glyph>
<glyph name="H" format="1">
  <advance width="660"/>
  <unicode hex="0048"/>
  <outline>
    <contour>
      <point x="482" y="0" type="line"/>
      <point x="502" y="0" type="line"/>
      <point x="615" y="559" type="line"/>
      <point x="595" y="559" type="line"/>
    </contour>
    <contour>
      <point x="187" y="559" type="line"/>
      <point x="167" y="559" type="line"/>
      <point x="54" y="0" type="line"/>
      <point x="74" y="0" type="line"/>
    </contour>
    <contour>
      <point x="545" y="294" type="line"/>
      <point x="129" y="294" type="line"/>
      <point x="125" y="274" type="line"/>
      <point x="541" y="274" type="line"/>
    </contour>
    <contour>
      <point x="391" y="559" type="move" name="top"/>
    </contour>
    <contour>
      <point x="365" y="431" type="move" name="center"/>
    </contour>
    <contour>
      <point x="278" y="0" type="move" name="bottom"/>
    </contour>
  </outline>
</glyph>
<glyph name="I" format="1">
  <advance width="233"/>
  <unicode hex="0049"/>
  <outline>
    <contour>
      <point x="74" y="0" type="line"/>
      <point x="187" y="559" type="line"/>
      <point x="167" y="559" type="line"/>
      <point x="54" y="0" type="line"/>
    </contour>
    <contour>
      <point x="74" y="0" type="move" name="ogonek"/>
    </contour>
    <contour>
      <point x="177" y="559" type="move" name="top"/>
    </contour>
    <contour>
      <point x="93" y="559" type="move" name="topleft"/>
    </contour>
    <contour>
      <point x="64" y="0" type="move" name="bottom"/>
    </contour>
  </outline>
</glyph>
<glyph name="J" format="1">
  <advance width="388"/>
  <unicode hex="004A"/>
  <outline>
    <contour>
      <point x="265" y="153" type="curve" smooth="yes"/>
      <point x="347" y="559" type="line"/>
      <point x="116" y="559" type="line"/>
      <point x="112" y="540" type="line"/>
      <point x="324" y="540" type="line"/>
      <point x="246" y="158" type="line" smooth="yes"/>
      <point x="224" y="54"/>
      <point x="179" y="16"/>
      <point x="104" y="16" type="curve" smooth="yes"/>
      <point x="46" y="16"/>
      <point x="2" y="44"/>
      <point x="-18" y="88" type="curve"/>
      <point x="-35" y="77" type="line"/>
      <point x="-14" y="29"/>
      <point x="37" y="-3"/>
      <point x="102" y="-3" type="curve" smooth="yes"/>
      <point x="189" y="-3"/>
      <point x="242" y="39"/>
    </contour>
    <contour>
      <point x="232" y="559" type="move" name="top"/>
    </contour>
  </outline>
</glyph>
<glyph name="K" format="1">
  <advance width="562"/>
  <unicode hex="004B"/>
  <outline>
    <contour>
      <point x="275" y="292" type="line"/>
      <point x="285" y="300" type="line"/>
      <point x="592" y="559" type="line"/>
      <point x="564" y="559" type="line"/>
      <point x="106" y="175" type="line"/>
      <point x="100" y="145" type="line"/>
    </contour>
    <contour>
      <point x="74" y="0" type="line"/>
      <point x="187" y="559" type="line"/>
      <point x="167" y="559" type="line"/>
      <point x="54" y="0" type="line"/>
    </contour>
    <contour>
      <point x="498" y="0" type="line"/>
      <point x="281" y="310" type="line"/>
      <point x="264" y="299" type="line"/>
      <point x="474" y="0" type="line"/>
    </contour>
    <contour>
      <point x="361" y="559" type="move" name="top"/>
    </contour>
    <contour>
      <point x="247" y="0" type="move" name="bottom"/>
    </contour>
  </outline>
</glyph>
<glyph name="L" format="1">
  <advance width="470"/>
  <unicode hex="004C"/>
  <outline>
    <contour>
      <point x="410" y="0" type="line"/>
      <point x="414" y="19" type="line"/>
      <point x="78" y="19" type="line"/>
      <point x="187" y="559" type="line"/>
      <point x="167" y="559" type="line"/>
      <point x="54" y="0" type="line"/>
    </contour>
    <contour>
      <point x="240" y="0" type="move" name="bottom"/>
    </contour>
    <contour>
      <point x="358" y="290" type="move" name="dot"/>
    </contour>
    <contour>
      <point x="177" y="559" type="move" name="top"/>
    </contour>
    <contour>
      <point x="422" y="559" type="move" name="topright"/>
    </contour>
    <contour>
      <point x="123" y="289" type="move" name="center"/>
    </contour>
  </outline>
</glyph>
<glyph name="M" format="1">
  <advance width="773"/>
  <unicode hex="004D"/>
  <outline>
    <contour>
      <point x="74" y="0" type="line"/>
      <point x="181" y="529" type="line"/>
      <point x="174" y="530" type="line"/>
      <point x="350" y="78" type="line"/>
      <point x="361" y="78" type="line"/>
      <point x="710" y="528" type="line"/>
      <point x="703" y="529" type="line"/>
      <point x="595" y="0" type="line"/>
      <point x="615" y="0" type="line"/>
      <point x="728" y="559" type="line"/>
      <point x="710" y="559" type="line"/>
      <point x="354" y="100" type="line"/>
      <point x="363" y="97" type="line"/>
      <point x="184" y="559" type="line"/>
      <point x="167" y="559" type="line"/>
      <point x="54" y="0" type="line"/>
    </contour>
    <contour>
      <point x="448" y="559" type="move" name="top"/>
    </contour>
    <contour>
      <point x="335" y="0" type="move" name="bottom"/>
    </contour>
  </outline>
</glyph>
<glyph name="N" format="1">
  <advance width="660"/>
  <unicode hex="004E"/>
  <outline>
    <contour>
      <point x="74" y="0" type="line"/>
      <point x="182" y="533" type="line"/>
      <point x="175" y="535" type="line"/>
      <point x="485" y="0" type="line"/>
      <point x="502" y="0" type="line"/>
      <point x="615" y="559" type="line"/>
      <point x="595" y="559" type="line"/>
      <point x="487" y="26" type="line"/>
      <point x="494" y="24" type="line"/>
      <point x="184" y="559" type="line"/>
      <point x="167" y="559" type="line"/>
      <point x="54" y="0" type="line"/>
    </contour>
    <contour>
      <point x="391" y="559" type="move" name="top"/>
    </contour>
    <contour>
      <point x="278" y="0" type="move" name="bottom"/>
    </contour>
  </outline>
</glyph>
<glyph name="O" format="1">
  <advance width="677"/>
  <unicode hex="004F"/>
  <outline>
    <contour>
      <point x="511" y="-3"/>
      <point x="639" y="156"/>
      <point x="639" y="335" type="curve" smooth="yes"/>
      <point x="639" y="471"/>
      <point x="549" y="562"/>
      <point x="384" y="562" type="curve" smooth="yes"/>
      <point x="175" y="562"/>
      <point x="47" y="404"/>
      <point x="47" y="224" type="curve" smooth="yes"/>
      <point x="47" y="89"/>
      <point x="137" y="-3"/>
      <point x="302" y="-3" type="curve" smooth="yes"/>
    </contour>
    <contour>
      <point x="148" y="17"/>
      <point x="67" y="101"/>
      <point x="67" y="224" type="curve" smooth="yes"/>
      <point x="67" y="397"/>
      <point x="191" y="543"/>
      <point x="382" y="543" type="curve" smooth="yes"/>
      <point x="539" y="543"/>
      <point x="619" y="458"/>
      <point x="619" y="335" type="curve" smooth="yes"/>
      <point x="619" y="162"/>
      <point x="496" y="17"/>
      <point x="304" y="17" type="curve" smooth="yes"/>
    </contour>
    <contour>
      <point x="343" y="280" type="move" name="center"/>
    </contour>
    <contour>
      <point x="329" y="0" type="move" name="ogonek"/>
    </contour>
    <contour>
      <point x="399" y="559" type="move" name="top"/>
    </contour>
    <contour>
      <point x="599" y="559" type="move" name="topright"/>
    </contour>
    <contour>
      <point x="108" y="559" type="move" name="topleft"/>
    </contour>
    <contour>
      <point x="286" y="0" type="move" name="bottom"/>
    </contour>
  </outline>
</glyph>
<glyph name="P" format="1">
  <advance width="575"/>
  <unicode hex="0050"/>
  <outline>
    <contour>
      <point x="74" y="0" type="line"/>
      <point x="115" y="200" type="line"/>
      <point x="104" y="190" type="line"/>
      <point x="292" y="190" type="line" smooth="yes"/>
      <point x="450" y="190"/>
      <point x="549" y="266"/>
      <point x="549" y="410" type="curve" smooth="yes"/>
      <point x="549" y="505"/>
      <point x="479" y="559"/>
      <point x="359" y="559" type="curve" smooth="yes"/>
      <point x="167" y="559" type="line"/>
      <point x="54" y="0" type="line"/>
    </contour>
    <contour>
      <point x="186" y="549" type="line"/>
      <point x="175" y="540" type="line"/>
      <point x="359" y="540" type="line" smooth="yes"/>
      <point x="468" y="540"/>
      <point x="529" y="493"/>
      <point x="529" y="409" type="curve" smooth="yes"/>
      <point x="529" y="277"/>
      <point x="442" y="209"/>
      <point x="292" y="209" type="curve" smooth="yes"/>
      <point x="108" y="209" type="line"/>
      <point x="115" y="200" type="line"/>
    </contour>
  </outline>
</glyph>
<glyph name="Q" format="1">
  <advance width="677"/>
  <unicode hex="0051"/>
  <outline>
    <contour>
      <point x="511" y="-3"/>
      <point x="639" y="156"/>
      <point x="639" y="335" type="curve" smooth="yes"/>
      <point x="639" y="471"/>
      <point x="549" y="562"/>
      <point x="384" y="562" type="curve" smooth="yes"/>
      <point x="175" y="562"/>
      <point x="47" y="404"/>
      <point x="47" y="224" type="curve" smooth="yes"/>
      <point x="47" y="89"/>
      <point x="137" y="-3"/>
      <point x="302" y="-3" type="curve" smooth="yes"/>
    </contour>
    <contour>
      <point x="511" y="-100"/>
      <point x="559" y="-80"/>
      <point x="594" y="-40" type="curve"/>
      <point x="581" y="-26" type="line"/>
      <point x="551" y="-63"/>
      <point x="510" y="-82"/>
      <point x="464" y="-82" type="curve" smooth="yes"/>
      <point x="404" y="-82"/>
      <point x="357" y="-50"/>
      <point x="316" y="8" type="curve"/>
      <point x="292" y="3" type="line"/>
      <point x="341" y="-63"/>
      <point x="394" y="-100"/>
      <point x="462" y="-100" type="curve" smooth="yes"/>
    </contour>
    <contour>
      <point x="148" y="17"/>
      <point x="67" y="101"/>
      <point x="67" y="224" type="curve" smooth="yes"/>
      <point x="67" y="397"/>
      <point x="191" y="543"/>
      <point x="382" y="543" type="curve" smooth="yes"/>
      <point x="539" y="543"/>
      <point x="619" y="458"/>
      <point x="619" y="335" type="curve" smooth="yes"/>
      <point x="619" y="162"/>
      <point x="496" y="17"/>
      <point x="304" y="17" type="curve" smooth="yes"/>
    </contour>
    <contour>
      <point x="399" y="559" type="move" name="top"/>
    </contour>
  </outline>
</glyph>
<glyph name="S" format="1">
  <advance width="487"/>
  <unicode hex="0053"/>
  <outline>
    <contour>
      <point x="418" y="157" type="curve" smooth="yes"/>
      <point x="418" y="323"/>
      <point x="114" y="252"/>
      <point x="114" y="403" type="curve" smooth="yes"/>
      <point x="114" y="491"/>
      <point x="194" y="543"/>
      <point x="304" y="543" type="curve" smooth="yes"/>
      <point x="363" y="543"/>
      <point x="417" y="526"/>
      <point x="457" y="495" type="curve"/>
      <point x="469" y="513" type="line"/>
      <point x="429" y="544"/>
      <point x="366" y="562"/>
      <point x="304" y="562" type="curve" smooth="yes"/>
      <point x="185" y="562"/>
      <point x="95" y="505"/>
      <point x="95" y="401" type="curve" smooth="yes"/>
      <point x="95" y="232"/>
      <point x="398" y="304"/>
      <point x="398" y="155" type="curve" smooth="yes"/>
      <point x="398" y="66"/>
      <point x="318" y="16"/>
      <point x="204" y="16" type="curve" smooth="yes"/>
      <point x="131" y="16"/>
      <point x="55" y="47"/>
      <point x="24" y="89" type="curve"/>
      <point x="10" y="75" type="line"/>
      <point x="41" y="31"/>
      <point x="123" y="-3"/>
      <point x="203" y="-3" type="curve" smooth="yes"/>
      <point x="323" y="-3"/>
      <point x="418" y="51"/>
    </contour>
    <contour>
      <point x="319" y="559" type="move" name="top"/>
    </contour>
    <contour>
      <point x="205" y="0" type="move" name="bottom"/>
    </contour>
  </outline>
</glyph>
<glyph name="T" format="1">
  <advance width="445"/>
  <unicode hex="0054"/>
  <outline>
    <contour>
      <point x="181" y="0" type="line"/>
      <point x="290" y="540" type="line"/>
      <point x="499" y="540" type="line"/>
      <point x="503" y="559" type="line"/>
      <point x="64" y="559" type="line"/>
      <point x="61" y="540" type="line"/>
      <point x="270" y="540" type="line"/>
      <point x="160" y="0" type="line"/>
    </contour>
    <contour>
      <point x="284" y="559" type="move" name="top"/>
    </contour>
    <contour>
      <point x="228" y="283" type="move" name="center"/>
    </contour>
    <contour>
      <point x="170" y="0" type="move" name="bottom"/>
    </contour>
  </outline>
</glyph>
<glyph name="U" format="1">
  <advance width="642"/>
  <unicode hex="0055"/>
  <outline>
    <contour>
      <point x="418" y="-3"/>
      <point x="504" y="74"/>
      <point x="536" y="234" type="curve" smooth="yes"/>
      <point x="602" y="559" type="line"/>
      <point x="582" y="559" type="line"/>
      <point x="517" y="236" type="line" smooth="yes"/>
      <point x="487" y="87"/>
      <point x="409" y="17"/>
      <point x="282" y="17" type="curve" smooth="yes"/>
      <point x="149" y="17"/>
      <point x="88" y="95"/>
      <point x="117" y="236" type="curve" smooth="yes"/>
      <point x="183" y="559" type="line"/>
      <point x="163" y="559" type="line"/>
      <point x="97" y="235" type="line" smooth="yes"/>
      <point x="67" y="86"/>
      <point x="137" y="-3"/>
      <point x="281" y="-3" type="curve" smooth="yes"/>
    </contour>
    <contour>
      <point x="420" y="0" type="move" name="ogonek"/>
    </contour>
    <contour>
      <point x="382" y="559" type="move" name="top"/>
    </contour>
    <contour>
      <point x="604" y="559" type="move" name="topright"/>
    </contour>
    <contour>
      <point x="269" y="0" type="move" name="bottom"/>
    </contour>
  </outline>
</glyph>
<glyph name="V" format="1">
  <advance width="544"/>
  <unicode hex="0056"/>
  <outline>
    <contour>
      <point x="230" y="0" type="line"/>
      <point x="598" y="559" type="line"/>
      <point x="574" y="559" type="line"/>
      <point x="217" y="16" type="line"/>
      <point x="226" y="16" type="line"/>
      <point x="90" y="559" type="line"/>
      <point x="69" y="559" type="line"/>
      <point x="210" y="0" type="line"/>
    </contour>
  </outline>
</glyph>
<glyph name="W" format="1">
  <advance width="876"/>
  <unicode hex="0057"/>
  <outline>
    <contour>
      <point x="198" y="0" type="line"/>
      <point x="497" y="536" type="line"/>
      <point x="492" y="536" type="line"/>
      <point x="574" y="0" type="line"/>
      <point x="594" y="0" type="line"/>
      <point x="901" y="559" type="line"/>
      <point x="880" y="559" type="line"/>
      <point x="581" y="16" type="line"/>
      <point x="591" y="16" type="line"/>
      <point x="508" y="559" type="line"/>
      <point x="489" y="559" type="line"/>
      <point x="186" y="16" type="line"/>
      <point x="195" y="16" type="line"/>
      <point x="117" y="559" type="line"/>
      <point x="97" y="559" type="line"/>
      <point x="178" y="0" type="line"/>
    </contour>
    <contour>
      <point x="499" y="559" type="move" name="top"/>
    </contour>
    <contour>
      <point x="386" y="0" type="move" name="bottom"/>
    </contour>
  </outline>
</glyph>
<glyph name="X" format="1">
  <advance width="505"/>
  <unicode hex="0058"/>
  <outline>
    <contour>
      <point x="-8" y="0" type="line"/>
      <point x="260" y="278" type="line"/>
      <point x="255" y="280" type="line"/>
      <point x="412" y="0" type="line"/>
      <point x="433" y="0" type="line"/>
      <point x="268" y="294" type="line"/>
      <point x="267" y="286" type="line"/>
      <point x="530" y="559" type="line"/>
      <point x="507" y="559" type="line"/>
      <point x="257" y="301" type="line"/>
      <point x="266" y="297" type="line"/>
      <point x="118" y="559" type="line"/>
      <point x="97" y="559" type="line"/>
      <point x="251" y="285" type="line"/>
      <point x="252" y="296" type="line"/>
      <point x="-33" y="0" type="line"/>
    </contour>
  </outline>
</glyph>
<glyph name="Y" format="1">
  <advance width="495"/>
  <unicode hex="0059"/>
  <outline>
    <contour>
      <point x="206" y="0" type="line"/>
      <point x="245" y="197" type="line"/>
      <point x="238" y="181" type="line"/>
      <point x="549" y="559" type="line"/>
      <point x="525" y="559" type="line"/>
      <point x="232" y="203" type="line"/>
      <point x="240" y="204" type="line"/>
      <point x="90" y="559" type="line"/>
      <point x="69" y="559" type="line"/>
      <point x="227" y="182" type="line"/>
      <point x="225" y="197" type="line"/>
      <point x="186" y="0" type="line"/>
    </contour>
    <contour>
      <point x="309" y="559" type="move" name="top"/>
    </contour>
    <contour>
      <point x="196" y="0" type="move" name="bottom"/>
    </contour>
  </outline>
</glyph>
<glyph name="Z" format="1">
  <advance width="518"/>
  <unicode hex="005A"/>
  <outline>
    <contour>
      <point x="436" y="0" type="line"/>
      <point x="439" y="19" type="line"/>
      <point x="16" y="19" type="line"/>
      <point x="16" y="12" type="line"/>
      <point x="538" y="544" type="line"/>
      <point x="541" y="559" type="line"/>
      <point x="106" y="559" type="line"/>
      <point x="103" y="540" type="line"/>
      <point x="513" y="540" type="line"/>
      <point x="513" y="548" type="line"/>
      <point x="-8" y="15" type="line"/>
      <point x="-11" y="0" type="line"/>
    </contour>
    <contour>
      <point x="325" y="559" type="move" name="top"/>
    </contour>
    <contour>
      <point x="219" y="0" type="move" name="bottom"/>
    </contour>
  </outline>
</glyph>
<glyph name="bracketleft" format="1">
  <advance width="235"/>
  <unicode hex="005B"/>
  <outline>
    <contour>
      <point x="142" y="-155" type="line"/>
      <point x="145" y="-136" type="line"/>
      <point x="56" y="-136" type="line"/>
      <point x="200" y="574" type="line"/>
      <point x="289" y="574" type="line"/>
      <point x="293" y="593" type="line"/>
      <point x="184" y="593" type="line"/>
      <point x="33" y="-155" type="line"/>
    </contour>
  </outline>
</glyph>
<glyph name="backslash" format="1">
  <advance width="245"/>
  <unicode hex="005C"/>
  <outline>
    <contour>
      <point x="88" y="673" type="line"/>
      <point x="69" y="673" type="line"/>
      <point x="185" y="-80" type="line"/>
      <point x="203" y="-80" type="line"/>
    </contour>
  </outline>
</glyph>
<glyph name="bracketright" format="1">
  <advance width="235"/>
  <unicode hex="005D"/>
  <outline>
    <contour>
      <point x="208" y="593" type="line"/>
      <point x="99" y="593" type="line"/>
      <point x="95" y="574" type="line"/>
      <point x="185" y="574" type="line"/>
      <point x="41" y="-136" type="line"/>
      <point x="-48" y="-136" type="line"/>
      <point x="-52" y="-155" type="line"/>
      <point x="57" y="-155" type="line"/>
    </contour>
  </outline>
</glyph>
<glyph name="asciicircum" format="1">
  <advance width="456"/>
  <unicode hex="005E"/>
  <outline>
    <contour>
      <point x="82" y="116" type="line"/>
      <point x="279" y="432" type="line"/>
      <point x="271" y="432" type="line"/>
      <point x="339" y="116" type="line"/>
      <point x="358" y="116" type="line"/>
      <point x="286" y="444" type="line"/>
      <point x="265" y="444" type="line"/>
      <point x="60" y="116" type="line"/>
    </contour>
  </outline>
</glyph>
<glyph name="underscore" format="1">
  <advance width="405"/>
  <unicode hex="005F"/>
  <outline>
    <contour>
      <point x="360" y="-18" type="line"/>
      <point x="363" y="0" type="line"/>
      <point x="-41" y="0" type="line"/>
      <point x="-45" y="-18" type="line"/>
    </contour>
  </outline>
</glyph>
<glyph name="b" format="1">
  <advance width="543"/>
  <unicode hex="0062"/>
  <outline>
    <contour>
      <point x="69" y="0" type="line"/>
      <point x="100" y="150" type="line"/>
      <point x="103" y="214" type="line"/>
      <point x="124" y="272" type="line"/>
      <point x="189" y="593" type="line"/>
      <point x="169" y="593" type="line"/>
      <point x="50" y="0" type="line"/>
    </contour>
    <contour>
      <point x="504" y="248" type="curve" smooth="yes"/>
      <point x="504" y="351"/>
      <point x="435" y="416"/>
      <point x="326" y="416" type="curve" smooth="yes"/>
      <point x="188" y="416"/>
      <point x="94" y="308"/>
      <point x="94" y="165" type="curve" smooth="yes"/>
      <point x="94" y="60"/>
      <point x="157" y="-3"/>
      <point x="268" y="-3" type="curve" smooth="yes"/>
      <point x="405" y="-3"/>
      <point x="504" y="105"/>
    </contour>
    <contour>
      <point x="108" y="167" type="curve" smooth="yes"/>
      <point x="108" y="300"/>
      <point x="199" y="397"/>
      <point x="322" y="397" type="curve" smooth="yes"/>
      <point x="424" y="397"/>
      <point x="484" y="342"/>
      <point x="484" y="247" type="curve" smooth="yes"/>
      <point x="484" y="114"/>
      <point x="393" y="16"/>
      <point x="270" y="16" type="curve" smooth="yes"/>
      <point x="168" y="16"/>
      <point x="108" y="72"/>
    </contour>
  </outline>
</glyph>
<glyph name="e" format="1">
  <advance width="491"/>
  <unicode hex="0065"/>
  <outline>
    <contour>
      <point x="403" y="63" type="curve"/>
      <point x="391" y="77" type="line"/>
      <point x="357" y="39"/>
      <point x="300" y="16"/>
      <point x="235" y="16" type="curve" smooth="yes"/>
      <point x="121" y="16"/>
      <point x="60" y="70"/>
      <point x="60" y="169" type="curve" smooth="yes"/>
      <point x="60" y="300"/>
      <point x="150" y="398"/>
      <point x="273" y="398" type="curve" smooth="yes"/>
      <point x="379" y="398"/>
      <point x="449" y="333"/>
      <point x="430" y="214" type="curve"/>
      <point x="439" y="223" type="line"/>
      <point x="60" y="223" type="line"/>
      <point x="57" y="206" type="line"/>
      <point x="448" y="206" type="line"/>
      <point x="450" y="218"/>
      <point x="452" y="233"/>
      <point x="452" y="248" type="curve" smooth="yes"/>
      <point x="452" y="353"/>
      <point x="385" y="416"/>
      <point x="274" y="416" type="curve" smooth="yes"/>
      <point x="139" y="416"/>
      <point x="40" y="309"/>
      <point x="40" y="169" type="curve" smooth="yes"/>
      <point x="40" y="59"/>
      <point x="113" y="-3"/>
      <point x="233" y="-3" type="curve" smooth="yes"/>
      <point x="304" y="-3"/>
      <point x="367" y="23"/>
    </contour>
    <contour>
      <point x="285" y="414" type="move" name="top"/>
    </contour>
    <contour>
      <point x="358" y="0" type="move" name="ogonek"/>
    </contour>
    <contour>
      <point x="201" y="0" type="move" name="bottom"/>
    </contour>
  </outline>
</glyph>
<glyph name="f" format="1">
  <advance width="254"/>
  <unicode hex="0066"/>
  <outline>
    <contour>
      <point x="76" y="0" type="line"/>
      <point x="158" y="400" type="line"/>
      <point x="159" y="410" type="line"/>
      <point x="175" y="484" type="line" smooth="yes"/>
      <point x="187" y="549"/>
      <point x="220" y="577"/>
      <point x="277" y="577" type="curve" smooth="yes"/>
      <point x="304" y="577"/>
      <point x="328" y="568"/>
      <point x="343" y="552" type="curve"/>
      <point x="355" y="566" type="line"/>
      <point x="339" y="585"/>
      <point x="309" y="595"/>
      <point x="278" y="595" type="curve" smooth="yes"/>
      <point x="212" y="595"/>
      <point x="170" y="559"/>
      <point x="156" y="489" type="curve" smooth="yes"/>
      <point x="57" y="0" type="line"/>
    </contour>
    <contour>
      <point x="297" y="394" type="line"/>
      <point x="300" y="413" type="line"/>
      <point x="59" y="413" type="line"/>
      <point x="56" y="394" type="line"/>
    </contour>
  </outline>
</glyph>
<glyph name="g" format="1">
  <advance width="548"/>
  <unicode hex="0067"/>
  <outline>
    <contour>
      <point x="423" y="38" type="curve" smooth="yes"/>
      <point x="499" y="414" type="line"/>
      <point x="480" y="414" type="line"/>
      <point x="450" y="266" type="line"/>
      <point x="448" y="216" type="line"/>
      <point x="430" y="165" type="line"/>
      <point x="403" y="35" type="line" smooth="yes"/>
      <point x="379" y="-85"/>
      <point x="312" y="-139"/>
      <point x="193" y="-139" type="curve" smooth="yes"/>
      <point x="124" y="-139"/>
      <point x="66" y="-117"/>
      <point x="32" y="-75" type="curve"/>
      <point x="16" y="-89" type="line"/>
      <point x="53" y="-132"/>
      <point x="116" y="-158"/>
      <point x="192" y="-158" type="curve" smooth="yes"/>
      <point x="324" y="-158"/>
      <point x="396" y="-100"/>
    </contour>
    <contour>
      <point x="455" y="254" type="curve" smooth="yes"/>
      <point x="455" y="357"/>
      <point x="390" y="416"/>
      <point x="279" y="416" type="curve" smooth="yes"/>
      <point x="140" y="416"/>
      <point x="41" y="313"/>
      <point x="41" y="176" type="curve" smooth="yes"/>
      <point x="41" y="76"/>
      <point x="110" y="14"/>
      <point x="221" y="14" type="curve" smooth="yes"/>
      <point x="360" y="14"/>
      <point x="455" y="117"/>
    </contour>
    <contour>
      <point x="61" y="177" type="curve" smooth="yes"/>
      <point x="61" y="303"/>
      <point x="152" y="397"/>
      <point x="278" y="397" type="curve" smooth="yes"/>
      <point x="380" y="397"/>
      <point x="441" y="345"/>
      <point x="441" y="253" type="curve" smooth="yes"/>
      <point x="441" y="126"/>
      <point x="349" y="33"/>
      <point x="224" y="33" type="curve" smooth="yes"/>
      <point x="121" y="33"/>
      <point x="61" y="85"/>
    </contour>
    <contour>
      <point x="297" y="414" type="move" name="top"/>
    </contour>
  </outline>
</glyph>
<glyph name="h" format="1">
  <advance width="541"/>
  <unicode hex="0068"/>
  <outline>
    <contour>
      <point x="120" y="291" type="curve"/>
      <point x="129" y="294" type="line"/>
      <point x="189" y="593" type="line"/>
      <point x="169" y="593" type="line"/>
      <point x="50" y="0" type="line"/>
      <point x="70" y="0" type="line"/>
      <point x="116" y="229" type="line" smooth="yes"/>
      <point x="138" y="339"/>
      <point x="211" y="397"/>
      <point x="316" y="397" type="curve" smooth="yes"/>
      <point x="418" y="397"/>
      <point x="460" y="338"/>
      <point x="441" y="243" type="curve" smooth="yes"/>
      <point x="392" y="0" type="line"/>
      <point x="412" y="0" type="line"/>
      <point x="461" y="244" type="line" smooth="yes"/>
      <point x="482" y="345"/>
      <point x="435" y="416"/>
      <point x="319" y="416" type="curve" smooth="yes"/>
      <point x="232" y="416"/>
      <point x="160" y="378"/>
    </contour>
    <contour>
      <point x="229" y="0" type="move" name="bottom"/>
    </contour>
    <contour>
      <point x="179" y="593" type="move" name="top"/>
    </contour>
    <contour>
      <point x="227" y="414" type="move" name="topright"/>
    </contour>
    <contour>
      <point x="213" y="504" type="move" name="center"/>
    </contour>
  </outline>
</glyph>
<glyph name="i" format="1">
  <advance width="204"/>
  <unicode hex="0069"/>
  <outline>
    <component base="dotaccentcomb.i" xOffset="-140.916"/>
    <component base="idotless"/>
    <contour>
      <point x="70" y="0" type="move" name="ogonek"/>
    </contour>
    <contour>
      <point x="60" y="0" type="move" name="bottom"/>
    </contour>
  </outline>
</glyph>
<glyph name="k" format="1">
  <advance width="453"/>
  <unicode hex="006B"/>
  <outline>
    <contour>
      <point x="241" y="236" type="line"/>
      <point x="254" y="247" type="line"/>
      <point x="472" y="414" type="line"/>
      <point x="442" y="414" type="line"/>
      <point x="91" y="147" type="line"/>
      <point x="88" y="120" type="line"/>
    </contour>
    <contour>
      <point x="70" y="0" type="line"/>
      <point x="189" y="593" type="line"/>
      <point x="169" y="593" type="line"/>
      <point x="50" y="0" type="line"/>
    </contour>
    <contour>
      <point x="407" y="0" type="line"/>
      <point x="252" y="254" type="line"/>
      <point x="237" y="240" type="line"/>
      <point x="384" y="0" type="line"/>
    </contour>
    <contour>
      <point x="179" y="593" type="move" name="top"/>
    </contour>
    <contour>
      <point x="223" y="414" type="move" name="topright"/>
    </contour>
    <contour>
      <point x="207" y="0" type="move" name="bottom"/>
    </contour>
  </outline>
</glyph>
<glyph name="l" format="1">
  <advance width="204"/>
  <unicode hex="006C"/>
  <outline>
    <contour>
      <point x="70" y="0" type="line"/>
      <point x="189" y="593" type="line"/>
      <point x="169" y="593" type="line"/>
      <point x="50" y="0" type="line"/>
    </contour>
    <contour>
      <point x="60" y="0" type="move" name="bottom"/>
    </contour>
    <contour>
      <point x="221" y="280" type="move" name="dot"/>
    </contour>
    <contour>
      <point x="179" y="593" type="move" name="top"/>
    </contour>
    <contour>
      <point x="270" y="593" type="move" name="topright"/>
    </contour>
    <contour>
      <point x="116" y="280" type="move" name="center"/>
    </contour>
  </outline>
</glyph>
<glyph name="m" format="1">
  <advance width="864"/>
  <unicode hex="006D"/>
  <outline>
    <contour>
      <point x="450" y="294" type="curve"/>
      <point x="456" y="292" type="line"/>
      <point x="455" y="367"/>
      <point x="408" y="416"/>
      <point x="315" y="416" type="curve" smooth="yes"/>
      <point x="229" y="416"/>
      <point x="161" y="378"/>
      <point x="120" y="291" type="curve"/>
      <point x="129" y="295" type="line"/>
      <point x="153" y="414" type="line"/>
      <point x="133" y="414" type="line"/>
      <point x="50" y="0" type="line"/>
      <point x="70" y="0" type="line"/>
      <point x="116" y="229" type="line" smooth="yes"/>
      <point x="138" y="338"/>
      <point x="211" y="397"/>
      <point x="311" y="397" type="curve" smooth="yes"/>
      <point x="411" y="397"/>
      <point x="451" y="338"/>
      <point x="431" y="243" type="curve" smooth="yes"/>
      <point x="382" y="0" type="line"/>
      <point x="402" y="0" type="line"/>
      <point x="451" y="242" type="line" smooth="yes"/>
      <point x="472" y="344"/>
      <point x="547" y="397"/>
      <point x="643" y="397" type="curve" smooth="yes"/>
      <point x="743" y="397"/>
      <point x="783" y="338"/>
      <point x="764" y="243" type="curve" smooth="yes"/>
      <point x="714" y="0" type="line"/>
      <point x="734" y="0" type="line"/>
      <point x="784" y="244" type="line" smooth="yes"/>
      <point x="804" y="345"/>
      <point x="760" y="416"/>
      <point x="646" y="416" type="curve" smooth="yes"/>
      <point x="559" y="416"/>
      <point x="488" y="376"/>
    </contour>
    <contour>
      <point x="392" y="0" type="move" name="bottom"/>
    </contour>
  </outline>
</glyph>
<glyph name="n" format="1">
  <advance width="541"/>
  <unicode hex="006E"/>
  <outline>
    <contour>
      <point x="120" y="291" type="curve"/>
      <point x="129" y="294" type="line"/>
      <point x="153" y="414" type="line"/>
      <point x="133" y="414" type="line"/>
      <point x="50" y="0" type="line"/>
      <point x="70" y="0" type="line"/>
      <point x="116" y="229" type="line" smooth="yes"/>
      <point x="138" y="339"/>
      <point x="211" y="397"/>
      <point x="316" y="397" type="curve" smooth="yes"/>
      <point x="418" y="397"/>
      <point x="460" y="338"/>
      <point x="441" y="243" type="curve" smooth="yes"/>
      <point x="392" y="0" type="line"/>
      <point x="412" y="0" type="line"/>
      <point x="461" y="244" type="line" smooth="yes"/>
      <point x="482" y="345"/>
      <point x="435" y="416"/>
      <point x="319" y="416" type="curve" smooth="yes"/>
      <point x="232" y="416"/>
      <point x="160" y="378"/>
    </contour>
    <contour>
      <point x="313" y="414" type="move" name="top"/>
    </contour>
    <contour>
      <point x="229" y="0" type="move" name="bottom"/>
    </contour>
  </outline>
</glyph>
<glyph name="o" format="1">
  <advance width="494"/>
  <unicode hex="006F"/>
  <outline>
    <contour>
      <point x="455" y="248" type="curve" smooth="yes"/>
      <point x="455" y="351"/>
      <point x="386" y="416"/>
      <point x="276" y="416" type="curve" smooth="yes"/>
      <point x="138" y="416"/>
      <point x="39" y="309"/>
      <point x="39" y="166" type="curve" smooth="yes"/>
      <point x="39" y="63"/>
      <point x="108" y="-3"/>
      <point x="218" y="-3" type="curve" smooth="yes"/>
      <point x="356" y="-3"/>
      <point x="455" y="104"/>
    </contour>
    <contour>
      <point x="59" y="167" type="curve" smooth="yes"/>
      <point x="59" y="299"/>
      <point x="150" y="397"/>
      <point x="274" y="397" type="curve" smooth="yes"/>
      <point x="376" y="397"/>
      <point x="436" y="342"/>
      <point x="436" y="247" type="curve" smooth="yes"/>
      <point x="436" y="114"/>
      <point x="345" y="16"/>
      <point x="221" y="16" type="curve" smooth="yes"/>
      <point x="119" y="16"/>
      <point x="59" y="72"/>
    </contour>
    <contour>
      <point x="205" y="0" type="move" name="bottom"/>
    </contour>
    <contour>
      <point x="275" y="0" type="move" name="ogonek"/>
    </contour>
    <contour>
      <point x="289" y="414" type="move" name="top"/>
    </contour>
    <contour>
      <point x="418" y="415" type="move" name="topright"/>
    </contour>
    <contour>
      <point x="247" y="207" type="move" name="center"/>
    </contour>
  </outline>
</glyph>
<glyph name="p" format="1">
  <advance width="543"/>
  <unicode hex="0070"/>
  <outline>
    <contour>
      <point x="504" y="248" type="curve" smooth="yes"/>
      <point x="504" y="351"/>
      <point x="435" y="416"/>
      <point x="326" y="416" type="curve" smooth="yes"/>
      <point x="188" y="416"/>
      <point x="94" y="308"/>
      <point x="94" y="165" type="curve" smooth="yes"/>
      <point x="94" y="60"/>
      <point x="157" y="-3"/>
      <point x="268" y="-3" type="curve" smooth="yes"/>
      <point x="405" y="-3"/>
      <point x="504" y="105"/>
    </contour>
    <contour>
      <point x="38" y="-155" type="line"/>
      <point x="100" y="149" type="line"/>
      <point x="103" y="213" type="line"/>
      <point x="124" y="273" type="line"/>
      <point x="153" y="414" type="line"/>
      <point x="133" y="414" type="line"/>
      <point x="18" y="-155" type="line"/>
    </contour>
    <contour>
      <point x="108" y="167" type="curve" smooth="yes"/>
      <point x="108" y="300"/>
      <point x="199" y="397"/>
      <point x="322" y="397" type="curve" smooth="yes"/>
      <point x="424" y="397"/>
      <point x="484" y="342"/>
      <point x="484" y="247" type="curve" smooth="yes"/>
      <point x="484" y="114"/>
      <point x="393" y="16"/>
      <point x="270" y="16" type="curve" smooth="yes"/>
      <point x="168" y="16"/>
      <point x="108" y="72"/>
    </contour>
    <contour>
      <point x="337" y="414" type="move" name="top"/>
    </contour>
    <contour>
      <point x="255" y="0" type="move" name="bottom"/>
    </contour>
  </outline>
</glyph>
<glyph name="q" format="1">
  <advance width="543"/>
  <unicode hex="0071"/>
  <outline>
    <contour>
      <point x="449" y="248" type="curve" smooth="yes"/>
      <point x="449" y="354"/>
      <point x="387" y="416"/>
      <point x="275" y="416" type="curve" smooth="yes"/>
      <point x="138" y="416"/>
      <point x="39" y="309"/>
      <point x="39" y="166" type="curve" smooth="yes"/>
      <point x="39" y="62"/>
      <point x="108" y="-3"/>
      <point x="217" y="-3" type="curve" smooth="yes"/>
      <point x="355" y="-3"/>
      <point x="450" y="105"/>
    </contour>
    <contour>
      <point x="59" y="167" type="curve" smooth="yes"/>
      <point x="59" y="299"/>
      <point x="150" y="397"/>
      <point x="274" y="397" type="curve" smooth="yes"/>
      <point x="376" y="397"/>
      <point x="436" y="342"/>
      <point x="436" y="247" type="curve" smooth="yes"/>
      <point x="436" y="114"/>
      <point x="345" y="16"/>
      <point x="221" y="16" type="curve" smooth="yes"/>
      <point x="119" y="16"/>
      <point x="59" y="72"/>
    </contour>
    <contour>
      <point x="379" y="-155" type="line"/>
      <point x="493" y="414" type="line"/>
      <point x="474" y="414" type="line"/>
      <point x="444" y="265" type="line"/>
      <point x="440" y="200" type="line"/>
      <point x="419" y="141" type="line"/>
      <point x="359" y="-155" type="line"/>
    </contour>
    <contour>
      <point x="289" y="414" type="move" name="top"/>
    </contour>
    <contour>
      <point x="204" y="0" type="move" name="bottom"/>
    </contour>
  </outline>
</glyph>
<glyph name="r" format="1">
  <advance width="311"/>
  <unicode hex="0072"/>
  <outline>
    <contour>
      <point x="70" y="0" type="line"/>
      <point x="113" y="215" type="line" smooth="yes"/>
      <point x="137" y="333"/>
      <point x="204" y="396"/>
      <point x="306" y="396" type="curve" smooth="yes"/>
      <point x="308" y="396"/>
      <point x="311" y="396"/>
      <point x="314" y="396" type="curve"/>
      <point x="317" y="416" type="line"/>
      <point x="219" y="416"/>
      <point x="157" y="370"/>
      <point x="123" y="291" type="curve"/>
      <point x="127" y="286" type="line"/>
      <point x="153" y="414" type="line"/>
      <point x="133" y="414" type="line"/>
      <point x="50" y="0" type="line"/>
    </contour>
    <contour>
      <point x="225" y="414" type="move" name="top"/>
    </contour>
    <contour>
      <point x="60" y="0" type="move" name="bottom"/>
    </contour>
  </outline>
</glyph>
<glyph name="s" format="1">
  <advance width="376"/>
  <unicode hex="0073"/>
  <outline>
    <contour>
      <point x="327" y="117" type="curve" smooth="yes"/>
      <point x="327" y="254"/>
      <point x="79" y="178"/>
      <point x="79" y="297" type="curve" smooth="yes"/>
      <point x="79" y="358"/>
      <point x="136" y="398"/>
      <point x="225" y="398" type="curve" smooth="yes"/>
      <point x="271" y="398"/>
      <point x="317" y="385"/>
      <point x="347" y="359" type="curve"/>
      <point x="360" y="374" type="line"/>
      <point x="331" y="401"/>
      <point x="277" y="416"/>
      <point x="226" y="416" type="curve" smooth="yes"/>
      <point x="127" y="416"/>
      <point x="59" y="369"/>
      <point x="59" y="296" type="curve" smooth="yes"/>
      <point x="59" y="157"/>
      <point x="307" y="234"/>
      <point x="307" y="116" type="curve" smooth="yes"/>
      <point x="307" y="53"/>
      <point x="250" y="16"/>
      <point x="154" y="16" type="curve" smooth="yes"/>
      <point x="96" y="16"/>
      <point x="41" y="36"/>
      <point x="9" y="68" type="curve"/>
      <point x="-4" y="52" type="line"/>
      <point x="26" y="20"/>
      <point x="88" y="-3"/>
      <point x="153" y="-3" type="curve" smooth="yes"/>
      <point x="259" y="-3"/>
      <point x="327" y="42"/>
    </contour>
    <contour>
      <point x="230" y="414" type="move" name="top"/>
    </contour>
    <contour>
      <point x="146" y="0" type="move" name="bottom"/>
    </contour>
  </outline>
</glyph>
<glyph name="t" format="1">
  <advance width="315"/>
  <unicode hex="0074"/>
  <outline>
    <contour>
      <point x="248" y="27" type="curve"/>
      <point x="239" y="41" type="line"/>
      <point x="218" y="25"/>
      <point x="193" y="16"/>
      <point x="166" y="16" type="curve" smooth="yes"/>
      <point x="108" y="16"/>
      <point x="86" y="48"/>
      <point x="99" y="113" type="curve" smooth="yes"/>
      <point x="178" y="504" type="line"/>
      <point x="159" y="504" type="line"/>
      <point x="79" y="109" type="line" smooth="yes"/>
      <point x="65" y="39"/>
      <point x="95" y="-3"/>
      <point x="163" y="-3" type="curve" smooth="yes"/>
      <point x="192" y="-3"/>
      <point x="225" y="7"/>
    </contour>
    <contour>
      <point x="297" y="394" type="line"/>
      <point x="300" y="413" type="line"/>
      <point x="59" y="413" type="line"/>
      <point x="56" y="394" type="line"/>
    </contour>
    <contour>
      <point x="153" y="0" type="move" name="bottom"/>
    </contour>
    <contour>
      <point x="169" y="504" type="move" name="top"/>
    </contour>
    <contour>
      <point x="280" y="593" type="move" name="topright"/>
    </contour>
    <contour>
      <point x="146" y="244" type="move" name="center"/>
    </contour>
  </outline>
</glyph>
<glyph name="u" format="1">
  <advance width="538"/>
  <unicode hex="0075"/>
  <outline>
    <contour>
      <point x="418" y="123" type="curve"/>
      <point x="409" y="120" type="line"/>
      <point x="385" y="0" type="line"/>
      <point x="405" y="0" type="line"/>
      <point x="488" y="414" type="line"/>
      <point x="468" y="414" type="line"/>
      <point x="422" y="185" type="line" smooth="yes"/>
      <point x="400" y="75"/>
      <point x="327" y="17"/>
      <point x="223" y="17" type="curve" smooth="yes"/>
      <point x="122" y="17"/>
      <point x="81" y="76"/>
      <point x="100" y="171" type="curve" smooth="yes"/>
      <point x="149" y="414" type="line"/>
      <point x="129" y="414" type="line"/>
      <point x="80" y="170" type="line" smooth="yes"/>
      <point x="60" y="68"/>
      <point x="105" y="-3"/>
      <point x="220" y="-3" type="curve" smooth="yes"/>
      <point x="307" y="-3"/>
      <point x="378" y="36"/>
    </contour>
    <contour>
      <point x="405" y="0" type="move" name="ogonek"/>
    </contour>
    <contour>
      <point x="309" y="414" type="move" name="top"/>
    </contour>
    <contour>
      <point x="478" y="414" type="move" name="topright"/>
    </contour>
    <contour>
      <point x="225" y="0" type="move" name="bottom"/>
    </contour>
  </outline>
</glyph>
<glyph name="v" format="1">
  <advance width="413"/>
  <unicode hex="0076"/>
  <outline>
    <contour>
      <point x="175" y="0" type="line"/>
      <point x="451" y="414" type="line"/>
      <point x="428" y="414" type="line"/>
      <point x="163" y="13" type="line"/>
      <point x="172" y="13" type="line"/>
      <point x="67" y="414" type="line"/>
      <point x="47" y="414" type="line"/>
      <point x="155" y="0" type="line"/>
    </contour>
    <contour>
      <point x="249" y="414" type="move" name="top"/>
    </contour>
    <contour>
      <point x="165" y="0" type="move" name="bottom"/>
    </contour>
  </outline>
</glyph>
<glyph name="w" format="1">
  <advance width="753"/>
  <unicode hex="0077"/>
  <outline>
    <contour>
      <point x="167" y="0" type="line"/>
      <point x="418" y="394" type="line"/>
      <point x="411" y="394" type="line"/>
      <point x="504" y="0" type="line"/>
      <point x="524" y="0" type="line"/>
      <point x="785" y="414" type="line"/>
      <point x="762" y="414" type="line"/>
      <point x="511" y="13" type="line"/>
      <point x="520" y="13" type="line"/>
      <point x="427" y="414" type="line"/>
      <point x="408" y="414" type="line"/>
      <point x="154" y="13" type="line"/>
      <point x="163" y="13" type="line"/>
      <point x="73" y="414" type="line"/>
      <point x="52" y="414" type="line"/>
      <point x="147" y="0" type="line"/>
    </contour>
    <contour>
      <point x="418" y="414" type="move" name="top"/>
    </contour>
    <contour>
      <point x="335" y="0" type="move" name="bottom"/>
    </contour>
  </outline>
</glyph>
<glyph name="x" format="1">
  <advance width="405"/>
  <unicode hex="0078"/>
  <outline>
    <contour>
      <point x="6" y="0" type="line"/>
      <point x="206" y="203" type="line"/>
      <point x="198" y="203" type="line"/>
      <point x="318" y="0" type="line"/>
      <point x="341" y="0" type="line"/>
      <point x="212" y="218" type="line"/>
      <point x="210" y="207" type="line"/>
      <point x="413" y="414" type="line"/>
      <point x="388" y="414" type="line"/>
      <point x="201" y="224" type="line"/>
      <point x="209" y="222" type="line"/>
      <point x="96" y="414" type="line"/>
      <point x="73" y="414" type="line"/>
      <point x="193" y="211" type="line"/>
      <point x="195" y="218" type="line"/>
      <point x="-20" y="0" type="line"/>
    </contour>
  </outline>
</glyph>
<glyph name="y" format="1">
  <advance width="413"/>
  <unicode hex="0079"/>
  <outline>
    <contour>
      <point x="129" y="-70" type="curve" smooth="yes"/>
      <point x="451" y="414" type="line"/>
      <point x="428" y="414" type="line"/>
      <point x="163" y="13" type="line"/>
      <point x="158" y="7" type="line"/>
      <point x="112" y="-62" type="line" smooth="yes"/>
      <point x="72" y="-121"/>
      <point x="40" y="-139"/>
      <point x="2" y="-139" type="curve" smooth="yes"/>
      <point x="-32" y="-139"/>
      <point x="-57" y="-128"/>
      <point x="-76" y="-105" type="curve"/>
      <point x="-90" y="-121" type="line"/>
      <point x="-71" y="-145"/>
      <point x="-37" y="-158"/>
      <point x="-1" y="-158" type="curve" smooth="yes"/>
      <point x="49" y="-158"/>
      <point x="84" y="-138"/>
    </contour>
    <contour>
      <point x="172" y="14" type="line"/>
      <point x="67" y="414" type="line"/>
      <point x="47" y="414" type="line"/>
      <point x="158" y="-9" type="line"/>
    </contour>
    <contour>
      <point x="236" y="414" type="move" name="top"/>
    </contour>
    <contour>
      <point x="238" y="0" type="move" name="bottom"/>
    </contour>
  </outline>
</glyph>
<glyph name="z" format="1">
  <advance width="399"/>
  <unicode hex="007A"/>
  <outline>
    <contour>
      <point x="318" y="0" type="line"/>
      <point x="322" y="19" type="line"/>
      <point x="11" y="19" type="line"/>
      <point x="22" y="12" type="line"/>
      <point x="395" y="399" type="line"/>
      <point x="397" y="414" type="line"/>
      <point x="82" y="414" type="line"/>
      <point x="79" y="395" type="line"/>
      <point x="379" y="395" type="line"/>
      <point x="370" y="401" type="line"/>
      <point x="-2" y="15" type="line"/>
      <point x="-5" y="0" type="line"/>
    </contour>
    <contour>
      <point x="240" y="414" type="move" name="top"/>
    </contour>
    <contour>
      <point x="165" y="0" type="move" name="bottom"/>
    </contour>
  </outline>
</glyph>
<glyph name="braceleft" format="1">
  <advance width="245"/>
  <unicode hex="007B"/>
  <outline>
    <contour>
      <point x="152" y="-155" type="line"/>
      <point x="155" y="-136" type="line"/>
      <point x="130" y="-136" type="line" smooth="yes"/>
      <point x="94" y="-136"/>
      <point x="70" y="-116"/>
      <point x="81" y="-62" type="curve" smooth="yes"/>
      <point x="128" y="168" type="line" smooth="yes"/>
      <point x="135" y="201"/>
      <point x="124" y="214"/>
      <point x="107" y="220" type="curve"/>
      <point x="106" y="216" type="line"/>
      <point x="131" y="222"/>
      <point x="142" y="237"/>
      <point x="149" y="270" type="curve" smooth="yes"/>
      <point x="199" y="516" type="line" smooth="yes"/>
      <point x="207" y="550"/>
      <point x="230" y="574"/>
      <point x="274" y="574" type="curve" smooth="yes"/>
      <point x="299" y="574" type="line"/>
      <point x="303" y="593" type="line"/>
      <point x="282" y="593" type="line" smooth="yes"/>
      <point x="220" y="593"/>
      <point x="190" y="567"/>
      <point x="179" y="516" type="curve" smooth="yes"/>
      <point x="129" y="270" type="line" smooth="yes"/>
      <point x="124" y="241"/>
      <point x="111" y="229"/>
      <point x="85" y="229" type="curve" smooth="yes"/>
      <point x="56" y="229" type="line"/>
      <point x="53" y="210" type="line"/>
      <point x="81" y="210" type="line" smooth="yes"/>
      <point x="104" y="210"/>
      <point x="114" y="197"/>
      <point x="109" y="168" type="curve" smooth="yes"/>
      <point x="61" y="-63" type="line" smooth="yes"/>
      <point x="48" y="-128"/>
      <point x="81" y="-155"/>
      <point x="130" y="-155" type="curve" smooth="yes"/>
    </contour>
  </outline>
</glyph>
<glyph name="bar" format="1">
  <advance width="232"/>
  <unicode hex="007C"/>
  <outline>
    <contour>
      <point x="53" y="-155" type="line"/>
      <point x="204" y="593" type="line"/>
      <point x="185" y="593" type="line"/>
      <point x="33" y="-155" type="line"/>
    </contour>
  </outline>
</glyph>
<glyph name="braceright" format="1">
  <advance width="245"/>
  <unicode hex="007D"/>
  <outline>
    <contour>
      <point x="-32" y="-155" type="line"/>
      <point x="30" y="-155"/>
      <point x="60" y="-129"/>
      <point x="70" y="-79" type="curve" smooth="yes"/>
      <point x="121" y="168" type="line" smooth="yes"/>
      <point x="126" y="197"/>
      <point x="139" y="209"/>
      <point x="165" y="209" type="curve" smooth="yes"/>
      <point x="193" y="209" type="line"/>
      <point x="197" y="228" type="line"/>
      <point x="169" y="228" type="line" smooth="yes"/>
      <point x="146" y="228"/>
      <point x="136" y="241"/>
      <point x="141" y="270" type="curve" smooth="yes"/>
      <point x="189" y="501" type="line" smooth="yes"/>
      <point x="202" y="566"/>
      <point x="169" y="593"/>
      <point x="119" y="593" type="curve" smooth="yes"/>
      <point x="98" y="593" type="line"/>
      <point x="95" y="574" type="line"/>
      <point x="120" y="574" type="line" smooth="yes"/>
      <point x="156" y="574"/>
      <point x="180" y="554"/>
      <point x="169" y="500" type="curve" smooth="yes"/>
      <point x="122" y="270" type="line" smooth="yes"/>
      <point x="115" y="237"/>
      <point x="126" y="223"/>
      <point x="143" y="218" type="curve"/>
      <point x="144" y="222" type="line"/>
      <point x="119" y="216"/>
      <point x="108" y="204"/>
      <point x="101" y="168" type="curve" smooth="yes"/>
      <point x="51" y="-78" type="line" smooth="yes"/>
      <point x="43" y="-112"/>
      <point x="20" y="-136"/>
      <point x="-24" y="-136" type="curve" smooth="yes"/>
      <point x="-49" y="-136" type="line"/>
      <point x="-53" y="-155" type="line"/>
    </contour>
  </outline>
</glyph>
<glyph name="asciitilde" format="1">
  <advance width="454"/>
  <unicode hex="007E"/>
  <outline>
    <contour>
      <point x="423" y="329" type="curve"/>
      <point x="406" y="329" type="line"/>
      <point x="394" y="278"/>
      <point x="361" y="245"/>
      <point x="317" y="245" type="curve" smooth="yes"/>
      <point x="253" y="245"/>
      <point x="244" y="332"/>
      <point x="167" y="332" type="curve" smooth="yes"/>
      <point x="114" y="332"/>
      <point x="75" y="294"/>
      <point x="60" y="230" type="curve"/>
      <point x="77" y="230" type="line"/>
      <point x="89" y="281"/>
      <point x="122" y="314"/>
      <point x="166" y="314" type="curve" smooth="yes"/>
      <point x="230" y="314"/>
      <point x="239" y="227"/>
      <point x="316" y="227" type="curve" smooth="yes"/>
      <point x="369" y="227"/>
      <point x="408" y="266"/>
    </contour>
  </outline>
</glyph>
<glyph name="exclamdown" format="1">
  <advance width="197"/>
  <unicode hex="00A1"/>
  <outline>
    <contour>
      <point x="102" y="262" type="line"/>
      <point x="20" y="-123" type="line"/>
      <point x="42" y="-123" type="line"/>
      <point x="117" y="262" type="line"/>
    </contour>
    <contour>
      <point x="155" y="393" type="curve" smooth="yes"/>
      <point x="155" y="402"/>
      <point x="146" y="411"/>
      <point x="136" y="411" type="curve" smooth="yes"/>
      <point x="127" y="411"/>
      <point x="118" y="403"/>
      <point x="118" y="394" type="curve" smooth="yes"/>
      <point x="118" y="384"/>
      <point x="127" y="376"/>
      <point x="136" y="376" type="curve" smooth="yes"/>
      <point x="146" y="376"/>
      <point x="155" y="384"/>
    </contour>
  </outline>
</glyph>
<glyph name="cent" format="1">
  <advance width="442"/>
  <unicode hex="00A2"/>
  <outline>
    <contour>
      <point x="190" y="-96" type="line"/>
      <point x="312" y="491" type="line"/>
      <point x="300" y="510" type="line"/>
      <point x="178" y="-77" type="line"/>
    </contour>
    <contour>
      <point x="384" y="65" type="curve"/>
      <point x="372" y="79" type="line"/>
      <point x="339" y="39"/>
      <point x="284" y="16"/>
      <point x="225" y="16" type="curve" smooth="yes"/>
      <point x="119" y="16"/>
      <point x="59" y="72"/>
      <point x="59" y="167" type="curve" smooth="yes"/>
      <point x="59" y="299"/>
      <point x="150" y="397"/>
      <point x="276" y="397" type="curve" smooth="yes"/>
      <point x="339" y="397"/>
      <point x="385" y="377"/>
      <point x="413" y="334" type="curve"/>
      <point x="428" y="345" type="line"/>
      <point x="400" y="392"/>
      <point x="347" y="416"/>
      <point x="277" y="416" type="curve" smooth="yes"/>
      <point x="139" y="416"/>
      <point x="39" y="311"/>
      <point x="39" y="166" type="curve" smooth="yes"/>
      <point x="39" y="63"/>
      <point x="108" y="-3"/>
      <point x="222" y="-3" type="curve" smooth="yes"/>
      <point x="288" y="-3"/>
      <point x="349" y="22"/>
    </contour>
  </outline>
</glyph>
<glyph name="sterling" format="1">
  <advance width="501"/>
  <unicode hex="00A3"/>
  <outline>
    <contour>
      <point x="100" y="8" type="line"/>
      <point x="176" y="381" type="line" smooth="yes"/>
      <point x="199" y="492"/>
      <point x="271" y="543"/>
      <point x="388" y="543" type="curve" smooth="yes"/>
      <point x="449" y="543"/>
      <point x="498" y="529"/>
      <point x="533" y="497" type="curve"/>
      <point x="547" y="514" type="line"/>
      <point x="511" y="547"/>
      <point x="453" y="562"/>
      <point x="388" y="562" type="curve" smooth="yes"/>
      <point x="263" y="562"/>
      <point x="181" y="504"/>
      <point x="156" y="383" type="curve" smooth="yes"/>
      <point x="80" y="8" type="line"/>
    </contour>
    <contour>
      <point x="436" y="0" type="line"/>
      <point x="440" y="19" type="line"/>
      <point x="-14" y="19" type="line"/>
      <point x="-18" y="0" type="line"/>
    </contour>
    <contour>
      <point x="394" y="271" type="line"/>
      <point x="397" y="288" type="line"/>
      <point x="41" y="288" type="line"/>
      <point x="37" y="271" type="line"/>
    </contour>
  </outline>
</glyph>
<glyph name="currency" format="1">
  <advance width="566"/>
  <unicode hex="00A4"/>
  <outline>
    <contour>
      <point x="520" y="253" type="curve" smooth="yes"/>
      <point x="520" y="372"/>
      <point x="418" y="470"/>
      <point x="292" y="470" type="curve" smooth="yes"/>
      <point x="168" y="470"/>
      <point x="66" y="372"/>
      <point x="66" y="253" type="curve" smooth="yes"/>
      <point x="66" y="135"/>
      <point x="168" y="37"/>
      <point x="292" y="37" type="curve" smooth="yes"/>
      <point x="418" y="37"/>
      <point x="520" y="135"/>
    </contour>
    <contour>
      <point x="151" y="101" type="line"/>
      <point x="137" y="115" type="line"/>
      <point x="40" y="18" type="line"/>
      <point x="53" y="4" type="line"/>
    </contour>
    <contour>
      <point x="536" y="28" type="line"/>
      <point x="439" y="125" type="line"/>
      <point x="425" y="111" type="line"/>
      <point x="523" y="15" type="line"/>
    </contour>
    <contour>
      <point x="159" y="396" type="line"/>
      <point x="61" y="493" type="line"/>
      <point x="48" y="479" type="line"/>
      <point x="145" y="383" type="line"/>
    </contour>
    <contour>
      <point x="85" y="253" type="curve" smooth="yes"/>
      <point x="85" y="361"/>
      <point x="178" y="451"/>
      <point x="292" y="451" type="curve" smooth="yes"/>
      <point x="408" y="451"/>
      <point x="502" y="361"/>
      <point x="502" y="253" type="curve" smooth="yes"/>
      <point x="502" y="145"/>
      <point x="408" y="57"/>
      <point x="292" y="57" type="curve" smooth="yes"/>
      <point x="178" y="57"/>
      <point x="85" y="145"/>
    </contour>
    <contour>
      <point x="544" y="489" type="line"/>
      <point x="531" y="503" type="line"/>
      <point x="433" y="407" type="line"/>
      <point x="447" y="393" type="line"/>
    </contour>
  </outline>
</glyph>
<glyph name="yen" format="1">
  <advance width="544"/>
  <unicode hex="00A5"/>
  <outline>
    <contour>
      <point x="240" y="0" type="line"/>
      <point x="289" y="243" type="line"/>
      <point x="282" y="228" type="line"/>
      <point x="608" y="559" type="line"/>
      <point x="584" y="559" type="line"/>
      <point x="277" y="248" type="line"/>
      <point x="284" y="248" type="line"/>
      <point x="100" y="559" type="line"/>
      <point x="79" y="559" type="line"/>
      <point x="273" y="229" type="line"/>
      <point x="269" y="243" type="line"/>
      <point x="220" y="0" type="line"/>
    </contour>
    <contour>
      <point x="457" y="123" type="line"/>
      <point x="461" y="140" type="line"/>
      <point x="55" y="140" type="line"/>
      <point x="52" y="123" type="line"/>
    </contour>
    <contour>
      <point x="480" y="233" type="line"/>
      <point x="483" y="250" type="line"/>
      <point x="78" y="250" type="line"/>
      <point x="74" y="233" type="line"/>
    </contour>
  </outline>
</glyph>
<glyph name="section" format="1">
  <advance width="382"/>
  <unicode hex="00A7"/>
  <outline>
    <contour>
      <point x="356" y="241" type="curve" smooth="yes"/>
      <point x="356" y="383"/>
      <point x="121" y="313"/>
      <point x="121" y="436" type="curve" smooth="yes"/>
      <point x="121" y="496"/>
      <point x="179" y="543"/>
      <point x="274" y="543" type="curve" smooth="yes"/>
      <point x="324" y="543"/>
      <point x="372" y="530"/>
      <point x="403" y="505" type="curve"/>
      <point x="415" y="520" type="line"/>
      <point x="386" y="546"/>
      <point x="330" y="562"/>
      <point x="275" y="562" type="curve" smooth="yes"/>
      <point x="170" y="562"/>
      <point x="102" y="507"/>
      <point x="102" y="435" type="curve" smooth="yes"/>
      <point x="102" y="295"/>
      <point x="337" y="364"/>
      <point x="337" y="239" type="curve" smooth="yes"/>
      <point x="337" y="183"/>
      <point x="293" y="141"/>
      <point x="218" y="131" type="curve"/>
      <point x="237" y="119" type="line"/>
      <point x="311" y="133"/>
      <point x="356" y="179"/>
    </contour>
    <contour>
      <point x="296" y="45" type="curve" smooth="yes"/>
      <point x="296" y="182"/>
      <point x="62" y="121"/>
      <point x="62" y="241" type="curve" smooth="yes"/>
      <point x="62" y="294"/>
      <point x="105" y="336"/>
      <point x="176" y="347" type="curve"/>
      <point x="158" y="360" type="line"/>
      <point x="85" y="344"/>
      <point x="42" y="298"/>
      <point x="42" y="240" type="curve" smooth="yes"/>
      <point x="42" y="102"/>
      <point x="277" y="164"/>
      <point x="277" y="44" type="curve" smooth="yes"/>
      <point x="277" y="-19"/>
      <point x="220" y="-64"/>
      <point x="124" y="-64" type="curve" smooth="yes"/>
      <point x="66" y="-64"/>
      <point x="24" y="-44"/>
      <point x="-8" y="-12" type="curve"/>
      <point x="-21" y="-28" type="line"/>
      <point x="9" y="-60"/>
      <point x="59" y="-82"/>
      <point x="123" y="-82" type="curve" smooth="yes"/>
      <point x="229" y="-82"/>
      <point x="296" y="-29"/>
    </contour>
  </outline>
</glyph>
<glyph name="copyright" format="1">
  <advance width="666"/>
  <unicode hex="00A9"/>
  <outline>
    <contour>
      <point x="633" y="281" type="curve" smooth="yes"/>
      <point x="633" y="440"/>
      <point x="511" y="562"/>
      <point x="348" y="562" type="curve" smooth="yes"/>
      <point x="185" y="562"/>
      <point x="62" y="437"/>
      <point x="62" y="280" type="curve" smooth="yes"/>
      <point x="62" y="122"/>
      <point x="185" y="-2"/>
      <point x="346" y="-2" type="curve" smooth="yes"/>
      <point x="507" y="-2"/>
      <point x="633" y="122"/>
    </contour>
    <contour>
      <point x="78" y="280" type="curve" smooth="yes"/>
      <point x="78" y="427"/>
      <point x="195" y="545"/>
      <point x="348" y="545" type="curve" smooth="yes"/>
      <point x="501" y="545"/>
      <point x="616" y="431"/>
      <point x="616" y="281" type="curve" smooth="yes"/>
      <point x="616" y="132"/>
      <point x="498" y="14"/>
      <point x="346" y="14" type="curve" smooth="yes"/>
      <point x="195" y="14"/>
      <point x="78" y="132"/>
    </contour>
    <contour>
      <point x="476" y="167" type="curve"/>
      <point x="462" y="180" type="line"/>
      <point x="436" y="146"/>
      <point x="396" y="129"/>
      <point x="352" y="129" type="curve" smooth="yes"/>
      <point x="268" y="129"/>
      <point x="206" y="190"/>
      <point x="206" y="280" type="curve" smooth="yes"/>
      <point x="206" y="369"/>
      <point x="268" y="430"/>
      <point x="352" y="430" type="curve" smooth="yes"/>
      <point x="396" y="430"/>
      <point x="436" y="413"/>
      <point x="462" y="379" type="curve"/>
      <point x="476" y="393" type="line"/>
      <point x="447" y="429"/>
      <point x="402" y="448"/>
      <point x="353" y="448" type="curve" smooth="yes"/>
      <point x="257" y="448"/>
      <point x="187" y="379"/>
      <point x="187" y="280" type="curve" smooth="yes"/>
      <point x="187" y="181"/>
      <point x="257" y="111"/>
      <point x="353" y="111" type="curve" smooth="yes"/>
      <point x="402" y="111"/>
      <point x="447" y="130"/>
    </contour>
  </outline>
</glyph>
<glyph name="ordfeminine" format="1">
  <advance width="319"/>
  <unicode hex="00AA"/>
  <outline>
    <contour>
      <point x="282" y="346" type="line"/>
      <point x="313" y="501" type="line" smooth="yes"/>
      <point x="326" y="563"/>
      <point x="290" y="595"/>
      <point x="226" y="595" type="curve" smooth="yes"/>
      <point x="184" y="595"/>
      <point x="143" y="580"/>
      <point x="116" y="560" type="curve"/>
      <point x="125" y="546" type="line"/>
      <point x="151" y="567"/>
      <point x="189" y="578"/>
      <point x="223" y="578" type="curve" smooth="yes"/>
      <point x="277" y="578"/>
      <point x="306" y="556"/>
      <point x="295" y="503" type="curve" smooth="yes"/>
      <point x="276" y="412" type="line"/>
      <point x="275" y="404" type="line"/>
      <point x="264" y="346" type="line"/>
    </contour>
    <contour>
      <point x="282" y="408" type="curve"/>
      <point x="278" y="418" type="line"/>
      <point x="253" y="380"/>
      <point x="218" y="359"/>
      <point x="168" y="359" type="curve" smooth="yes"/>
      <point x="122" y="359"/>
      <point x="98" y="376"/>
      <point x="98" y="406" type="curve" smooth="yes"/>
      <point x="98" y="445"/>
      <point x="130" y="468"/>
      <point x="183" y="468" type="curve" smooth="yes"/>
      <point x="294" y="468" type="line"/>
      <point x="297" y="481" type="line"/>
      <point x="185" y="481" type="line" smooth="yes"/>
      <point x="120" y="481"/>
      <point x="80" y="453"/>
      <point x="80" y="404" type="curve" smooth="yes"/>
      <point x="80" y="367"/>
      <point x="112" y="345"/>
      <point x="165" y="345" type="curve" smooth="yes"/>
      <point x="219" y="345"/>
      <point x="260" y="369"/>
    </contour>
  </outline>
</glyph>
<glyph name="registered" format="1">
  <advance width="666"/>
  <unicode hex="00AE"/>
  <outline>
    <contour>
      <point x="633" y="281" type="curve" smooth="yes"/>
      <point x="633" y="440"/>
      <point x="511" y="562"/>
      <point x="348" y="562" type="curve" smooth="yes"/>
      <point x="185" y="562"/>
      <point x="62" y="437"/>
      <point x="62" y="280" type="curve" smooth="yes"/>
      <point x="62" y="122"/>
      <point x="185" y="-2"/>
      <point x="346" y="-2" type="curve" smooth="yes"/>
      <point x="507" y="-2"/>
      <point x="633" y="122"/>
    </contour>
    <contour>
      <point x="489" y="114" type="line"/>
      <point x="404" y="243" type="line"/>
      <point x="382" y="243" type="line"/>
      <point x="467" y="114" type="line"/>
    </contour>
    <contour>
      <point x="78" y="280" type="curve" smooth="yes"/>
      <point x="78" y="427"/>
      <point x="195" y="545"/>
      <point x="348" y="545" type="curve" smooth="yes"/>
      <point x="501" y="545"/>
      <point x="616" y="431"/>
      <point x="616" y="281" type="curve" smooth="yes"/>
      <point x="616" y="132"/>
      <point x="498" y="14"/>
      <point x="346" y="14" type="curve" smooth="yes"/>
      <point x="195" y="14"/>
      <point x="78" y="132"/>
    </contour>
    <contour>
      <point x="261" y="114" type="line"/>
      <point x="261" y="232" type="line"/>
      <point x="364" y="232" type="line" smooth="yes"/>
      <point x="440" y="232"/>
      <point x="488" y="274"/>
      <point x="488" y="339" type="curve" smooth="yes"/>
      <point x="488" y="404"/>
      <point x="440" y="445"/>
      <point x="364" y="445" type="curve" smooth="yes"/>
      <point x="242" y="445" type="line"/>
      <point x="242" y="114" type="line"/>
    </contour>
    <contour>
      <point x="260" y="428" type="line"/>
      <point x="362" y="428" type="line" smooth="yes"/>
      <point x="430" y="428"/>
      <point x="470" y="395"/>
      <point x="470" y="339" type="curve" smooth="yes"/>
      <point x="470" y="283"/>
      <point x="430" y="250"/>
      <point x="362" y="250" type="curve" smooth="yes"/>
      <point x="260" y="250" type="line"/>
    </contour>
  </outline>
</glyph>
<glyph name="degree" format="1">
  <advance width="340"/>
  <unicode hex="00B0"/>
  <outline>
    <contour>
      <point x="339" y="441" type="curve" smooth="yes"/>
      <point x="339" y="509"/>
      <point x="285" y="562"/>
      <point x="217" y="562" type="curve" smooth="yes"/>
      <point x="150" y="562"/>
      <point x="95" y="509"/>
      <point x="95" y="441" type="curve" smooth="yes"/>
      <point x="95" y="374"/>
      <point x="150" y="321"/>
      <point x="217" y="321" type="curve" smooth="yes"/>
      <point x="285" y="321"/>
      <point x="339" y="374"/>
    </contour>
    <contour>
      <point x="112" y="441" type="curve" smooth="yes"/>
      <point x="112" y="499"/>
      <point x="158" y="545"/>
      <point x="217" y="545" type="curve" smooth="yes"/>
      <point x="277" y="545"/>
      <point x="322" y="499"/>
      <point x="322" y="441" type="curve" smooth="yes"/>
      <point x="322" y="384"/>
      <point x="277" y="337"/>
      <point x="217" y="337" type="curve" smooth="yes"/>
      <point x="158" y="337"/>
      <point x="112" y="384"/>
    </contour>
  </outline>
</glyph>
<glyph name="plusminus" format="1">
  <advance width="454"/>
  <unicode hex="00B1"/>
  <outline>
    <contour>
      <point x="352" y="0" type="line"/>
      <point x="355" y="19" type="line"/>
      <point x="22" y="19" type="line"/>
      <point x="18" y="0" type="line"/>
    </contour>
    <contour>
      <point x="219" y="122" type="line"/>
      <point x="284" y="443" type="line"/>
      <point x="265" y="443" type="line"/>
      <point x="200" y="122" type="line"/>
    </contour>
    <contour>
      <point x="408" y="273" type="line"/>
      <point x="411" y="291" type="line"/>
      <point x="77" y="291" type="line"/>
      <point x="73" y="273" type="line"/>
    </contour>
  </outline>
</glyph>
<glyph name="paragraph" format="1">
  <advance width="488"/>
  <unicode hex="00B6"/>
  <outline>
    <contour>
      <point x="143" y="-80" type="line"/>
      <point x="275" y="574" type="line"/>
      <point x="436" y="574" type="line"/>
      <point x="304" y="-80" type="line"/>
      <point x="323" y="-80" type="line"/>
      <point x="459" y="593" type="line"/>
      <point x="261" y="593" type="line" smooth="yes"/>
      <point x="152" y="593"/>
      <point x="89" y="550"/>
      <point x="73" y="474" type="curve" smooth="yes"/>
      <point x="55" y="383"/>
      <point x="118" y="333"/>
      <point x="208" y="333" type="curve"/>
      <point x="124" y="-80" type="line"/>
    </contour>
  </outline>
</glyph>
<glyph name="periodcentered" format="1">
  <advance width="182"/>
  <unicode hex="00B7"/>
  <outline>
    <contour>
      <point x="115" y="212" type="curve" smooth="yes"/>
      <point x="115" y="224"/>
      <point x="104" y="235"/>
      <point x="92" y="235" type="curve" smooth="yes"/>
      <point x="79" y="235"/>
      <point x="69" y="224"/>
      <point x="69" y="211" type="curve" smooth="yes"/>
      <point x="69" y="199"/>
      <point x="79" y="188"/>
      <point x="92" y="188" type="curve" smooth="yes"/>
      <point x="104" y="188"/>
      <point x="115" y="199"/>
    </contour>
  </outline>
</glyph>
<glyph name="ordmasculine" format="1">
  <advance width="330"/>
  <unicode hex="00BA"/>
  <outline>
    <contour>
      <point x="352" y="489" type="curve" smooth="yes"/>
      <point x="352" y="553"/>
      <point x="306" y="595"/>
      <point x="236" y="595" type="curve" smooth="yes"/>
      <point x="147" y="595"/>
      <point x="84" y="532"/>
      <point x="84" y="451" type="curve" smooth="yes"/>
      <point x="84" y="387"/>
      <point x="130" y="345"/>
      <point x="200" y="345" type="curve" smooth="yes"/>
      <point x="289" y="345"/>
      <point x="352" y="408"/>
    </contour>
    <contour>
      <point x="101" y="451" type="curve" smooth="yes"/>
      <point x="101" y="521"/>
      <point x="156" y="578"/>
      <point x="235" y="578" type="curve" smooth="yes"/>
      <point x="294" y="578"/>
      <point x="334" y="543"/>
      <point x="334" y="489" type="curve" smooth="yes"/>
      <point x="334" y="418"/>
      <point x="279" y="361"/>
      <point x="202" y="361" type="curve" smooth="yes"/>
      <point x="142" y="361"/>
      <point x="101" y="397"/>
    </contour>
  </outline>
</glyph>
<glyph name="questiondown" format="1">
  <advance width="449"/>
  <unicode hex="00BF"/>
  <outline>
    <contour>
      <point x="382" y="-53" type="curve"/>
      <point x="369" y="-39" type="line"/>
      <point x="323" y="-84"/>
      <point x="266" y="-107"/>
      <point x="184" y="-107" type="curve" smooth="yes"/>
      <point x="98" y="-107"/>
      <point x="49" y="-71"/>
      <point x="49" y="-8" type="curve" smooth="yes"/>
      <point x="49" y="130"/>
      <point x="234" y="125"/>
      <point x="259" y="262" type="curve"/>
      <point x="239" y="262" type="line"/>
      <point x="216" y="140"/>
      <point x="30" y="137"/>
      <point x="30" y="-9" type="curve" smooth="yes"/>
      <point x="30" y="-84"/>
      <point x="86" y="-126"/>
      <point x="183" y="-126" type="curve" smooth="yes"/>
      <point x="269" y="-126"/>
      <point x="334" y="-100"/>
    </contour>
    <contour>
      <point x="299" y="394" type="curve" smooth="yes"/>
      <point x="299" y="406"/>
      <point x="288" y="416"/>
      <point x="276" y="416" type="curve" smooth="yes"/>
      <point x="263" y="416"/>
      <point x="253" y="406"/>
      <point x="253" y="393" type="curve" smooth="yes"/>
      <point x="253" y="381"/>
      <point x="263" y="370"/>
      <point x="276" y="370" type="curve" smooth="yes"/>
      <point x="288" y="370"/>
      <point x="299" y="381"/>
    </contour>
  </outline>
</glyph>
<glyph name="AE" format="1">
  <advance width="815"/>
  <unicode hex="00C6"/>
  <outline>
    <contour>
      <point x="-21" y="0" type="line"/>
      <point x="438" y="546" type="line"/>
      <point x="423" y="540" type="line"/>
      <point x="444" y="540" type="line"/>
      <point x="447" y="559" type="line"/>
      <point x="425" y="559" type="line"/>
      <point x="-45" y="0" type="line"/>
    </contour>
    <contour>
      <point x="368" y="166" type="line"/>
      <point x="372" y="185" type="line"/>
      <point x="118" y="185" type="line"/>
      <point x="107" y="166" type="line"/>
    </contour>
    <contour>
      <point x="708" y="0" type="line"/>
      <point x="712" y="19" type="line"/>
      <point x="353" y="19" type="line"/>
      <point x="458" y="540" type="line"/>
      <point x="805" y="540" type="line"/>
      <point x="809" y="559" type="line"/>
      <point x="442" y="559" type="line"/>
      <point x="329" y="0" type="line"/>
    </contour>
    <contour>
      <point x="715" y="275" type="line"/>
      <point x="719" y="293" type="line"/>
      <point x="404" y="293" type="line"/>
      <point x="400" y="275" type="line"/>
    </contour>
    <contour>
      <point x="452" y="559" type="move" name="top"/>
    </contour>
    <contour>
      <point x="339" y="0" type="move" name="bottom"/>
    </contour>
  </outline>
</glyph>
<glyph name="multiply" format="1">
  <advance width="454"/>
  <unicode hex="00D7"/>
  <outline>
    <contour>
      <point x="119" y="156" type="line"/>
      <point x="376" y="389" type="line"/>
      <point x="364" y="403" type="line"/>
      <point x="107" y="170" type="line"/>
    </contour>
    <contour>
      <point x="337" y="156" type="line"/>
      <point x="351" y="169" type="line"/>
      <point x="146" y="403" type="line"/>
      <point x="132" y="390" type="line"/>
    </contour>
  </outline>
</glyph>
<glyph name="Oslash" format="1">
  <advance width="677"/>
  <unicode hex="00D8"/>
  <outline>
    <component base="slashlongcomb.case" xOffset="7.530"/>
    <component base="O"/>
    <contour>
      <point x="409" y="559" type="move" name="top"/>
    </contour>
    <contour>
      <point x="296" y="0" type="move" name="bottom"/>
    </contour>
  </outline>
</glyph>
<glyph name="Thorn" format="1">
  <advance width="575"/>
  <unicode hex="00DE"/>
  <outline>
    <contour>
      <point x="276" y="110" type="line"/>
      <point x="434" y="110"/>
      <point x="533" y="186"/>
      <point x="533" y="330" type="curve" smooth="yes"/>
      <point x="533" y="425"/>
      <point x="463" y="479"/>
      <point x="343" y="479" type="curve" smooth="yes"/>
      <point x="163" y="479" type="line"/>
      <point x="160" y="460" type="line"/>
      <point x="343" y="460" type="line" smooth="yes"/>
      <point x="452" y="460"/>
      <point x="513" y="413"/>
      <point x="513" y="329" type="curve" smooth="yes"/>
      <point x="513" y="197"/>
      <point x="426" y="129"/>
      <point x="275" y="129" type="curve" smooth="yes"/>
      <point x="93" y="129" type="line"/>
      <point x="89" y="110" type="line"/>
    </contour>
    <contour>
      <point x="74" y="0" type="line"/>
      <point x="187" y="559" type="line"/>
      <point x="167" y="559" type="line"/>
      <point x="54" y="0" type="line"/>
    </contour>
  </outline>
</glyph>
<glyph name="germandbls" format="1">
  <advance width="528"/>
  <unicode hex="00DF"/>
  <outline>
    <contour>
      <point x="477" y="186" type="curve" smooth="yes"/>
      <point x="477" y="267"/>
      <point x="414" y="310"/>
      <point x="320" y="310" type="curve"/>
      <point x="299" y="302" type="line"/>
      <point x="406" y="302"/>
      <point x="489" y="377"/>
      <point x="489" y="476" type="curve" smooth="yes"/>
      <point x="489" y="550"/>
      <point x="435" y="595"/>
      <point x="347" y="595" type="curve" smooth="yes"/>
      <point x="240" y="595"/>
      <point x="158" y="540"/>
      <point x="131" y="404" type="curve" smooth="yes"/>
      <point x="49" y="0" type="line"/>
      <point x="69" y="0" type="line"/>
      <point x="151" y="404" type="line" smooth="yes"/>
      <point x="176" y="529"/>
      <point x="249" y="577"/>
      <point x="346" y="577" type="curve" smooth="yes"/>
      <point x="427" y="577"/>
      <point x="469" y="538"/>
      <point x="469" y="475" type="curve" smooth="yes"/>
      <point x="469" y="374"/>
      <point x="387" y="313"/>
      <point x="272" y="313" type="curve"/>
      <point x="269" y="294" type="line"/>
      <point x="316" y="294" type="line" smooth="yes"/>
      <point x="399" y="294"/>
      <point x="457" y="259"/>
      <point x="457" y="186" type="curve" smooth="yes"/>
      <point x="457" y="81"/>
      <point x="379" y="16"/>
      <point x="262" y="16" type="curve" smooth="yes"/>
      <point x="237" y="16"/>
      <point x="207" y="20"/>
      <point x="182" y="30" type="curve"/>
      <point x="175" y="11" type="line"/>
      <point x="196" y="2"/>
      <point x="235" y="-3"/>
      <point x="262" y="-3" type="curve" smooth="yes"/>
      <point x="388" y="-3"/>
      <point x="477" y="70"/>
    </contour>
  </outline>
</glyph>
<glyph name="ae" format="1">
  <advance width="807"/>
  <unicode hex="00E6"/>
  <outline>
    <contour>
      <point x="364" y="149" type="curve"/>
      <point x="357" y="150" type="line"/>
      <point x="365" y="50"/>
      <point x="439" y="-3"/>
      <point x="549" y="-3" type="curve" smooth="yes"/>
      <point x="620" y="-3"/>
      <point x="683" y="23"/>
      <point x="719" y="63" type="curve"/>
      <point x="708" y="77" type="line"/>
      <point x="673" y="39"/>
      <point x="616" y="16"/>
      <point x="551" y="16" type="curve" smooth="yes"/>
      <point x="437" y="16"/>
      <point x="376" y="70"/>
      <point x="376" y="169" type="curve" smooth="yes"/>
      <point x="376" y="300"/>
      <point x="467" y="398"/>
      <point x="589" y="398" type="curve" smooth="yes"/>
      <point x="695" y="398"/>
      <point x="766" y="333"/>
      <point x="746" y="214" type="curve"/>
      <point x="755" y="225" type="line"/>
      <point x="378" y="225" type="line"/>
      <point x="375" y="208" type="line"/>
      <point x="763" y="208" type="line"/>
      <point x="766" y="218"/>
      <point x="768" y="233"/>
      <point x="768" y="248" type="curve" smooth="yes"/>
      <point x="768" y="353"/>
      <point x="701" y="416"/>
      <point x="590" y="416" type="curve" smooth="yes"/>
      <point x="502" y="416"/>
      <point x="424" y="370"/>
      <point x="384" y="289" type="curve"/>
      <point x="390" y="282" type="line"/>
      <point x="402" y="364"/>
      <point x="361" y="416"/>
      <point x="261" y="416" type="curve" smooth="yes"/>
      <point x="200" y="416"/>
      <point x="136" y="394"/>
      <point x="93" y="356" type="curve"/>
      <point x="104" y="342" type="line"/>
      <point x="142" y="375"/>
      <point x="200" y="398"/>
      <point x="260" y="398" type="curve" smooth="yes"/>
      <point x="351" y="398"/>
      <point x="388" y="352"/>
      <point x="370" y="264" type="curve" smooth="yes"/>
      <point x="349" y="161" type="line" smooth="yes"/>
      <point x="330" y="67"/>
      <point x="255" y="15"/>
      <point x="169" y="15" type="curve" smooth="yes"/>
      <point x="93" y="15"/>
      <point x="51" y="45"/>
      <point x="51" y="99" type="curve" smooth="yes"/>
      <point x="51" y="167"/>
      <point x="107" y="208"/>
      <point x="204" y="208" type="curve" smooth="yes"/>
      <point x="363" y="208" type="line"/>
      <point x="367" y="225" type="line"/>
      <point x="204" y="225" type="line" smooth="yes"/>
      <point x="97" y="225"/>
      <point x="32" y="178"/>
      <point x="32" y="98" type="curve" smooth="yes"/>
      <point x="32" y="36"/>
      <point x="82" y="-3"/>
      <point x="167" y="-3" type="curve" smooth="yes"/>
      <point x="251" y="-3"/>
      <point x="335" y="42"/>
    </contour>
    <contour>
      <point x="410" y="414" type="move" name="top"/>
    </contour>
  </outline>
</glyph>
<glyph name="eth" format="1">
  <advance width="501"/>
  <unicode hex="00F0"/>
  <outline>
    <contour>
      <point x="480" y="359" type="curve" smooth="yes"/>
      <point x="480" y="494"/>
      <point x="399" y="563"/>
      <point x="268" y="563" type="curve" smooth="yes"/>
      <point x="226" y="563"/>
      <point x="179" y="555"/>
      <point x="150" y="544" type="curve"/>
      <point x="153" y="526" type="line"/>
      <point x="183" y="537"/>
      <point x="227" y="544"/>
      <point x="268" y="544" type="curve" smooth="yes"/>
      <point x="390" y="544"/>
      <point x="461" y="482"/>
      <point x="460" y="356" type="curve" smooth="yes"/>
      <point x="460" y="296"/>
      <point x="447" y="223"/>
      <point x="414" y="166" type="curve"/>
      <point x="419" y="162" type="line"/>
      <point x="439" y="270"/>
      <point x="370" y="344"/>
      <point x="257" y="344" type="curve" smooth="yes"/>
      <point x="129" y="344"/>
      <point x="33" y="266"/>
      <point x="33" y="144" type="curve" smooth="yes"/>
      <point x="33" y="55"/>
      <point x="98" y="-3"/>
      <point x="201" y="-3" type="curve" smooth="yes"/>
      <point x="387" y="-3"/>
      <point x="480" y="199"/>
    </contour>
    <contour>
      <point x="53" y="145" type="curve" smooth="yes"/>
      <point x="53" y="253"/>
      <point x="137" y="325"/>
      <point x="257" y="325" type="curve" smooth="yes"/>
      <point x="350" y="325"/>
      <point x="407" y="276"/>
      <point x="407" y="196" type="curve" smooth="yes"/>
      <point x="407" y="96"/>
      <point x="305" y="16"/>
      <point x="204" y="16" type="curve" smooth="yes"/>
      <point x="108" y="16"/>
      <point x="53" y="65"/>
    </contour>
    <contour>
      <point x="486" y="545" type="line"/>
      <point x="480" y="561" type="line"/>
      <point x="156" y="431" type="line"/>
      <point x="162" y="415" type="line"/>
    </contour>
  </outline>
</glyph>
<glyph name="divide" format="1">
  <advance width="454"/>
  <unicode hex="00F7"/>
  <outline>
    <contour>
      <point x="407" y="270" type="line"/>
      <point x="411" y="289" type="line"/>
      <point x="77" y="289" type="line"/>
      <point x="73" y="270" type="line"/>
    </contour>
    <contour>
      <point x="235" y="135" type="curve" smooth="yes"/>
      <point x="235" y="147"/>
      <point x="225" y="158"/>
      <point x="212" y="158" type="curve" smooth="yes"/>
      <point x="200" y="158"/>
      <point x="190" y="147"/>
      <point x="190" y="135" type="curve" smooth="yes"/>
      <point x="190" y="122"/>
      <point x="200" y="112"/>
      <point x="212" y="112" type="curve" smooth="yes"/>
      <point x="224" y="112"/>
      <point x="235" y="123"/>
    </contour>
    <contour>
      <point x="293" y="425" type="curve" smooth="yes"/>
      <point x="293" y="437"/>
      <point x="283" y="447"/>
      <point x="271" y="447" type="curve" smooth="yes"/>
      <point x="259" y="447"/>
      <point x="248" y="437"/>
      <point x="248" y="424" type="curve" smooth="yes"/>
      <point x="248" y="412"/>
      <point x="259" y="402"/>
      <point x="271" y="402" type="curve" smooth="yes"/>
      <point x="283" y="402"/>
      <point x="293" y="412"/>
    </contour>
  </outline>
</glyph>
<glyph name="oslash" format="1">
  <advance width="494"/>
  <unicode hex="00F8"/>
  <outline>
    <component base="slashlongcomb" xOffset="1.618" yOffset="0.775"/>
    <component base="o"/>
    <contour>
      <point x="289" y="414" type="move" name="top"/>
    </contour>
  </outline>
</glyph>
<glyph name="Dcroat" format="1">
  <advance width="669"/>
  <unicode hex="0110"/>
  <outline>
    <component base="Eth"/>
    <contour>
      <point x="383" y="559" type="move" name="top"/>
    </contour>
    <contour>
      <point x="181" y="280" type="move" name="center"/>
    </contour>
    <contour>
      <point x="297" y="0" type="move" name="bottom"/>
    </contour>
  </outline>
</glyph>
<glyph name="IJ" format="1">
  <advance width="578"/>
  <unicode hex="0132"/>
  <outline>
    <contour>
      <point x="471" y="232" type="curve" smooth="yes"/>
      <point x="538" y="559" type="line"/>
      <point x="518" y="559" type="line"/>
      <point x="452" y="235" type="line" smooth="yes"/>
      <point x="422" y="85"/>
      <point x="349" y="17"/>
      <point x="224" y="17" type="curve" smooth="yes"/>
      <point x="160" y="17"/>
      <point x="106" y="36"/>
      <point x="66" y="66" type="curve"/>
      <point x="54" y="49" type="line"/>
      <point x="94" y="19"/>
      <point x="152" y="-3"/>
      <point x="224" y="-3" type="curve" smooth="yes"/>
      <point x="360" y="-3"/>
      <point x="439" y="73"/>
    </contour>
    <contour>
      <point x="116" y="233" type="line"/>
      <point x="183" y="559" type="line"/>
      <point x="163" y="559" type="line"/>
      <point x="96" y="233" type="line"/>
    </contour>
    <contour>
      <point x="196" y="559" type="move" name="top"/>
    </contour>
  </outline>
</glyph>
<glyph name="kgreenlandic" format="1">
  <advance width="453"/>
  <unicode hex="0138"/>
  <outline>
    <contour>
      <point x="241" y="236" type="line"/>
      <point x="254" y="247" type="line"/>
      <point x="472" y="414" type="line"/>
      <point x="442" y="414" type="line"/>
      <point x="91" y="147" type="line"/>
      <point x="88" y="120" type="line"/>
    </contour>
    <contour>
      <point x="70" y="0" type="line"/>
      <point x="153" y="414" type="line"/>
      <point x="133" y="414" type="line"/>
      <point x="50" y="0" type="line"/>
    </contour>
    <contour>
      <point x="407" y="0" type="line"/>
      <point x="252" y="254" type="line"/>
      <point x="237" y="240" type="line"/>
      <point x="384" y="0" type="line"/>
    </contour>
    <contour>
      <point x="259" y="414" type="move" name="top"/>
    </contour>
    <contour>
      <point x="176" y="0" type="move" name="bottom"/>
    </contour>
  </outline>
</glyph>
<glyph name="Eng" format="1">
  <advance width="660"/>
  <unicode hex="014A"/>
  <outline>
    <contour>
      <point x="74" y="0" type="line"/>
      <point x="182" y="535" type="line"/>
      <point x="175" y="535" type="line"/>
      <point x="485" y="0" type="line"/>
      <point x="494" y="24" type="line"/>
      <point x="184" y="559" type="line"/>
      <point x="167" y="559" type="line"/>
      <point x="54" y="0" type="line"/>
    </contour>
    <contour>
      <point x="501" y="-1" type="curve" smooth="yes"/>
      <point x="615" y="559" type="line"/>
      <point x="595" y="559" type="line"/>
      <point x="482" y="3" type="line" smooth="yes"/>
      <point x="460" y="-102"/>
      <point x="415" y="-138"/>
      <point x="340" y="-138" type="curve" smooth="yes"/>
      <point x="282" y="-138"/>
      <point x="239" y="-111"/>
      <point x="219" y="-68" type="curve"/>
      <point x="202" y="-80" type="line"/>
      <point x="223" y="-126"/>
      <point x="274" y="-158"/>
      <point x="338" y="-158" type="curve" smooth="yes"/>
      <point x="425" y="-158"/>
      <point x="478" y="-116"/>
    </contour>
  </outline>
</glyph>
<glyph name="eng" format="1">
  <advance width="541"/>
  <unicode hex="014B"/>
  <outline>
    <contour>
      <point x="401" y="-53" type="curve" smooth="yes"/>
      <point x="461" y="244" type="line" smooth="yes"/>
      <point x="482" y="345"/>
      <point x="435" y="416"/>
      <point x="319" y="416" type="curve" smooth="yes"/>
      <point x="232" y="416"/>
      <point x="160" y="378"/>
      <point x="120" y="291" type="curve"/>
      <point x="129" y="294" type="line"/>
      <point x="153" y="414" type="line"/>
      <point x="133" y="414" type="line"/>
      <point x="50" y="0" type="line"/>
      <point x="70" y="0" type="line"/>
      <point x="116" y="229" type="line" smooth="yes"/>
      <point x="138" y="339"/>
      <point x="211" y="397"/>
      <point x="316" y="397" type="curve" smooth="yes"/>
      <point x="418" y="397"/>
      <point x="460" y="338"/>
      <point x="441" y="243" type="curve" smooth="yes"/>
      <point x="382" y="-49" type="line" smooth="yes"/>
      <point x="369" y="-113"/>
      <point x="336" y="-139"/>
      <point x="283" y="-139" type="curve" smooth="yes"/>
      <point x="255" y="-139"/>
      <point x="232" y="-130"/>
      <point x="214" y="-114" type="curve"/>
      <point x="201" y="-129" type="line"/>
      <point x="219" y="-147"/>
      <point x="249" y="-158"/>
      <point x="282" y="-158" type="curve" smooth="yes"/>
      <point x="348" y="-158"/>
      <point x="387" y="-124"/>
    </contour>
  </outline>
</glyph>
<glyph name="OE" format="1">
  <advance width="900"/>
  <unicode hex="0152"/>
  <outline>
    <contour>
      <point x="420" y="0" type="line"/>
      <point x="424" y="19" type="line"/>
      <point x="309" y="19" type="line" smooth="yes"/>
      <point x="147" y="19"/>
      <point x="67" y="102"/>
      <point x="67" y="224" type="curve" smooth="yes"/>
      <point x="67" y="408"/>
      <point x="196" y="540"/>
      <point x="398" y="540" type="curve" smooth="yes"/>
      <point x="529" y="540" type="line"/>
      <point x="533" y="559" type="line"/>
      <point x="400" y="559" type="line" smooth="yes"/>
      <point x="184" y="559"/>
      <point x="47" y="418"/>
      <point x="47" y="224" type="curve" smooth="yes"/>
      <point x="47" y="90"/>
      <point x="138" y="0"/>
      <point x="307" y="0" type="curve" smooth="yes"/>
    </contour>
    <contour>
      <point x="793" y="0" type="line"/>
      <point x="797" y="19" type="line"/>
      <point x="438" y="19" type="line"/>
      <point x="543" y="540" type="line"/>
      <point x="890" y="540" type="line"/>
      <point x="894" y="559" type="line"/>
      <point x="527" y="559" type="line"/>
      <point x="414" y="0" type="line"/>
    </contour>
    <contour>
      <point x="800" y="275" type="line"/>
      <point x="804" y="293" type="line"/>
      <point x="489" y="293" type="line"/>
      <point x="485" y="275" type="line"/>
    </contour>
    <contour>
      <point x="537" y="559" type="move" name="top"/>
    </contour>
    <contour>
      <point x="424" y="0" type="move" name="bottom"/>
    </contour>
  </outline>
</glyph>
<glyph name="oe" format="1">
  <advance width="880"/>
  <unicode hex="0153"/>
  <outline>
    <contour>
      <point x="453" y="248" type="curve" smooth="yes"/>
      <point x="453" y="351"/>
      <point x="386" y="416"/>
      <point x="276" y="416" type="curve" smooth="yes"/>
      <point x="138" y="416"/>
      <point x="39" y="309"/>
      <point x="39" y="166" type="curve" smooth="yes"/>
      <point x="39" y="63"/>
      <point x="108" y="-3"/>
      <point x="218" y="-3" type="curve" smooth="yes"/>
      <point x="356" y="-3"/>
      <point x="453" y="104"/>
    </contour>
    <contour>
      <point x="59" y="167" type="curve" smooth="yes"/>
      <point x="59" y="299"/>
      <point x="150" y="397"/>
      <point x="274" y="397" type="curve" smooth="yes"/>
      <point x="376" y="397"/>
      <point x="436" y="342"/>
      <point x="436" y="247" type="curve" smooth="yes"/>
      <point x="436" y="114"/>
      <point x="345" y="16"/>
      <point x="221" y="16" type="curve" smooth="yes"/>
      <point x="119" y="16"/>
      <point x="59" y="72"/>
    </contour>
    <contour>
      <point x="792" y="63" type="curve"/>
      <point x="781" y="77" type="line"/>
      <point x="746" y="39"/>
      <point x="689" y="16"/>
      <point x="624" y="16" type="curve" smooth="yes"/>
      <point x="510" y="16"/>
      <point x="449" y="70"/>
      <point x="449" y="169" type="curve" smooth="yes"/>
      <point x="449" y="300"/>
      <point x="540" y="398"/>
      <point x="662" y="398" type="curve" smooth="yes"/>
      <point x="768" y="398"/>
      <point x="839" y="333"/>
      <point x="819" y="214" type="curve"/>
      <point x="828" y="223" type="line"/>
      <point x="449" y="223" type="line"/>
      <point x="446" y="206" type="line"/>
      <point x="837" y="206" type="line"/>
      <point x="840" y="218"/>
      <point x="841" y="233"/>
      <point x="841" y="248" type="curve" smooth="yes"/>
      <point x="841" y="353"/>
      <point x="774" y="416"/>
      <point x="663" y="416" type="curve" smooth="yes"/>
      <point x="528" y="416"/>
      <point x="431" y="309"/>
      <point x="431" y="169" type="curve" smooth="yes"/>
      <point x="431" y="59"/>
      <point x="502" y="-3"/>
      <point x="622" y="-3" type="curve" smooth="yes"/>
      <point x="693" y="-3"/>
      <point x="756" y="23"/>
    </contour>
    <contour>
      <point x="483" y="414" type="move" name="top"/>
    </contour>
    <contour>
      <point x="399" y="0" type="move" name="bottom"/>
    </contour>
  </outline>
</glyph>
<glyph name="Uogonek" format="1">
  <advance width="642"/>
  <unicode hex="0172"/>
  <outline>
    <contour>
      <point x="517" y="236" type="line"/>
      <point x="487" y="87"/>
      <point x="409" y="17"/>
      <point x="282" y="17" type="curve" smooth="yes"/>
      <point x="149" y="17"/>
      <point x="88" y="95"/>
      <point x="117" y="236" type="curve" smooth="yes"/>
      <point x="183" y="559" type="line"/>
      <point x="163" y="559" type="line"/>
      <point x="97" y="235" type="line" smooth="yes"/>
      <point x="67" y="86"/>
      <point x="137" y="-3"/>
      <point x="281" y="-3" type="curve" smooth="yes"/>
      <point x="293" y="-3"/>
      <point x="305" y="-2"/>
      <point x="314" y="-1" type="curve"/>
      <point x="286" y="1" type="line"/>
      <point x="211" y="-33"/>
      <point x="179" y="-72"/>
      <point x="179" y="-115" type="curve" smooth="yes"/>
      <point x="179" y="-150"/>
      <point x="204" y="-171"/>
      <point x="241" y="-171" type="curve" smooth="yes"/>
      <point x="266" y="-171"/>
      <point x="289" y="-164"/>
      <point x="307" y="-149" type="curve"/>
      <point x="301" y="-134" type="line"/>
      <point x="285" y="-147"/>
      <point x="264" y="-154"/>
      <point x="244" y="-154" type="curve" smooth="yes"/>
      <point x="215" y="-154"/>
      <point x="198" y="-139"/>
      <point x="198" y="-112" type="curve" smooth="yes"/>
      <point x="198" y="-66"/>
      <point x="252" y="-19"/>
      <point x="352" y="5" type="curve" smooth="yes"/>
      <point x="444" y="27"/>
      <point x="509" y="100"/>
      <point x="536" y="234" type="curve" smooth="yes"/>
      <point x="602" y="559" type="line"/>
      <point x="582" y="559" type="line"/>
    </contour>
  </outline>
</glyph>
<glyph name="florin" format="1">
  <advance width="337"/>
  <unicode hex="0192"/>
  <outline>
    <contour>
      <point x="72" y="-54" type="curve" smooth="yes"/>
      <point x="220" y="399" type="line"/>
      <point x="223" y="410" type="line"/>
      <point x="249" y="488" type="line" smooth="yes"/>
      <point x="269" y="545"/>
      <point x="306" y="577"/>
      <point x="360" y="577" type="curve" smooth="yes"/>
      <point x="386" y="577"/>
      <point x="411" y="568"/>
      <point x="423" y="551" type="curve"/>
      <point x="439" y="566" type="line"/>
      <point x="422" y="586"/>
      <point x="394" y="595"/>
      <point x="363" y="595" type="curve" smooth="yes"/>
      <point x="296" y="595"/>
      <point x="250" y="554"/>
      <point x="230" y="491" type="curve" smooth="yes"/>
      <point x="53" y="-50" type="line" smooth="yes"/>
      <point x="34" y="-107"/>
      <point x="-6" y="-139"/>
      <point x="-57" y="-139" type="curve" smooth="yes"/>
      <point x="-86" y="-139"/>
      <point x="-106" y="-130"/>
      <point x="-122" y="-114" type="curve"/>
      <point x="-137" y="-128" type="line"/>
      <point x="-121" y="-148"/>
      <point x="-91" y="-158"/>
      <point x="-58" y="-158" type="curve" smooth="yes"/>
      <point x="8" y="-158"/>
      <point x="52" y="-116"/>
    </contour>
    <contour>
      <point x="359" y="394" type="line"/>
      <point x="365" y="413" type="line"/>
      <point x="124" y="413" type="line"/>
      <point x="118" y="394" type="line"/>
    </contour>
  </outline>
</glyph>
<glyph name="Ohorn" format="1">
  <advance width="677"/>
  <unicode hex="01A0"/>
  <outline>
    <contour>
      <point x="511" y="-3"/>
      <point x="639" y="156"/>
      <point x="639" y="335" type="curve" smooth="yes"/>
      <point x="639" y="430"/>
      <point x="595" y="503"/>
      <point x="510" y="538" type="curve"/>
      <point x="505" y="536" type="line"/>
      <point x="525" y="533"/>
      <point x="544" y="532"/>
      <point x="573" y="532" type="curve" smooth="yes"/>
      <point x="643" y="532"/>
      <point x="683" y="562"/>
      <point x="683" y="616" type="curve" smooth="yes"/>
      <point x="683" y="637"/>
      <point x="676" y="659"/>
      <point x="665" y="676" type="curve"/>
      <point x="648" y="668" type="line"/>
      <point x="657" y="653"/>
      <point x="664" y="636"/>
      <point x="664" y="615" type="curve" smooth="yes"/>
      <point x="664" y="575"/>
      <point x="632" y="550"/>
      <point x="573" y="550" type="curve" smooth="yes"/>
      <point x="512" y="550"/>
      <point x="469" y="562"/>
      <point x="384" y="562" type="curve" smooth="yes"/>
      <point x="175" y="562"/>
      <point x="47" y="404"/>
      <point x="47" y="224" type="curve" smooth="yes"/>
      <point x="47" y="89"/>
      <point x="137" y="-3"/>
      <point x="302" y="-3" type="curve" smooth="yes"/>
    </contour>
    <contour>
      <point x="148" y="17"/>
      <point x="67" y="101"/>
      <point x="67" y="224" type="curve" smooth="yes"/>
      <point x="67" y="397"/>
      <point x="191" y="543"/>
      <point x="382" y="543" type="curve" smooth="yes"/>
      <point x="539" y="543"/>
      <point x="619" y="458"/>
      <point x="619" y="335" type="curve" smooth="yes"/>
      <point x="619" y="162"/>
      <point x="496" y="17"/>
      <point x="304" y="17" type="curve" smooth="yes"/>
    </contour>
    <contour>
      <point x="399" y="559" type="move" name="top"/>
    </contour>
    <contour>
      <point x="286" y="0" type="move" name="bottom"/>
    </contour>
  </outline>
</glyph>
<glyph name="ohorn" format="1">
  <advance width="494"/>
  <unicode hex="01A1"/>
  <outline>
    <contour>
      <point x="455" y="248" type="curve" smooth="yes"/>
      <point x="455" y="321"/>
      <point x="421" y="375"/>
      <point x="358" y="400" type="curve"/>
      <point x="339" y="399" type="line"/>
      <point x="365" y="396"/>
      <point x="384" y="394"/>
      <point x="407" y="394" type="curve" smooth="yes"/>
      <point x="461" y="394"/>
      <point x="492" y="421"/>
      <point x="492" y="471" type="curve" smooth="yes"/>
      <point x="492" y="492"/>
      <point x="485" y="515"/>
      <point x="474" y="531" type="curve"/>
      <point x="457" y="524" type="line"/>
      <point x="466" y="509"/>
      <point x="474" y="491"/>
      <point x="474" y="470" type="curve" smooth="yes"/>
      <point x="474" y="432"/>
      <point x="450" y="412"/>
      <point x="408" y="412" type="curve" smooth="yes"/>
      <point x="367" y="412"/>
      <point x="343" y="416"/>
      <point x="276" y="416" type="curve" smooth="yes"/>
      <point x="138" y="416"/>
      <point x="39" y="309"/>
      <point x="39" y="166" type="curve" smooth="yes"/>
      <point x="39" y="63"/>
      <point x="108" y="-3"/>
      <point x="218" y="-3" type="curve" smooth="yes"/>
      <point x="356" y="-3"/>
      <point x="455" y="104"/>
    </contour>
    <contour>
      <point x="59" y="167" type="curve" smooth="yes"/>
      <point x="59" y="299"/>
      <point x="150" y="397"/>
      <point x="274" y="397" type="curve" smooth="yes"/>
      <point x="376" y="397"/>
      <point x="436" y="342"/>
      <point x="436" y="247" type="curve" smooth="yes"/>
      <point x="436" y="114"/>
      <point x="345" y="16"/>
      <point x="221" y="16" type="curve" smooth="yes"/>
      <point x="119" y="16"/>
      <point x="59" y="72"/>
    </contour>
    <contour>
      <point x="289" y="414" type="move" name="top"/>
    </contour>
    <contour>
      <point x="205" y="0" type="move" name="bottom"/>
    </contour>
  </outline>
</glyph>
<glyph name="acutecomb" format="1">
  <advance width="485"/>
  <unicode hex="0301"/>
  <outline>
    <contour>
      <point x="288" y="485" type="line"/>
      <point x="420" y="574" type="line"/>
      <point x="383" y="574" type="line"/>
      <point x="260" y="485" type="line"/>
    </contour>
    <contour>
      <point x="308" y="530" type="move" name="top"/>
    </contour>
    <contour>
      <point x="284" y="414" type="move" name="_top"/>
    </contour>
  </outline>
</glyph>
<glyph name="tildecomb" format="1">
  <advance width="485"/>
  <unicode hex="0303"/>
  <outline>
    <contour>
      <point x="425" y="563" type="curve"/>
      <point x="408" y="563" type="line"/>
      <point x="403" y="532"/>
      <point x="384" y="512"/>
      <point x="359" y="512" type="curve" smooth="yes"/>
      <point x="321" y="512"/>
      <point x="304" y="567"/>
      <point x="257" y="567" type="curve" smooth="yes"/>
      <point x="222" y="567"/>
      <point x="197" y="539"/>
      <point x="191" y="496" type="curve"/>
      <point x="208" y="496" type="line"/>
      <point x="213" y="528"/>
      <point x="231" y="549"/>
      <point x="256" y="549" type="curve" smooth="yes"/>
      <point x="294" y="549"/>
      <point x="311" y="494"/>
      <point x="359" y="494" type="curve" smooth="yes"/>
      <point x="393" y="494"/>
      <point x="418" y="522"/>
    </contour>
    <contour>
      <point x="306" y="522" type="move" name="top"/>
    </contour>
    <contour>
      <point x="284" y="414" type="move" name="_top"/>
    </contour>
  </outline>
</glyph>
<glyph name="hookabovecomb" format="1">
  <advance width="485"/>
  <unicode hex="0309"/>
  <outline>
    <contour>
      <point x="375" y="564" type="curve" smooth="yes"/>
      <point x="375" y="596"/>
      <point x="351" y="617"/>
      <point x="314" y="617" type="curve" smooth="yes"/>
      <point x="295" y="617"/>
      <point x="273" y="610"/>
      <point x="256" y="599" type="curve"/>
      <point x="263" y="584" type="line"/>
      <point x="281" y="595"/>
      <point x="296" y="599"/>
      <point x="313" y="599" type="curve" smooth="yes"/>
      <point x="339" y="599"/>
      <point x="356" y="584"/>
      <point x="356" y="561" type="curve" smooth="yes"/>
      <point x="356" y="532"/>
      <point x="335" y="511"/>
      <point x="299" y="496" type="curve"/>
      <point x="306" y="482" type="line"/>
      <point x="355" y="503"/>
      <point x="375" y="529"/>
    </contour>
    <contour>
      <point x="319" y="586" type="move" name="top"/>
    </contour>
    <contour>
      <point x="284" y="414" type="move" name="_top"/>
    </contour>
  </outline>
</glyph>
<glyph name="dotbelowcomb" format="1">
  <advance width="485"/>
  <unicode hex="0323"/>
  <outline>
    <contour>
      <point x="199" y="-119" type="curve" smooth="yes"/>
      <point x="201" y="-107"/>
      <point x="192" y="-97"/>
      <point x="180" y="-97" type="curve" smooth="yes"/>
      <point x="168" y="-97"/>
      <point x="157" y="-108"/>
      <point x="154" y="-120" type="curve" smooth="yes"/>
      <point x="152" y="-132"/>
      <point x="160" y="-142"/>
      <point x="172" y="-142" type="curve" smooth="yes"/>
      <point x="184" y="-142"/>
      <point x="196" y="-132"/>
    </contour>
    <contour>
      <point x="201" y="0" type="move" name="_bottom"/>
    </contour>
    <contour>
      <point x="182" y="-92" type="move" name="bottom"/>
    </contour>
  </outline>
</glyph>
<glyph name="Delta" format="1">
  <advance width="559"/>
  <unicode hex="0394"/>
  <outline>
    <contour>
      <point x="341" y="559" type="line"/>
      <point x="-35" y="0" type="line"/>
      <point x="510" y="0" type="line"/>
      <point x="360" y="559" type="line"/>
    </contour>
    <contour>
      <point x="353" y="544" type="line"/>
      <point x="345" y="544" type="line"/>
      <point x="487" y="10" type="line"/>
      <point x="492" y="19" type="line"/>
      <point x="-10" y="19" type="line"/>
      <point x="-6" y="10" type="line"/>
    </contour>
  </outline>
</glyph>
<glyph name="Omega" format="1">
  <advance width="736"/>
  <unicode hex="03A9"/>
  <outline>
    <contour>
      <point x="228" y="0" type="line"/>
      <point x="232" y="19" type="line"/>
      <point x="144" y="77"/>
      <point x="106" y="140"/>
      <point x="106" y="248" type="curve" smooth="yes"/>
      <point x="106" y="427"/>
      <point x="234" y="543"/>
      <point x="415" y="543" type="curve" smooth="yes"/>
      <point x="565" y="543"/>
      <point x="658" y="470"/>
      <point x="658" y="335" type="curve" smooth="yes"/>
      <point x="658" y="165"/>
      <point x="546" y="64"/>
      <point x="427" y="19" type="curve"/>
      <point x="423" y="0" type="line"/>
      <point x="685" y="0" type="line"/>
      <point x="689" y="20" type="line"/>
      <point x="464" y="20" type="line"/>
      <point x="565" y="62"/>
      <point x="678" y="163"/>
      <point x="678" y="336" type="curve" smooth="yes"/>
      <point x="678" y="480"/>
      <point x="578" y="562"/>
      <point x="416" y="562" type="curve" smooth="yes"/>
      <point x="224" y="562"/>
      <point x="86" y="437"/>
      <point x="86" y="248" type="curve" smooth="yes"/>
      <point x="86" y="145"/>
      <point x="119" y="79"/>
      <point x="202" y="20" type="curve"/>
      <point x="-30" y="20" type="line"/>
      <point x="-34" y="0" type="line"/>
    </contour>
  </outline>
</glyph>
<glyph name="mu" format="1">
  <advance width="543"/>
  <unicode hex="03BC"/>
  <outline>
    <contour>
      <point x="39" y="-155" type="line"/>
      <point x="92" y="107" type="line"/>
      <point x="85" y="95" type="line"/>
      <point x="98" y="29"/>
      <point x="150" y="-3"/>
      <point x="226" y="-3" type="curve" smooth="yes"/>
      <point x="312" y="-3"/>
      <point x="383" y="36"/>
      <point x="423" y="123" type="curve"/>
      <point x="414" y="120" type="line"/>
      <point x="390" y="0" type="line"/>
      <point x="409" y="0" type="line"/>
      <point x="493" y="414" type="line"/>
      <point x="473" y="414" type="line"/>
      <point x="427" y="185" type="line" smooth="yes"/>
      <point x="405" y="75"/>
      <point x="332" y="17"/>
      <point x="228" y="17" type="curve" smooth="yes"/>
      <point x="127" y="17"/>
      <point x="85" y="76"/>
      <point x="105" y="171" type="curve" smooth="yes"/>
      <point x="154" y="414" type="line"/>
      <point x="134" y="414" type="line"/>
      <point x="19" y="-155" type="line"/>
    </contour>
  </outline>
</glyph>
<glyph name="pi" format="1">
  <advance width="581"/>
  <unicode hex="03C0"/>
  <outline>
    <contour>
      <point x="48" y="224" type="line"/>
      <point x="39" y="240"/>
      <point x="35" y="258"/>
      <point x="35" y="277" type="curve" smooth="yes"/>
      <point x="35" y="342"/>
      <point x="82" y="395"/>
      <point x="181" y="395" type="curve" smooth="yes"/>
      <point x="613" y="395" type="line"/>
      <point x="617" y="414" type="line"/>
      <point x="181" y="414" type="line" smooth="yes"/>
      <point x="66" y="414"/>
      <point x="16" y="350"/>
      <point x="16" y="276" type="curve" smooth="yes"/>
      <point x="16" y="253"/>
      <point x="22" y="232"/>
      <point x="32" y="215" type="curve"/>
    </contour>
    <contour>
      <point x="130" y="0" type="line"/>
      <point x="261" y="410" type="line"/>
      <point x="242" y="410" type="line"/>
      <point x="110" y="0" type="line"/>
    </contour>
    <contour>
      <point x="387" y="0" type="line"/>
      <point x="470" y="410" type="line"/>
      <point x="451" y="410" type="line"/>
      <point x="368" y="0" type="line"/>
    </contour>
  </outline>
</glyph>
<glyph name="figuredash" format="1">
  <advance width="566"/>
  <unicode hex="2012"/>
  <outline>
    <contour>
      <point x="540" y="275" type="line"/>
      <point x="543" y="293" type="line"/>
      <point x="57" y="293" type="line"/>
      <point x="54" y="275" type="line"/>
    </contour>
  </outline>
</glyph>
<glyph name="endash" format="1">
  <advance width="405"/>
  <unicode hex="2013"/>
  <outline>
    <contour>
      <point x="404" y="203" type="line"/>
      <point x="407" y="221" type="line"/>
      <point x="3" y="221" type="line"/>
      <point x="-1" y="203" type="line"/>
    </contour>
  </outline>
</glyph>
<glyph name="emdash" format="1">
  <advance width="809"/>
  <unicode hex="2014"/>
  <outline>
    <contour>
      <point x="808" y="203" type="line"/>
      <point x="812" y="221" type="line"/>
      <point x="3" y="221" type="line"/>
      <point x="-1" y="203" type="line"/>
    </contour>
  </outline>
</glyph>
<glyph name="quoteleft" format="1">
  <advance width="149"/>
  <unicode hex="2018"/>
  <outline>
    <contour>
      <point x="161" y="593" type="line"/>
      <point x="111" y="485" type="line" smooth="yes"/>
      <point x="106" y="475"/>
      <point x="103" y="469"/>
      <point x="103" y="460" type="curve" smooth="yes"/>
      <point x="103" y="447"/>
      <point x="113" y="437"/>
      <point x="126" y="437" type="curve" smooth="yes"/>
      <point x="138" y="437"/>
      <point x="149" y="447"/>
      <point x="149" y="460" type="curve" smooth="yes"/>
      <point x="149" y="473"/>
      <point x="139" y="483"/>
      <point x="126" y="483" type="curve"/>
      <point x="127" y="471" type="line"/>
      <point x="178" y="593" type="line"/>
    </contour>
  </outline>
</glyph>
<glyph name="quoteright" format="1">
  <advance width="149"/>
  <unicode hex="2019"/>
  <outline>
    <contour>
      <point x="113" y="439" type="line"/>
      <point x="164" y="547" type="line" smooth="yes"/>
      <point x="168" y="557"/>
      <point x="172" y="563"/>
      <point x="172" y="572" type="curve" smooth="yes"/>
      <point x="172" y="585"/>
      <point x="161" y="595"/>
      <point x="149" y="595" type="curve" smooth="yes"/>
      <point x="136" y="595"/>
      <point x="126" y="585"/>
      <point x="126" y="572" type="curve" smooth="yes"/>
      <point x="126" y="559"/>
      <point x="136" y="549"/>
      <point x="149" y="549" type="curve"/>
      <point x="147" y="561" type="line"/>
      <point x="97" y="439" type="line"/>
    </contour>
  </outline>
</glyph>
<glyph name="quotesinglbase" format="1">
  <advance width="149"/>
  <unicode hex="201A"/>
  <outline>
    <contour>
      <point x="2" y="-112" type="line"/>
      <point x="52" y="-4" type="line" smooth="yes"/>
      <point x="57" y="5"/>
      <point x="60" y="12"/>
      <point x="60" y="21" type="curve" smooth="yes"/>
      <point x="60" y="33"/>
      <point x="50" y="44"/>
      <point x="37" y="44" type="curve" smooth="yes"/>
      <point x="25" y="44"/>
      <point x="14" y="33"/>
      <point x="14" y="20" type="curve" smooth="yes"/>
      <point x="14" y="8"/>
      <point x="24" y="-3"/>
      <point x="37" y="-3" type="curve"/>
      <point x="36" y="9" type="line"/>
      <point x="-15" y="-112" type="line"/>
    </contour>
  </outline>
</glyph>
<glyph name="dagger" format="1">
  <advance width="423"/>
  <unicode hex="2020"/>
  <outline>
    <contour>
      <point x="147" y="-155" type="line"/>
      <point x="245" y="326" type="line"/>
      <point x="422" y="326" type="line"/>
      <point x="426" y="345" type="line"/>
      <point x="249" y="345" type="line"/>
      <point x="292" y="559" type="line"/>
      <point x="272" y="559" type="line"/>
      <point x="229" y="345" type="line"/>
      <point x="52" y="345" type="line"/>
      <point x="48" y="326" type="line"/>
      <point x="225" y="326" type="line"/>
      <point x="128" y="-155" type="line"/>
    </contour>
  </outline>
</glyph>
<glyph name="daggerdbl" format="1">
  <advance width="423"/>
  <unicode hex="2021"/>
  <outline>
    <contour>
      <point x="426" y="345" type="line"/>
      <point x="249" y="345" type="line"/>
      <point x="292" y="559" type="line"/>
      <point x="272" y="559" type="line"/>
      <point x="229" y="345" type="line"/>
      <point x="52" y="345" type="line"/>
      <point x="48" y="326" type="line"/>
      <point x="225" y="326" type="line"/>
      <point x="175" y="79" type="line"/>
      <point x="-2" y="79" type="line"/>
      <point x="-6" y="60" type="line"/>
      <point x="171" y="60" type="line"/>
      <point x="128" y="-155" type="line"/>
      <point x="147" y="-155" type="line"/>
      <point x="191" y="60" type="line"/>
      <point x="368" y="60" type="line"/>
      <point x="372" y="79" type="line"/>
      <point x="195" y="79" type="line"/>
      <point x="245" y="326" type="line"/>
      <point x="422" y="326" type="line"/>
    </contour>
  </outline>
</glyph>
<glyph name="bullet" format="1">
  <advance width="211"/>
  <unicode hex="2022"/>
  <outline>
    <contour>
      <point x="145" y="217" type="curve" smooth="yes"/>
      <point x="145" y="237"/>
      <point x="129" y="253"/>
      <point x="109" y="253" type="curve" smooth="yes"/>
      <point x="88" y="253"/>
      <point x="70" y="235"/>
      <point x="70" y="213" type="curve" smooth="yes"/>
      <point x="70" y="194"/>
      <point x="86" y="177"/>
      <point x="106" y="177" type="curve" smooth="yes"/>
      <point x="127" y="177"/>
      <point x="145" y="195"/>
    </contour>
  </outline>
</glyph>
<glyph name="perthousand" format="1">
  <advance width="932"/>
  <unicode hex="2030"/>
  <outline>
    <contour>
      <point x="101" y="0" type="line"/>
      <point x="599" y="559" type="line"/>
      <point x="577" y="559" type="line"/>
      <point x="79" y="0" type="line"/>
    </contour>
    <contour>
      <point x="327" y="446" type="curve" smooth="yes"/>
      <point x="327" y="517"/>
      <point x="287" y="561"/>
      <point x="224" y="561" type="curve" smooth="yes"/>
      <point x="134" y="561"/>
      <point x="78" y="470"/>
      <point x="78" y="377" type="curve" smooth="yes"/>
      <point x="78" y="306"/>
      <point x="117" y="262"/>
      <point x="180" y="262" type="curve" smooth="yes"/>
      <point x="271" y="262"/>
      <point x="327" y="353"/>
    </contour>
    <contour>
      <point x="96" y="379" type="curve" smooth="yes"/>
      <point x="96" y="458"/>
      <point x="142" y="545"/>
      <point x="223" y="545" type="curve" smooth="yes"/>
      <point x="277" y="545"/>
      <point x="308" y="507"/>
      <point x="308" y="444" type="curve" smooth="yes"/>
      <point x="308" y="365"/>
      <point x="262" y="278"/>
      <point x="182" y="278" type="curve" smooth="yes"/>
      <point x="127" y="278"/>
      <point x="96" y="316"/>
    </contour>
    <contour>
      <point x="600" y="181" type="curve" smooth="yes"/>
      <point x="600" y="253"/>
      <point x="561" y="297"/>
      <point x="498" y="297" type="curve" smooth="yes"/>
      <point x="408" y="297"/>
      <point x="352" y="206"/>
      <point x="352" y="113" type="curve" smooth="yes"/>
      <point x="352" y="41"/>
      <point x="391" y="-3"/>
      <point x="454" y="-3" type="curve" smooth="yes"/>
      <point x="544" y="-3"/>
      <point x="600" y="88"/>
    </contour>
    <contour>
      <point x="370" y="115" type="curve" smooth="yes"/>
      <point x="370" y="193"/>
      <point x="416" y="280"/>
      <point x="497" y="280" type="curve" smooth="yes"/>
      <point x="551" y="280"/>
      <point x="582" y="243"/>
      <point x="582" y="179" type="curve" smooth="yes"/>
      <point x="582" y="101"/>
      <point x="536" y="14"/>
      <point x="455" y="14" type="curve" smooth="yes"/>
      <point x="401" y="14"/>
      <point x="370" y="52"/>
    </contour>
    <contour>
      <point x="884" y="181" type="curve" smooth="yes"/>
      <point x="884" y="253"/>
      <point x="844" y="297"/>
      <point x="781" y="297" type="curve" smooth="yes"/>
      <point x="691" y="297"/>
      <point x="635" y="206"/>
      <point x="635" y="113" type="curve" smooth="yes"/>
      <point x="635" y="41"/>
      <point x="674" y="-3"/>
      <point x="737" y="-3" type="curve" smooth="yes"/>
      <point x="828" y="-3"/>
      <point x="884" y="88"/>
    </contour>
    <contour>
      <point x="653" y="115" type="curve" smooth="yes"/>
      <point x="653" y="193"/>
      <point x="699" y="280"/>
      <point x="780" y="280" type="curve" smooth="yes"/>
      <point x="834" y="280"/>
      <point x="865" y="243"/>
      <point x="865" y="179" type="curve" smooth="yes"/>
      <point x="865" y="101"/>
      <point x="819" y="14"/>
      <point x="739" y="14" type="curve" smooth="yes"/>
      <point x="684" y="14"/>
      <point x="653" y="52"/>
    </contour>
  </outline>
</glyph>
<glyph name="second" format="1">
  <advance width="273"/>
  <unicode hex="2033"/>
  <outline>
    <contour>
      <point x="114" y="358" type="line"/>
      <point x="157" y="559" type="line"/>
      <point x="136" y="559" type="line"/>
      <point x="97" y="358" type="line"/>
    </contour>
    <contour>
      <point x="237" y="358" type="line"/>
      <point x="279" y="559" type="line"/>
      <point x="259" y="559" type="line"/>
      <point x="220" y="358" type="line"/>
    </contour>
  </outline>
</glyph>
<glyph name="guilsinglleft" format="1">
  <advance width="223"/>
  <unicode hex="2039"/>
  <outline>
    <contour>
      <point x="156" y="59" type="line"/>
      <point x="63" y="215" type="line"/>
      <point x="64" y="202" type="line"/>
      <point x="218" y="355" type="line"/>
      <point x="195" y="355" type="line"/>
      <point x="46" y="207" type="line"/>
      <point x="135" y="59" type="line"/>
    </contour>
  </outline>
</glyph>
<glyph name="guilsinglright" format="1">
  <advance width="223"/>
  <unicode hex="203A"/>
  <outline>
    <contour>
      <point x="67" y="355" type="line"/>
      <point x="159" y="200" type="line"/>
      <point x="159" y="213" type="line"/>
      <point x="5" y="59" type="line"/>
      <point x="28" y="59" type="line"/>
      <point x="176" y="207" type="line"/>
      <point x="88" y="355" type="line"/>
    </contour>
  </outline>
</glyph>
<glyph name="fraction" format="1">
  <advance width="130"/>
  <unicode hex="2044"/>
  <outline>
    <contour>
      <point x="-158" y="0" type="line"/>
      <point x="340" y="559" type="line"/>
      <point x="317" y="559" type="line"/>
      <point x="-181" y="0" type="line"/>
    </contour>
  </outline>
</glyph>
<glyph name="franc" format="1">
  <advance width="516"/>
  <unicode hex="20A3"/>
  <outline>
    <contour>
      <point x="301" y="123" type="line"/>
      <point x="305" y="140" type="line"/>
      <point x="10" y="140" type="line"/>
      <point x="7" y="123" type="line"/>
    </contour>
    <contour>
      <point x="139" y="258" type="line"/>
      <point x="454" y="258" type="line"/>
      <point x="457" y="277" type="line"/>
      <point x="143" y="277" type="line"/>
    </contour>
    <contour>
      <point x="200" y="540" type="line"/>
      <point x="547" y="540" type="line"/>
      <point x="551" y="559" type="line"/>
      <point x="184" y="559" type="line"/>
      <point x="71" y="0" type="line"/>
      <point x="91" y="0" type="line"/>
    </contour>
  </outline>
</glyph>
<glyph name="lira" format="1">
  <advance width="501"/>
  <unicode hex="20A4"/>
  <outline>
    <contour>
      <point x="436" y="0" type="line"/>
      <point x="440" y="19" type="line"/>
      <point x="-14" y="19" type="line"/>
      <point x="-18" y="0" type="line"/>
    </contour>
    <contour>
      <point x="100" y="8" type="line"/>
      <point x="176" y="381" type="line" smooth="yes"/>
      <point x="199" y="492"/>
      <point x="271" y="543"/>
      <point x="388" y="543" type="curve" smooth="yes"/>
      <point x="449" y="543"/>
      <point x="498" y="529"/>
      <point x="533" y="497" type="curve"/>
      <point x="547" y="514" type="line"/>
      <point x="511" y="547"/>
      <point x="453" y="562"/>
      <point x="388" y="562" type="curve" smooth="yes"/>
      <point x="263" y="562"/>
      <point x="181" y="504"/>
      <point x="156" y="383" type="curve" smooth="yes"/>
      <point x="80" y="8" type="line"/>
    </contour>
    <contour>
      <point x="383" y="216" type="line"/>
      <point x="386" y="233" type="line"/>
      <point x="29" y="233" type="line"/>
      <point x="26" y="216" type="line"/>
    </contour>
    <contour>
      <point x="405" y="326" type="line"/>
      <point x="409" y="343" type="line"/>
      <point x="52" y="343" type="line"/>
      <point x="48" y="326" type="line"/>
    </contour>
  </outline>
</glyph>
<glyph name="trademark" format="1">
  <advance width="815"/>
  <unicode hex="2122"/>
  <outline>
    <contour>
      <point x="365" y="228" type="line"/>
      <point x="427" y="532" type="line"/>
      <point x="423" y="532" type="line"/>
      <point x="537" y="273" type="line"/>
      <point x="547" y="273" type="line"/>
      <point x="763" y="532" type="line"/>
      <point x="757" y="532" type="line"/>
      <point x="695" y="228" type="line"/>
      <point x="713" y="228" type="line"/>
      <point x="780" y="559" type="line"/>
      <point x="764" y="559" type="line"/>
      <point x="540" y="289" type="line"/>
      <point x="548" y="289" type="line"/>
      <point x="431" y="559" type="line"/>
      <point x="415" y="559" type="line"/>
      <point x="348" y="228" type="line"/>
    </contour>
    <contour>
      <point x="159" y="228" type="line"/>
      <point x="222" y="543" type="line"/>
      <point x="355" y="543" type="line"/>
      <point x="359" y="559" type="line"/>
      <point x="74" y="559" type="line"/>
      <point x="71" y="543" type="line"/>
      <point x="204" y="543" type="line"/>
      <point x="140" y="228" type="line"/>
    </contour>
  </outline>
</glyph>
<glyph name="estimated" format="1">
  <advance width="729"/>
  <unicode hex="212E"/>
  <outline>
    <contour>
      <point x="631" y="107" type="curve"/>
      <point x="585" y="107" type="line"/>
      <point x="537" y="51"/>
      <point x="463" y="14"/>
      <point x="381" y="14" type="curve" smooth="yes"/>
      <point x="305" y="14"/>
      <point x="231" y="42"/>
      <point x="186" y="97" type="curve" smooth="yes"/>
      <point x="183" y="102"/>
      <point x="179" y="108"/>
      <point x="179" y="116" type="curve" smooth="yes"/>
      <point x="179" y="269" type="line"/>
      <point x="179" y="272"/>
      <point x="181" y="272"/>
      <point x="184" y="272" type="curve" smooth="yes"/>
      <point x="698" y="272" type="line"/>
      <point x="698" y="279" type="line"/>
      <point x="698" y="435"/>
      <point x="556" y="562"/>
      <point x="380" y="562" type="curve" smooth="yes"/>
      <point x="206" y="562"/>
      <point x="63" y="435"/>
      <point x="63" y="279" type="curve" smooth="yes"/>
      <point x="63" y="124"/>
      <point x="206" y="-2"/>
      <point x="380" y="-2" type="curve" smooth="yes"/>
      <point x="482" y="-2"/>
      <point x="575" y="42"/>
    </contour>
    <contour>
      <point x="179" y="292" type="curve" smooth="yes"/>
      <point x="179" y="443" type="line"/>
      <point x="179" y="451"/>
      <point x="183" y="458"/>
      <point x="187" y="463" type="curve" smooth="yes"/>
      <point x="237" y="512"/>
      <point x="305" y="545"/>
      <point x="381" y="545" type="curve" smooth="yes"/>
      <point x="456" y="545"/>
      <point x="524" y="514"/>
      <point x="574" y="465" type="curve" smooth="yes"/>
      <point x="579" y="461"/>
      <point x="583" y="454"/>
      <point x="583" y="447" type="curve" smooth="yes"/>
      <point x="583" y="292" type="line"/>
      <point x="583" y="289"/>
      <point x="580" y="288"/>
      <point x="578" y="288" type="curve" smooth="yes"/>
      <point x="184" y="288" type="line"/>
      <point x="181" y="288"/>
      <point x="179" y="289"/>
    </contour>
  </outline>
</glyph>
<glyph name="partialdiff" format="1">
  <advance width="566"/>
  <unicode hex="2202"/>
  <outline>
    <contour>
      <point x="513" y="359" type="curve" smooth="yes"/>
      <point x="513" y="494"/>
      <point x="431" y="563"/>
      <point x="301" y="563" type="curve" smooth="yes"/>
      <point x="259" y="563"/>
      <point x="211" y="555"/>
      <point x="183" y="544" type="curve"/>
      <point x="186" y="526" type="line"/>
      <point x="216" y="537"/>
      <point x="260" y="544"/>
      <point x="301" y="544" type="curve" smooth="yes"/>
      <point x="423" y="544"/>
      <point x="493" y="482"/>
      <point x="493" y="356" type="curve" smooth="yes"/>
      <point x="493" y="296"/>
      <point x="480" y="223"/>
      <point x="447" y="166" type="curve"/>
      <point x="452" y="162" type="line"/>
      <point x="472" y="270"/>
      <point x="403" y="344"/>
      <point x="290" y="344" type="curve" smooth="yes"/>
      <point x="162" y="344"/>
      <point x="66" y="266"/>
      <point x="66" y="144" type="curve" smooth="yes"/>
      <point x="66" y="55"/>
      <point x="130" y="-3"/>
      <point x="234" y="-3" type="curve" smooth="yes"/>
      <point x="420" y="-3"/>
      <point x="513" y="199"/>
    </contour>
    <contour>
      <point x="86" y="145" type="curve" smooth="yes"/>
      <point x="86" y="253"/>
      <point x="170" y="325"/>
      <point x="290" y="325" type="curve" smooth="yes"/>
      <point x="383" y="325"/>
      <point x="440" y="276"/>
      <point x="440" y="196" type="curve" smooth="yes"/>
      <point x="440" y="96"/>
      <point x="337" y="16"/>
      <point x="237" y="16" type="curve" smooth="yes"/>
      <point x="141" y="16"/>
      <point x="86" y="65"/>
    </contour>
  </outline>
</glyph>
<glyph name="emptyset" format="1">
  <advance width="454"/>
  <unicode hex="2205"/>
  <outline>
    <contour>
      <point x="424" y="416" type="line"/>
      <point x="412" y="428" type="line"/>
      <point x="50" y="94" type="line"/>
      <point x="62" y="82" type="line"/>
    </contour>
    <contour>
      <point x="394" y="256" type="curve" smooth="yes"/>
      <point x="394" y="343"/>
      <point x="323" y="412"/>
      <point x="237" y="412" type="curve" smooth="yes"/>
      <point x="150" y="412"/>
      <point x="80" y="343"/>
      <point x="80" y="256" type="curve" smooth="yes"/>
      <point x="80" y="171"/>
      <point x="150" y="101"/>
      <point x="237" y="101" type="curve" smooth="yes"/>
      <point x="323" y="101"/>
      <point x="394" y="171"/>
    </contour>
    <contour>
      <point x="98" y="256" type="curve" smooth="yes"/>
      <point x="98" y="332"/>
      <point x="160" y="393"/>
      <point x="237" y="393" type="curve" smooth="yes"/>
      <point x="314" y="393"/>
      <point x="376" y="332"/>
      <point x="376" y="256" type="curve" smooth="yes"/>
      <point x="376" y="181"/>
      <point x="314" y="120"/>
      <point x="237" y="120" type="curve" smooth="yes"/>
      <point x="160" y="120"/>
      <point x="98" y="181"/>
    </contour>
  </outline>
</glyph>
<glyph name="product" format="1">
  <advance width="660"/>
  <unicode hex="220F"/>
  <outline>
    <contour>
      <point x="53" y="-155" type="line"/>
      <point x="194" y="540" type="line"/>
      <point x="601" y="540" type="line"/>
      <point x="460" y="-155" type="line"/>
      <point x="480" y="-155" type="line"/>
      <point x="625" y="559" type="line"/>
      <point x="178" y="559" type="line"/>
      <point x="33" y="-155" type="line"/>
    </contour>
  </outline>
</glyph>
<glyph name="summation" format="1">
  <advance width="518"/>
  <unicode hex="2211"/>
  <outline>
    <contour>
      <point x="413" y="-155" type="line"/>
      <point x="417" y="-136" type="line"/>
      <point x="-11" y="-136" type="line"/>
      <point x="-8" y="-145" type="line"/>
      <point x="345" y="195" type="line"/>
      <point x="347" y="210" type="line"/>
      <point x="139" y="546" type="line"/>
      <point x="134" y="540" type="line"/>
      <point x="550" y="540" type="line"/>
      <point x="554" y="559" type="line"/>
      <point x="119" y="559" type="line"/>
      <point x="117" y="544" type="line"/>
      <point x="331" y="197" type="line"/>
      <point x="334" y="212" type="line"/>
      <point x="-31" y="-140" type="line"/>
      <point x="-34" y="-155" type="line"/>
    </contour>
  </outline>
</glyph>
<glyph name="minus" format="1">
  <advance width="454"/>
  <unicode hex="2212"/>
  <outline>
    <contour>
      <point x="407" y="270" type="line"/>
      <point x="411" y="289" type="line"/>
      <point x="77" y="289" type="line"/>
      <point x="73" y="270" type="line"/>
    </contour>
  </outline>
</glyph>
<glyph name="radical" format="1">
  <advance width="634"/>
  <unicode hex="221A"/>
  <outline>
    <contour>
      <point x="268" y="-138" type="line"/>
      <point x="276" y="-138" type="line"/>
      <point x="195" y="289" type="line"/>
      <point x="77" y="289" type="line"/>
      <point x="73" y="270" type="line"/>
      <point x="177" y="270" type="line"/>
      <point x="260" y="-155" type="line"/>
      <point x="280" y="-155" type="line"/>
      <point x="704" y="593" type="line"/>
      <point x="681" y="593" type="line"/>
    </contour>
  </outline>
</glyph>
<glyph name="infinity" format="1">
  <advance width="740"/>
  <unicode hex="221E"/>
  <outline>
    <contour>
      <point x="714" y="301" type="curve" smooth="yes"/>
      <point x="714" y="373"/>
      <point x="658" y="422"/>
      <point x="581" y="422" type="curve" smooth="yes"/>
      <point x="373" y="422"/>
      <point x="386" y="156"/>
      <point x="190" y="156" type="curve" smooth="yes"/>
      <point x="121" y="156"/>
      <point x="76" y="198"/>
      <point x="76" y="261" type="curve" smooth="yes"/>
      <point x="76" y="346"/>
      <point x="139" y="403"/>
      <point x="224" y="403" type="curve" smooth="yes"/>
      <point x="422" y="403"/>
      <point x="332" y="138"/>
      <point x="547" y="138" type="curve" smooth="yes"/>
      <point x="644" y="138"/>
      <point x="714" y="207"/>
    </contour>
    <contour>
      <point x="580" y="403" type="curve" smooth="yes"/>
      <point x="649" y="403"/>
      <point x="695" y="361"/>
      <point x="695" y="299" type="curve" smooth="yes"/>
      <point x="695" y="214"/>
      <point x="631" y="156"/>
      <point x="547" y="156" type="curve" smooth="yes"/>
      <point x="348" y="156"/>
      <point x="438" y="422"/>
      <point x="223" y="422" type="curve" smooth="yes"/>
      <point x="126" y="422"/>
      <point x="56" y="352"/>
      <point x="56" y="259" type="curve" smooth="yes"/>
      <point x="56" y="187"/>
      <point x="112" y="138"/>
      <point x="190" y="138" type="curve" smooth="yes"/>
      <point x="398" y="138"/>
      <point x="385" y="403"/>
    </contour>
  </outline>
</glyph>
<glyph name="integral" format="1">
  <advance width="290"/>
  <unicode hex="222B"/>
  <outline>
    <contour>
      <point x="194" y="477" type="curve" smooth="yes"/>
      <point x="89" y="-37" type="line" smooth="yes"/>
      <point x="76" y="-100"/>
      <point x="44" y="-126"/>
      <point x="-12" y="-126" type="curve" smooth="yes"/>
      <point x="-38" y="-126"/>
      <point x="-61" y="-118"/>
      <point x="-76" y="-102" type="curve"/>
      <point x="-85" y="-109" type="line"/>
      <point x="-70" y="-127"/>
      <point x="-42" y="-137"/>
      <point x="-12" y="-137" type="curve" smooth="yes"/>
      <point x="48" y="-137"/>
      <point x="87" y="-105"/>
      <point x="100" y="-42" type="curve" smooth="yes"/>
      <point x="205" y="473" type="line" smooth="yes"/>
      <point x="218" y="535"/>
      <point x="250" y="562"/>
      <point x="306" y="562" type="curve" smooth="yes"/>
      <point x="332" y="562"/>
      <point x="355" y="553"/>
      <point x="370" y="538" type="curve"/>
      <point x="379" y="544" type="line"/>
      <point x="364" y="563"/>
      <point x="336" y="573"/>
      <point x="306" y="573" type="curve" smooth="yes"/>
      <point x="246" y="573"/>
      <point x="207" y="540"/>
    </contour>
  </outline>
</glyph>
<glyph name="approxequal" format="1">
  <advance width="454"/>
  <unicode hex="2248"/>
  <outline>
    <contour>
      <point x="406" y="248" type="curve"/>
      <point x="389" y="248" type="line"/>
      <point x="377" y="197"/>
      <point x="344" y="164"/>
      <point x="300" y="164" type="curve" smooth="yes"/>
      <point x="236" y="164"/>
      <point x="227" y="251"/>
      <point x="150" y="251" type="curve" smooth="yes"/>
      <point x="97" y="251"/>
      <point x="58" y="212"/>
      <point x="43" y="148" type="curve"/>
      <point x="60" y="148" type="line"/>
      <point x="72" y="200"/>
      <point x="105" y="233"/>
      <point x="149" y="233" type="curve" smooth="yes"/>
      <point x="214" y="233"/>
      <point x="222" y="146"/>
      <point x="299" y="146" type="curve" smooth="yes"/>
      <point x="352" y="146"/>
      <point x="391" y="184"/>
    </contour>
    <contour>
      <point x="440" y="411" type="curve"/>
      <point x="423" y="411" type="line"/>
      <point x="411" y="359"/>
      <point x="378" y="326"/>
      <point x="334" y="326" type="curve" smooth="yes"/>
      <point x="270" y="326"/>
      <point x="261" y="413"/>
      <point x="184" y="413" type="curve" smooth="yes"/>
      <point x="131" y="413"/>
      <point x="92" y="375"/>
      <point x="77" y="311" type="curve"/>
      <point x="94" y="311" type="line"/>
      <point x="106" y="363"/>
      <point x="139" y="396"/>
      <point x="183" y="396" type="curve" smooth="yes"/>
      <point x="247" y="396"/>
      <point x="256" y="309"/>
      <point x="333" y="309" type="curve" smooth="yes"/>
      <point x="386" y="309"/>
      <point x="425" y="347"/>
    </contour>
  </outline>
</glyph>
<glyph name="lessequal" format="1">
  <advance width="454"/>
  <unicode hex="2264"/>
  <outline>
    <contour>
      <point x="382" y="154" type="line"/>
      <point x="86" y="286" type="line"/>
      <point x="84" y="277" type="line"/>
      <point x="433" y="407" type="line"/>
      <point x="437" y="429" type="line"/>
      <point x="76" y="293" type="line"/>
      <point x="73" y="271" type="line"/>
      <point x="378" y="135" type="line"/>
    </contour>
    <contour>
      <point x="352" y="0" type="line"/>
      <point x="355" y="19" type="line"/>
      <point x="22" y="19" type="line"/>
      <point x="18" y="0" type="line"/>
    </contour>
  </outline>
</glyph>
<glyph name="greaterequal" format="1">
  <advance width="454"/>
  <unicode hex="2265"/>
  <outline>
    <contour>
      <point x="408" y="271" type="line"/>
      <point x="411" y="293" type="line"/>
      <point x="105" y="429" type="line"/>
      <point x="102" y="410" type="line"/>
      <point x="398" y="278" type="line"/>
      <point x="400" y="288" type="line"/>
      <point x="51" y="157" type="line"/>
      <point x="47" y="135" type="line"/>
    </contour>
    <contour>
      <point x="352" y="4" type="line"/>
      <point x="346" y="19" type="line"/>
      <point x="21" y="15" type="line"/>
      <point x="27" y="0" type="line"/>
    </contour>
  </outline>
</glyph>
<glyph name="lozenge" format="1">
  <advance width="407"/>
  <unicode hex="25CA"/>
  <outline>
    <contour>
      <point x="364" y="264" type="line"/>
      <point x="204" y="499" type="line"/>
      <point x="43" y="264" type="line"/>
      <point x="203" y="26" type="line"/>
    </contour>
    <contour>
      <point x="65" y="264" type="line"/>
      <point x="204" y="467" type="line"/>
      <point x="342" y="264" type="line"/>
      <point x="203" y="59" type="line"/>
    </contour>
  </outline>
</glyph>
<glyph name="A.ss01" format="1">
  <advance width="650"/>
  <outline>
    <contour>
      <point x="70" y="0" type="line"/>
      <point x="135" y="324" type="line" smooth="yes"/>
      <point x="165" y="472"/>
      <point x="243" y="543"/>
      <point x="375" y="543" type="curve" smooth="yes"/>
      <point x="509" y="543"/>
      <point x="571" y="465"/>
      <point x="542" y="323" type="curve" smooth="yes"/>
      <point x="477" y="0" type="line"/>
      <point x="497" y="0" type="line"/>
      <point x="562" y="324" type="line" smooth="yes"/>
      <point x="592" y="474"/>
      <point x="522" y="562"/>
      <point x="376" y="562" type="curve" smooth="yes"/>
      <point x="233" y="562"/>
      <point x="148" y="486"/>
      <point x="116" y="326" type="curve" smooth="yes"/>
      <point x="50" y="0" type="line"/>
    </contour>
    <contour>
      <point x="524" y="182" type="line"/>
      <point x="528" y="201" type="line"/>
      <point x="104" y="201" type="line"/>
      <point x="101" y="182" type="line"/>
    </contour>
    <contour>
      <point x="497" y="0" type="move" name="ogonek"/>
    </contour>
    <contour>
      <point x="386" y="559" type="move" name="top"/>
    </contour>
    <contour>
      <point x="134" y="559" type="move" name="topleft"/>
    </contour>
    <contour>
      <point x="273" y="0" type="move" name="bottom"/>
    </contour>
  </outline>
</glyph>
<glyph name="Adieresis.alt" format="1">
  <advance width="559"/>
  <outline>
    <contour>
      <point x="-13" y="0" type="line"/>
      <point x="353" y="544" type="line"/>
      <point x="343" y="544" type="line"/>
      <point x="487" y="0" type="line"/>
      <point x="510" y="0" type="line"/>
      <point x="360" y="559" type="line"/>
      <point x="341" y="559" type="line"/>
      <point x="-35" y="0" type="line"/>
    </contour>
    <contour>
      <point x="458" y="148" type="line"/>
      <point x="453" y="167" type="line"/>
      <point x="87" y="167" type="line"/>
      <point x="74" y="148" type="line"/>
    </contour>
    <contour>
      <point x="259" y="541" type="curve" smooth="yes"/>
      <point x="259" y="552"/>
      <point x="249" y="562"/>
      <point x="238" y="562" type="curve" smooth="yes"/>
      <point x="225" y="562"/>
      <point x="214" y="551"/>
      <point x="214" y="538" type="curve" smooth="yes"/>
      <point x="214" y="526"/>
      <point x="224" y="517"/>
      <point x="236" y="517" type="curve" smooth="yes"/>
      <point x="249" y="517"/>
      <point x="259" y="528"/>
    </contour>
    <contour>
      <point x="478" y="541" type="curve" smooth="yes"/>
      <point x="478" y="552"/>
      <point x="468" y="562"/>
      <point x="457" y="562" type="curve" smooth="yes"/>
      <point x="444" y="562"/>
      <point x="434" y="551"/>
      <point x="434" y="538" type="curve" smooth="yes"/>
      <point x="434" y="526"/>
      <point x="444" y="517"/>
      <point x="455" y="517" type="curve" smooth="yes"/>
      <point x="468" y="517"/>
      <point x="478" y="528"/>
    </contour>
  </outline>
</glyph>
<glyph name="E.ss01" format="1">
  <advance width="498"/>
  <outline>
    <contour>
      <point x="442" y="72" type="curve"/>
      <point x="430" y="87" type="line"/>
      <point x="387" y="43"/>
      <point x="309" y="16"/>
      <point x="222" y="16" type="curve" smooth="yes"/>
      <point x="110" y="16"/>
      <point x="48" y="57"/>
      <point x="48" y="130" type="curve" smooth="yes"/>
      <point x="48" y="218"/>
      <point x="126" y="275"/>
      <point x="251" y="275" type="curve" smooth="yes"/>
      <point x="385" y="275" type="line"/>
      <point x="388" y="293" type="line"/>
      <point x="255" y="293" type="line" smooth="yes"/>
      <point x="174" y="293"/>
      <point x="126" y="332"/>
      <point x="126" y="396" type="curve" smooth="yes"/>
      <point x="126" y="484"/>
      <point x="207" y="543"/>
      <point x="327" y="543" type="curve" smooth="yes"/>
      <point x="392" y="543"/>
      <point x="444" y="529"/>
      <point x="492" y="498" type="curve"/>
      <point x="502" y="515" type="line"/>
      <point x="457" y="546"/>
      <point x="396" y="562"/>
      <point x="328" y="562" type="curve" smooth="yes"/>
      <point x="196" y="562"/>
      <point x="107" y="496"/>
      <point x="107" y="394" type="curve" smooth="yes"/>
      <point x="107" y="323"/>
      <point x="160" y="279"/>
      <point x="245" y="279" type="curve"/>
      <point x="243" y="290" type="line"/>
      <point x="113" y="290"/>
      <point x="28" y="227"/>
      <point x="28" y="128" type="curve" smooth="yes"/>
      <point x="28" y="46"/>
      <point x="98" y="-3"/>
      <point x="218" y="-3" type="curve" smooth="yes"/>
      <point x="313" y="-3"/>
      <point x="397" y="26"/>
    </contour>
    <contour>
      <point x="405" y="0" type="move" name="ogonek"/>
    </contour>
    <contour>
      <point x="334" y="559" type="move" name="top"/>
    </contour>
    <contour>
      <point x="115" y="559" type="move" name="topleft"/>
    </contour>
    <contour>
      <point x="220" y="0" type="move" name="bottom"/>
    </contour>
  </outline>
</glyph>
<glyph name="Eng.ss01" format="1">
  <advance width="647"/>
  <outline>
    <contour>
      <point x="155" y="422" type="curve"/>
      <point x="159" y="419" type="line"/>
      <point x="187" y="559" type="line"/>
      <point x="167" y="559" type="line"/>
      <point x="54" y="0" type="line"/>
      <point x="74" y="0" type="line"/>
      <point x="143" y="337" type="line" smooth="yes"/>
      <point x="172" y="478"/>
      <point x="262" y="543"/>
      <point x="383" y="543" type="curve" smooth="yes"/>
      <point x="510" y="543"/>
      <point x="569" y="470"/>
      <point x="540" y="327" type="curve" smooth="yes"/>
      <point x="474" y="3" type="line" smooth="yes"/>
      <point x="452" y="-102"/>
      <point x="407" y="-138"/>
      <point x="332" y="-138" type="curve" smooth="yes"/>
      <point x="274" y="-138"/>
      <point x="231" y="-111"/>
      <point x="211" y="-68" type="curve"/>
      <point x="194" y="-80" type="line"/>
      <point x="215" y="-126"/>
      <point x="266" y="-158"/>
      <point x="330" y="-158" type="curve" smooth="yes"/>
      <point x="417" y="-158"/>
      <point x="470" y="-116"/>
      <point x="493" y="-1" type="curve" smooth="yes"/>
      <point x="560" y="328" type="line" smooth="yes"/>
      <point x="591" y="482"/>
      <point x="520" y="562"/>
      <point x="386" y="562" type="curve" smooth="yes"/>
      <point x="284" y="562"/>
      <point x="202" y="518"/>
    </contour>
  </outline>
</glyph>
<glyph name="Eogonek.ss01" format="1">
  <advance width="498"/>
  <outline>
    <contour>
      <point x="389" y="-149" type="curve"/>
      <point x="383" y="-134" type="line"/>
      <point x="367" y="-147"/>
      <point x="346" y="-154"/>
      <point x="326" y="-154" type="curve" smooth="yes"/>
      <point x="297" y="-154"/>
      <point x="280" y="-137"/>
      <point x="280" y="-111" type="curve" smooth="yes"/>
      <point x="280" y="-53"/>
      <point x="341" y="-4"/>
      <point x="442" y="72" type="curve"/>
      <point x="430" y="87" type="line"/>
      <point x="384" y="46"/>
      <point x="309" y="16"/>
      <point x="222" y="16" type="curve" smooth="yes"/>
      <point x="110" y="16"/>
      <point x="48" y="57"/>
      <point x="48" y="130" type="curve" smooth="yes"/>
      <point x="48" y="218"/>
      <point x="126" y="275"/>
      <point x="251" y="275" type="curve" smooth="yes"/>
      <point x="385" y="275" type="line"/>
      <point x="388" y="293" type="line"/>
      <point x="255" y="293" type="line" smooth="yes"/>
      <point x="174" y="293"/>
      <point x="126" y="332"/>
      <point x="126" y="396" type="curve" smooth="yes"/>
      <point x="126" y="484"/>
      <point x="207" y="543"/>
      <point x="327" y="543" type="curve" smooth="yes"/>
      <point x="392" y="543"/>
      <point x="444" y="529"/>
      <point x="492" y="498" type="curve"/>
      <point x="502" y="515" type="line"/>
      <point x="457" y="546"/>
      <point x="396" y="562"/>
      <point x="328" y="562" type="curve" smooth="yes"/>
      <point x="196" y="562"/>
      <point x="107" y="496"/>
      <point x="107" y="394" type="curve" smooth="yes"/>
      <point x="107" y="323"/>
      <point x="160" y="279"/>
      <point x="245" y="279" type="curve"/>
      <point x="243" y="290" type="line"/>
      <point x="113" y="290"/>
      <point x="28" y="227"/>
      <point x="28" y="128" type="curve" smooth="yes"/>
      <point x="28" y="46"/>
      <point x="98" y="-3"/>
      <point x="218" y="-3" type="curve" smooth="yes"/>
      <point x="267" y="-3"/>
      <point x="317" y="5"/>
      <point x="358" y="20" type="curve"/>
      <point x="364" y="32" type="line"/>
      <point x="293" y="-25"/>
      <point x="262" y="-65"/>
      <point x="262" y="-113" type="curve" smooth="yes"/>
      <point x="262" y="-147"/>
      <point x="286" y="-171"/>
      <point x="323" y="-171" type="curve" smooth="yes"/>
      <point x="348" y="-171"/>
      <point x="371" y="-164"/>
    </contour>
  </outline>
</glyph>
<glyph name="F.ss01" format="1">
  <advance width="483"/>
  <outline>
    <contour>
      <point x="70" y="0" type="line"/>
      <point x="148" y="381" type="line" smooth="yes"/>
      <point x="168" y="485"/>
      <point x="236" y="543"/>
      <point x="362" y="543" type="curve" smooth="yes"/>
      <point x="422" y="543"/>
      <point x="471" y="529"/>
      <point x="508" y="499" type="curve"/>
      <point x="520" y="514" type="line"/>
      <point x="482" y="547"/>
      <point x="426" y="562"/>
      <point x="363" y="562" type="curve" smooth="yes"/>
      <point x="225" y="562"/>
      <point x="150" y="498"/>
      <point x="127" y="383" type="curve" smooth="yes"/>
      <point x="50" y="0" type="line"/>
    </contour>
    <contour>
      <point x="414" y="258" type="line"/>
      <point x="418" y="277" type="line"/>
      <point x="121" y="277" type="line"/>
      <point x="118" y="258" type="line"/>
    </contour>
  </outline>
</glyph>
<glyph name="G.ss01" format="1">
  <advance width="626"/>
  <outline>
    <contour>
      <point x="375" y="-3"/>
      <point x="443" y="19"/>
      <point x="488" y="60" type="curve"/>
      <point x="489" y="79" type="line"/>
      <point x="435" y="36"/>
      <point x="376" y="16"/>
      <point x="304" y="16" type="curve" smooth="yes"/>
      <point x="148" y="16"/>
      <point x="67" y="101"/>
      <point x="67" y="224" type="curve" smooth="yes"/>
      <point x="67" y="396"/>
      <point x="191" y="543"/>
      <point x="386" y="543" type="curve" smooth="yes"/>
      <point x="469" y="543"/>
      <point x="531" y="521"/>
      <point x="569" y="477" type="curve"/>
      <point x="584" y="490" type="line"/>
      <point x="545" y="535"/>
      <point x="475" y="562"/>
      <point x="388" y="562" type="curve" smooth="yes"/>
      <point x="175" y="562"/>
      <point x="47" y="404"/>
      <point x="47" y="224" type="curve" smooth="yes"/>
      <point x="47" y="88"/>
      <point x="137" y="-3"/>
      <point x="302" y="-3" type="curve" smooth="yes"/>
    </contour>
    <contour>
      <point x="485" y="0" type="line"/>
      <point x="540" y="275" type="line"/>
      <point x="522" y="275" type="line"/>
      <point x="479" y="65" type="line"/>
      <point x="479" y="60" type="line"/>
      <point x="467" y="0" type="line"/>
    </contour>
    <contour>
      <point x="387" y="559" type="move" name="top"/>
    </contour>
    <contour>
      <point x="273" y="0" type="move" name="bottom"/>
    </contour>
  </outline>
</glyph>
<glyph name="Germandbls" format="1">
  <advance width="601"/>
  <outline>
    <contour>
      <point x="529" y="179" type="curve" smooth="yes"/>
      <point x="529" y="263"/>
      <point x="470" y="310"/>
      <point x="376" y="310" type="curve" smooth="yes"/>
      <point x="356" y="310"/>
      <point x="333" y="309"/>
      <point x="312" y="302" type="curve"/>
      <point x="315" y="291" type="line"/>
      <point x="542" y="482" type="line"/>
      <point x="545" y="498" type="line"/>
      <point x="510" y="537"/>
      <point x="453" y="559"/>
      <point x="376" y="559" type="curve" smooth="yes"/>
      <point x="232" y="559"/>
      <point x="147" y="481"/>
      <point x="120" y="345" type="curve" smooth="yes"/>
      <point x="49" y="0" type="line"/>
      <point x="69" y="0" type="line"/>
      <point x="138" y="339" type="line" smooth="yes"/>
      <point x="164" y="470"/>
      <point x="243" y="540"/>
      <point x="374" y="540" type="curve" smooth="yes"/>
      <point x="445" y="540"/>
      <point x="499" y="522"/>
      <point x="530" y="485" type="curve"/>
      <point x="533" y="497" type="line"/>
      <point x="297" y="298" type="line"/>
      <point x="299" y="283" type="line"/>
      <point x="321" y="289"/>
      <point x="349" y="293"/>
      <point x="373" y="293" type="curve" smooth="yes"/>
      <point x="459" y="293"/>
      <point x="510" y="253"/>
      <point x="510" y="179" type="curve" smooth="yes"/>
      <point x="510" y="77"/>
      <point x="438" y="16"/>
      <point x="333" y="16" type="curve" smooth="yes"/>
      <point x="290" y="16"/>
      <point x="253" y="24"/>
      <point x="221" y="41" type="curve"/>
      <point x="212" y="21" type="line"/>
      <point x="244" y="5"/>
      <point x="287" y="-3"/>
      <point x="330" y="-3" type="curve" smooth="yes"/>
      <point x="449" y="-3"/>
      <point x="529" y="67"/>
    </contour>
  </outline>
</glyph>
<glyph name="I.ss01" format="1">
  <advance width="343"/>
  <outline>
    <contour>
      <point x="131" y="8" type="line"/>
      <point x="241" y="551" type="line"/>
      <point x="221" y="551" type="line"/>
      <point x="111" y="8" type="line"/>
    </contour>
    <contour>
      <point x="253" y="0" type="line"/>
      <point x="257" y="19" type="line"/>
      <point x="-11" y="19" type="line"/>
      <point x="-14" y="0" type="line"/>
    </contour>
    <contour>
      <point x="363" y="540" type="line"/>
      <point x="366" y="559" type="line"/>
      <point x="99" y="559" type="line"/>
      <point x="95" y="540" type="line"/>
    </contour>
    <contour>
      <point x="129" y="0" type="move" name="ogonek"/>
    </contour>
    <contour>
      <point x="233" y="559" type="move" name="top"/>
    </contour>
    <contour>
      <point x="66" y="559" type="move" name="topleft"/>
    </contour>
    <contour>
      <point x="119" y="0" type="move" name="bottom"/>
    </contour>
  </outline>
</glyph>
<glyph name="IJ.ss01" format="1">
  <advance width="578"/>
  <outline>
    <contour>
      <point x="344" y="-82"/>
      <point x="423" y="-6"/>
      <point x="455" y="152" type="curve" smooth="yes"/>
      <point x="538" y="559" type="line"/>
      <point x="518" y="559" type="line"/>
      <point x="436" y="156" type="line" smooth="yes"/>
      <point x="406" y="6"/>
      <point x="333" y="-63"/>
      <point x="208" y="-63" type="curve" smooth="yes"/>
      <point x="144" y="-63"/>
      <point x="90" y="-44"/>
      <point x="50" y="-14" type="curve"/>
      <point x="38" y="-31" type="line"/>
      <point x="78" y="-61"/>
      <point x="136" y="-82"/>
      <point x="208" y="-82" type="curve" smooth="yes"/>
    </contour>
    <contour>
      <point x="100" y="153" type="line"/>
      <point x="183" y="559" type="line"/>
      <point x="163" y="559" type="line"/>
      <point x="80" y="153" type="line"/>
    </contour>
    <contour>
      <point x="196" y="559" type="move" name="top"/>
    </contour>
  </outline>
</glyph>
<glyph name="Iacute_J.loclNLD" format="1">
  <advance width="578"/>
  <outline>
    <contour>
      <point x="481" y="232" type="curve" smooth="yes"/>
      <point x="548" y="559" type="line"/>
      <point x="528" y="559" type="line"/>
      <point x="462" y="235" type="line" smooth="yes"/>
      <point x="432" y="85"/>
      <point x="359" y="17"/>
      <point x="234" y="17" type="curve" smooth="yes"/>
      <point x="170" y="17"/>
      <point x="116" y="36"/>
      <point x="76" y="66" type="curve"/>
      <point x="64" y="49" type="line"/>
      <point x="104" y="19"/>
      <point x="162" y="-3"/>
      <point x="234" y="-3" type="curve" smooth="yes"/>
      <point x="370" y="-3"/>
      <point x="449" y="73"/>
    </contour>
    <contour>
      <point x="126" y="233" type="line"/>
      <point x="193" y="559" type="line"/>
      <point x="173" y="559" type="line"/>
      <point x="106" y="233" type="line"/>
    </contour>
    <contour>
      <point x="204" y="605" type="line"/>
      <point x="344" y="694" type="line"/>
      <point x="309" y="694" type="line"/>
      <point x="178" y="605" type="line"/>
    </contour>
    <contour>
      <point x="561" y="605" type="line"/>
      <point x="701" y="694" type="line"/>
      <point x="665" y="694" type="line"/>
      <point x="534" y="605" type="line"/>
    </contour>
  </outline>
</glyph>
<glyph name="Iacute_J.loclNLD.ss01" format="1">
  <advance width="578"/>
  <outline>
    <contour>
      <point x="465" y="152" type="curve" smooth="yes"/>
      <point x="548" y="559" type="line"/>
      <point x="528" y="559" type="line"/>
      <point x="446" y="156" type="line" smooth="yes"/>
      <point x="416" y="6"/>
      <point x="343" y="-63"/>
      <point x="218" y="-63" type="curve" smooth="yes"/>
      <point x="154" y="-63"/>
      <point x="100" y="-44"/>
      <point x="60" y="-14" type="curve"/>
      <point x="48" y="-31" type="line"/>
      <point x="88" y="-61"/>
      <point x="146" y="-82"/>
      <point x="218" y="-82" type="curve" smooth="yes"/>
      <point x="354" y="-82"/>
      <point x="433" y="-6"/>
    </contour>
    <contour>
      <point x="110" y="153" type="line"/>
      <point x="193" y="559" type="line"/>
      <point x="173" y="559" type="line"/>
      <point x="90" y="153" type="line"/>
    </contour>
    <contour>
      <point x="204" y="605" type="line"/>
      <point x="344" y="694" type="line"/>
      <point x="309" y="694" type="line"/>
      <point x="178" y="605" type="line"/>
    </contour>
    <contour>
      <point x="561" y="605" type="line"/>
      <point x="701" y="694" type="line"/>
      <point x="665" y="694" type="line"/>
      <point x="534" y="605" type="line"/>
    </contour>
  </outline>
</glyph>
<glyph name="J.ss01" format="1">
  <advance width="388"/>
  <outline>
    <contour>
      <point x="249" y="74" type="curve" smooth="yes"/>
      <point x="347" y="559" type="line"/>
      <point x="116" y="559" type="line"/>
      <point x="112" y="540" type="line"/>
      <point x="324" y="540" type="line"/>
      <point x="230" y="78" type="line" smooth="yes"/>
      <point x="208" y="-26"/>
      <point x="163" y="-63"/>
      <point x="88" y="-63" type="curve" smooth="yes"/>
      <point x="30" y="-63"/>
      <point x="-14" y="-36"/>
      <point x="-34" y="8" type="curve"/>
      <point x="-51" y="-3" type="line"/>
      <point x="-30" y="-51"/>
      <point x="21" y="-83"/>
      <point x="86" y="-83" type="curve" smooth="yes"/>
      <point x="173" y="-83"/>
      <point x="226" y="-41"/>
    </contour>
    <contour>
      <point x="232" y="559" type="move" name="top"/>
    </contour>
  </outline>
</glyph>
<glyph name="M.ss01" format="1">
  <advance width="907"/>
  <outline>
    <contour>
      <point x="74" y="0" type="line"/>
      <point x="146" y="355" type="line" smooth="yes"/>
      <point x="172" y="485"/>
      <point x="247" y="543"/>
      <point x="342" y="543" type="curve" smooth="yes"/>
      <point x="446" y="543"/>
      <point x="491" y="480"/>
      <point x="465" y="352" type="curve" smooth="yes"/>
      <point x="394" y="0" type="line"/>
      <point x="414" y="0" type="line"/>
      <point x="482" y="336" type="line" smooth="yes"/>
      <point x="510" y="479"/>
      <point x="582" y="543"/>
      <point x="680" y="543" type="curve" smooth="yes"/>
      <point x="784" y="543"/>
      <point x="831" y="480"/>
      <point x="804" y="352" type="curve" smooth="yes"/>
      <point x="733" y="0" type="line"/>
      <point x="753" y="0" type="line"/>
      <point x="824" y="353" type="line" smooth="yes"/>
      <point x="852" y="491"/>
      <point x="794" y="562"/>
      <point x="682" y="562" type="curve" smooth="yes"/>
      <point x="600" y="562"/>
      <point x="529" y="519"/>
      <point x="487" y="415" type="curve"/>
      <point x="491" y="415" type="line"/>
      <point x="493" y="513"/>
      <point x="438" y="562"/>
      <point x="345" y="562" type="curve" smooth="yes"/>
      <point x="267" y="562"/>
      <point x="197" y="524"/>
      <point x="159" y="439" type="curve"/>
      <point x="162" y="435" type="line"/>
      <point x="187" y="559" type="line"/>
      <point x="167" y="559" type="line"/>
      <point x="54" y="0" type="line"/>
    </contour>
    <contour>
      <point x="517" y="559" type="move" name="top"/>
    </contour>
    <contour>
      <point x="404" y="0" type="move" name="bottom"/>
    </contour>
  </outline>
</glyph>
<glyph name="N.ss01" format="1">
  <advance width="647"/>
  <outline>
    <contour>
      <point x="155" y="422" type="curve"/>
      <point x="159" y="419" type="line"/>
      <point x="187" y="559" type="line"/>
      <point x="167" y="559" type="line"/>
      <point x="54" y="0" type="line"/>
      <point x="74" y="0" type="line"/>
      <point x="143" y="337" type="line" smooth="yes"/>
      <point x="172" y="478"/>
      <point x="262" y="543"/>
      <point x="383" y="543" type="curve" smooth="yes"/>
      <point x="510" y="543"/>
      <point x="569" y="470"/>
      <point x="540" y="327" type="curve" smooth="yes"/>
      <point x="474" y="0" type="line"/>
      <point x="494" y="0" type="line"/>
      <point x="560" y="328" type="line" smooth="yes"/>
      <point x="591" y="482"/>
      <point x="520" y="562"/>
      <point x="386" y="562" type="curve" smooth="yes"/>
      <point x="284" y="562"/>
      <point x="202" y="518"/>
    </contour>
    <contour>
      <point x="387" y="559" type="move" name="top"/>
    </contour>
    <contour>
      <point x="272" y="0" type="move" name="bottom"/>
    </contour>
  </outline>
</glyph>
<glyph name="Oogonek" format="1">
  <advance width="677"/>
  <outline>
    <contour>
      <point x="313" y="-149" type="curve"/>
      <point x="307" y="-134" type="line"/>
      <point x="291" y="-147"/>
      <point x="270" y="-154"/>
      <point x="250" y="-154" type="curve" smooth="yes"/>
      <point x="221" y="-154"/>
      <point x="204" y="-139"/>
      <point x="204" y="-112" type="curve" smooth="yes"/>
      <point x="204" y="-70"/>
      <point x="252" y="-18"/>
      <point x="369" y="3" type="curve" smooth="yes"/>
      <point x="537" y="32"/>
      <point x="639" y="174"/>
      <point x="639" y="335" type="curve" smooth="yes"/>
      <point x="639" y="471"/>
      <point x="549" y="562"/>
      <point x="384" y="562" type="curve" smooth="yes"/>
      <point x="175" y="562"/>
      <point x="47" y="404"/>
      <point x="47" y="224" type="curve" smooth="yes"/>
      <point x="47" y="89"/>
      <point x="137" y="-3"/>
      <point x="302" y="-3" type="curve"/>
      <point x="300" y="1" type="line"/>
      <point x="220" y="-28"/>
      <point x="185" y="-70"/>
      <point x="185" y="-115" type="curve" smooth="yes"/>
      <point x="185" y="-150"/>
      <point x="210" y="-171"/>
      <point x="247" y="-171" type="curve" smooth="yes"/>
      <point x="272" y="-171"/>
      <point x="295" y="-164"/>
    </contour>
    <contour>
      <point x="67" y="224" type="curve" smooth="yes"/>
      <point x="67" y="397"/>
      <point x="191" y="543"/>
      <point x="382" y="543" type="curve" smooth="yes"/>
      <point x="539" y="543"/>
      <point x="619" y="458"/>
      <point x="619" y="335" type="curve" smooth="yes"/>
      <point x="619" y="162"/>
      <point x="496" y="17"/>
      <point x="304" y="17" type="curve" smooth="yes"/>
      <point x="148" y="17"/>
      <point x="67" y="101"/>
    </contour>
    <contour>
      <point x="399" y="559" type="move" name="top"/>
    </contour>
  </outline>
</glyph>
<glyph name="Q.ss01" format="1">
  <advance width="677"/>
  <outline>
    <contour>
      <point x="639" y="335" type="curve" smooth="yes"/>
      <point x="639" y="471"/>
      <point x="549" y="562"/>
      <point x="384" y="562" type="curve" smooth="yes"/>
      <point x="175" y="562"/>
      <point x="47" y="404"/>
      <point x="47" y="224" type="curve" smooth="yes"/>
      <point x="47" y="89"/>
      <point x="137" y="-3"/>
      <point x="302" y="-3" type="curve" smooth="yes"/>
      <point x="511" y="-3"/>
      <point x="639" y="156"/>
    </contour>
    <contour>
      <point x="274" y="-108" type="line"/>
      <point x="296" y="1" type="line"/>
      <point x="298" y="10" type="line"/>
      <point x="330" y="166" type="line"/>
      <point x="310" y="166" type="line"/>
      <point x="278" y="10" type="line"/>
      <point x="276" y="1" type="line"/>
      <point x="254" y="-108" type="line"/>
    </contour>
    <contour>
      <point x="67" y="224" type="curve" smooth="yes"/>
      <point x="67" y="397"/>
      <point x="191" y="543"/>
      <point x="382" y="543" type="curve" smooth="yes"/>
      <point x="539" y="543"/>
      <point x="619" y="458"/>
      <point x="619" y="335" type="curve" smooth="yes"/>
      <point x="619" y="162"/>
      <point x="496" y="17"/>
      <point x="304" y="17" type="curve" smooth="yes"/>
      <point x="148" y="17"/>
      <point x="67" y="101"/>
    </contour>
    <contour>
      <point x="399" y="559" type="move" name="top"/>
    </contour>
  </outline>
</glyph>
<glyph name="Saltillo" format="1">
  <advance width="171"/>
  <outline>
    <contour>
      <point x="101" y="238" type="line"/>
      <point x="166" y="559" type="line"/>
      <point x="146" y="559" type="line"/>
      <point x="82" y="238" type="line"/>
    </contour>
  </outline>
</glyph>
<glyph name="Schwa" format="1">
  <advance width="660"/>
  <outline>
    <contour>
      <point x="623" y="335" type="curve" smooth="yes"/>
      <point x="623" y="471"/>
      <point x="533" y="562"/>
      <point x="375" y="562" type="curve" smooth="yes"/>
      <point x="290" y="562"/>
      <point x="213" y="534"/>
      <point x="168" y="492" type="curve"/>
      <point x="179" y="477" type="line"/>
      <point x="225" y="518"/>
      <point x="291" y="543"/>
      <point x="373" y="543" type="curve" smooth="yes"/>
      <point x="522" y="543"/>
      <point x="603" y="459"/>
      <point x="603" y="335" type="curve" smooth="yes"/>
      <point x="603" y="163"/>
      <point x="480" y="16"/>
      <point x="296" y="16" type="curve" smooth="yes"/>
      <point x="154" y="16"/>
      <point x="65" y="98"/>
      <point x="65" y="220" type="curve" smooth="yes"/>
      <point x="65" y="239"/>
      <point x="68" y="258"/>
      <point x="72" y="279" type="curve"/>
      <point x="62" y="271" type="line"/>
      <point x="600" y="271" type="line"/>
      <point x="604" y="289" type="line"/>
      <point x="53" y="289" type="line"/>
      <point x="49" y="262"/>
      <point x="45" y="241"/>
      <point x="45" y="219" type="curve" smooth="yes"/>
      <point x="45" y="89"/>
      <point x="138" y="-3"/>
      <point x="294" y="-3" type="curve" smooth="yes"/>
      <point x="495" y="-3"/>
      <point x="623" y="155"/>
    </contour>
    <contour>
      <point x="392" y="559" type="move" name="top"/>
    </contour>
    <contour>
      <point x="279" y="0" type="move" name="bottom"/>
    </contour>
  </outline>
</glyph>
